<?xml version="1.0" encoding="utf-8"?>
<!-- Generator: Adobe Illustrator 19.0.0, SVG Export Plug-In . SVG Version: 6.00 Build 0)  -->
<svg version="1.1" id="Layer_1" xmlns="http://www.w3.org/2000/svg" xmlns:xlink="http://www.w3.org/1999/xlink" x="0px" y="0px"
	 viewBox="0 0 283.5 283.5" style="enable-background:new 0 0 283.5 283.5;" xml:space="preserve">
<style type="text/css">
	.st0{fill:#D1D3D4;stroke:#808285;}
	.st1{fill:#FFFFFF;stroke:#000000;stroke-width:0.7087;stroke-linecap:round;stroke-linejoin:round;}
	.st2{fill:none;stroke:#000000;stroke-width:0.7087;stroke-linecap:round;}
	.st3{fill:none;stroke:#000000;stroke-width:0.7087;stroke-linecap:round;stroke-linejoin:round;}
	.st4{fill:#010101;}
	.st5{font-family:'DroidSans';}
	.st6{font-size:5px;}
	.st7{font-family:'MyriadPro-Regular';}
	.st8{font-size:12px;}
</style>
<g id="XMLID_102_">
	<rect id="XMLID_7_" x="227.4" y="131.8" class="st0" width="23.9" height="42.4"/>
	<rect id="XMLID_6_" x="32.2" y="81.2" class="st0" width="41.6" height="124.7"/>
	<polygon id="XMLID_161_" class="st1" points="154.2,168.1 183,153.7 154.2,139.3 	"/>
	<line id="XMLID_160_" class="st2" x1="157.8" y1="162.7" x2="157.8" y2="159.1"/>
	<line id="XMLID_159_" class="st2" x1="156" y1="160.9" x2="159.6" y2="160.9"/>
	<line id="XMLID_158_" class="st2" x1="156" y1="146.5" x2="159.6" y2="146.5"/>
	<line id="XMLID_14_" class="st2" x1="161.4" y1="182.5" x2="161.4" y2="164.7"/>
	<line id="XMLID_157_" class="st2" x1="161.4" y1="142.6" x2="161.4" y2="139.3"/>
	<line id="connector2pin" class="st2" x1="147" y1="160.9" x2="154.2" y2="160.9"/>
	<line id="connector3pin" class="st2" x1="147" y1="146.5" x2="154.2" y2="146.5"/>
	<line id="connector0pin" class="st2" x1="190.2" y1="153.7" x2="183" y2="153.7"/>
	<line id="connector0pin_1_" class="st3" x1="161.4" y1="139.3" x2="161.4" y2="124.7"/>
	<polyline id="XMLID_156_" class="st3" points="163.3,118 161.4,122.2 159.4,118 	"/>
	<line id="line" class="st3" x1="161.4" y1="122" x2="161.4" y2="127.3"/>
	<polyline id="XMLID_155_" class="st3" points="68.1,173.3 72.3,175.3 68.1,177.2 	"/>
	<line id="line_1_" class="st3" x1="72.1" y1="175.3" x2="77.4" y2="175.3"/>
	<line id="connector0pin_3_" class="st3" x1="81.8" y1="146.5" x2="74.8" y2="146.5"/>
	<polyline id="XMLID_154_" class="st3" points="68.1,144.5 72.3,146.5 68.1,148.4 	"/>
	<line id="line_2_" class="st3" x1="72.1" y1="146.5" x2="77.4" y2="146.5"/>
	<line id="connector0pin_4_" class="st3" x1="81.8" y1="160.9" x2="74.8" y2="160.9"/>
	<polyline id="XMLID_153_" class="st3" points="68.1,158.9 72.3,160.9 68.1,162.8 	"/>
	<line id="line_3_" class="st3" x1="72.1" y1="160.9" x2="77.4" y2="160.9"/>
	<polyline id="XMLID_42_" class="st3" points="233,151.7 228.9,153.7 233,155.6 	"/>
	<line id="line_4_" class="st3" x1="229" y1="153.7" x2="223.7" y2="153.7"/>
	<line id="connector0pin_6_" class="st3" x1="219.3" y1="139.3" x2="226.3" y2="139.3"/>
	<polyline id="XMLID_41_" class="st3" points="233,137.3 228.9,139.3 233,141.2 	"/>
	<line id="line_5_" class="st3" x1="229" y1="139.3" x2="223.7" y2="139.3"/>
	<polyline id="XMLID_40_" class="st3" points="233,166.1 228.9,168.1 233,170 	"/>
	<line id="line_6_" class="st3" x1="229" y1="168.1" x2="223.7" y2="168.1"/>
	<line id="connector0pin_8_" class="st3" x1="125.4" y1="95.7" x2="125.4" y2="88.7"/>
	<polyline id="XMLID_152_" class="st3" points="127.3,82 125.4,86.2 123.4,82 	"/>
	<line id="line_7_" class="st3" x1="125.4" y1="86" x2="125.4" y2="91.3"/>
	<path id="path4098" class="st2" d="M75.5,182.5h13.4"/>
	<path id="path4100" class="st2" d="M77.7,185.2h8.9"/>
	<path id="path4102" class="st2" d="M84.4,188h-4.5"/>
	<path id="connector0pin_10_" class="st2" d="M125.4,200.4v-7.2"/>
	<path id="path4098_1_" class="st2" d="M118.7,200.5h13.4"/>
	<path id="path4100_1_" class="st2" d="M120.9,203.2h8.9"/>
	<path id="path4102_1_" class="st2" d="M127.6,206h-4.5"/>
	<path id="connector0pin_11_" class="st2" d="M218.9,175.2v-7.1h7.4"/>
	<path id="path4098_2_" class="st2" d="M212.2,175.3h13.4"/>
	<path id="path4100_2_" class="st2" d="M214.5,178h8.9"/>
	<path id="path4102_2_" class="st2" d="M221.1,180.8h-4.5"/>
	<path id="path4098_3_" class="st2" d="M154.7,182.5h13.4"/>
	<path id="path4100_3_" class="st2" d="M156.9,185.2h8.9"/>
	<path id="path4102_3_" class="st2" d="M163.6,188h-4.5"/>
	<line id="XMLID_39_" class="st2" x1="197.4" y1="153.7" x2="198.4" y2="150.8"/>
	<line id="XMLID_38_" class="st2" x1="198.4" y1="150.8" x2="200.2" y2="156.5"/>
	<line id="XMLID_37_" class="st2" x1="200.2" y1="156.5" x2="202" y2="150.8"/>
	<line id="XMLID_36_" class="st2" x1="202" y1="150.8" x2="203.8" y2="156.5"/>
	<line id="XMLID_35_" class="st2" x1="203.8" y1="156.5" x2="205.6" y2="150.8"/>
	<line id="XMLID_34_" class="st2" x1="205.6" y1="150.8" x2="207.4" y2="156.5"/>
	<line id="XMLID_33_" class="st2" x1="207.4" y1="156.5" x2="209.2" y2="150.8"/>
	<line id="XMLID_32_" class="st2" x1="209.2" y1="150.8" x2="211" y2="156.5"/>
	<line id="XMLID_31_" class="st2" x1="211" y1="156.5" x2="211.8" y2="153.7"/>
	<polyline id="connector1pin_1_" class="st2" points="211.8,153.7 219,153.7 219.3,153.7 226.3,153.7 	"/>
	<line id="connector0pin_13_" class="st2" x1="190.2" y1="153.7" x2="197.4" y2="153.7"/>
	<line id="XMLID_151_" class="st2" x1="89.4" y1="160.9" x2="90.4" y2="158"/>
	<line id="XMLID_150_" class="st2" x1="90.4" y1="158" x2="92.2" y2="163.7"/>
	<line id="XMLID_149_" class="st2" x1="92.2" y1="163.7" x2="94" y2="158"/>
	<line id="XMLID_148_" class="st2" x1="94" y1="158" x2="95.8" y2="163.7"/>
	<line id="XMLID_147_" class="st2" x1="95.8" y1="163.7" x2="97.6" y2="158"/>
	<line id="XMLID_146_" class="st2" x1="97.6" y1="158" x2="99.4" y2="163.7"/>
	<line id="XMLID_145_" class="st2" x1="99.4" y1="163.7" x2="101.2" y2="158"/>
	<line id="XMLID_144_" class="st2" x1="101.2" y1="158" x2="103" y2="163.7"/>
	<line id="XMLID_143_" class="st2" x1="103" y1="163.7" x2="103.8" y2="160.9"/>
	<line id="connector1pin_2_" class="st2" x1="111" y1="160.9" x2="103.8" y2="160.9"/>
	<line id="connector0pin_14_" class="st2" x1="82.2" y1="160.9" x2="89.4" y2="160.9"/>
	<line id="XMLID_142_" class="st2" x1="125.4" y1="99.7" x2="128.2" y2="100.7"/>
	<line id="XMLID_141_" class="st2" x1="128.2" y1="100.7" x2="122.5" y2="102.5"/>
	<line id="XMLID_140_" class="st2" x1="122.5" y1="102.5" x2="128.2" y2="104.3"/>
	<line id="XMLID_139_" class="st2" x1="128.2" y1="104.3" x2="122.5" y2="106.1"/>
	<line id="XMLID_138_" class="st2" x1="122.5" y1="106.1" x2="128.2" y2="107.9"/>
	<line id="XMLID_137_" class="st2" x1="128.2" y1="107.9" x2="122.5" y2="109.7"/>
	<line id="XMLID_136_" class="st2" x1="122.5" y1="109.7" x2="128.2" y2="111.5"/>
	<line id="XMLID_135_" class="st2" x1="128.2" y1="111.5" x2="122.5" y2="113.3"/>
	<line id="XMLID_134_" class="st2" x1="122.5" y1="113.3" x2="125.4" y2="114.1"/>
	<line id="connector1pin_3_" class="st2" x1="125.4" y1="121.3" x2="125.4" y2="114.1"/>
	<line id="connector0pin_15_" class="st2" x1="125.4" y1="92.5" x2="125.4" y2="99.7"/>
	<line id="XMLID_133_" class="st2" x1="125.4" y1="175.3" x2="128.2" y2="176.3"/>
	<line id="XMLID_132_" class="st2" x1="128.2" y1="176.3" x2="122.5" y2="178.1"/>
	<line id="XMLID_131_" class="st2" x1="122.5" y1="178.1" x2="128.2" y2="179.9"/>
	<line id="XMLID_130_" class="st2" x1="128.2" y1="179.9" x2="122.5" y2="181.7"/>
	<line id="XMLID_129_" class="st2" x1="122.5" y1="181.7" x2="128.2" y2="183.5"/>
	<line id="XMLID_128_" class="st2" x1="128.2" y1="183.5" x2="122.5" y2="185.3"/>
	<line id="XMLID_127_" class="st2" x1="122.5" y1="185.3" x2="128.2" y2="187.1"/>
	<line id="XMLID_126_" class="st2" x1="128.2" y1="187.1" x2="122.5" y2="188.9"/>
	<line id="XMLID_125_" class="st2" x1="122.5" y1="188.9" x2="125.4" y2="189.7"/>
	<line id="connector1pin_4_" class="st2" x1="125.4" y1="196.9" x2="125.4" y2="189.7"/>
	<line id="XMLID_124_" class="st2" x1="125.4" y1="124.9" x2="128.2" y2="125.9"/>
	<line id="XMLID_123_" class="st2" x1="128.2" y1="125.9" x2="122.5" y2="127.7"/>
	<line id="XMLID_122_" class="st2" x1="122.5" y1="127.7" x2="128.2" y2="129.5"/>
	<line id="XMLID_121_" class="st2" x1="128.2" y1="129.5" x2="122.5" y2="131.3"/>
	<line id="XMLID_120_" class="st2" x1="122.5" y1="131.3" x2="128.2" y2="133.1"/>
	<line id="XMLID_119_" class="st2" x1="128.2" y1="133.1" x2="122.5" y2="134.9"/>
	<line id="XMLID_118_" class="st2" x1="122.5" y1="134.9" x2="128.2" y2="136.7"/>
	<line id="XMLID_117_" class="st2" x1="128.2" y1="136.7" x2="122.5" y2="138.5"/>
	<line id="XMLID_116_" class="st2" x1="122.5" y1="138.5" x2="125.4" y2="139.3"/>
	<line id="connector1pin_5_" class="st2" x1="125.4" y1="146.5" x2="125.4" y2="139.3"/>
	<line id="connector0pin_17_" class="st2" x1="125.4" y1="117.7" x2="125.4" y2="124.9"/>
	<line id="XMLID_54_" class="st2" x1="157.8" y1="206.4" x2="158.8" y2="203.5"/>
	<line id="XMLID_53_" class="st2" x1="158.8" y1="203.5" x2="160.6" y2="209.2"/>
	<line id="XMLID_52_" class="st2" x1="160.6" y1="209.2" x2="162.4" y2="203.5"/>
	<line id="XMLID_51_" class="st2" x1="162.4" y1="203.5" x2="164.2" y2="209.2"/>
	<line id="XMLID_50_" class="st2" x1="164.2" y1="209.2" x2="166" y2="203.5"/>
	<line id="XMLID_49_" class="st2" x1="166" y1="203.5" x2="167.8" y2="209.2"/>
	<line id="XMLID_48_" class="st2" x1="167.8" y1="209.2" x2="169.6" y2="203.5"/>
	<line id="XMLID_47_" class="st2" x1="169.6" y1="203.5" x2="171.4" y2="209.2"/>
	<line id="XMLID_46_" class="st2" x1="171.4" y1="209.2" x2="172.2" y2="206.4"/>
	<line id="connector1pin_6_" class="st2" x1="179.4" y1="206.4" x2="172.2" y2="206.4"/>
	<circle id="XMLID_115_" class="st4" cx="186.6" cy="153.7" r="1.4"/>
	<polyline id="XMLID_17_" class="st2" points="179.4,206.4 186.5,206.3 186.6,153.7 	"/>
	<line id="XMLID_114_" class="st2" x1="139.7" y1="160.9" x2="150.6" y2="160.9"/>
	<circle id="XMLID_113_" class="st4" cx="139.7" cy="160.9" r="1.4"/>
	<line id="XMLID_112_" class="st2" x1="139.7" y1="160.9" x2="111" y2="160.9"/>
	<line id="XMLID_111_" class="st2" x1="147" y1="146.5" x2="125.4" y2="146.5"/>
	<circle id="XMLID_110_" class="st4" cx="125.4" cy="146.5" r="1.4"/>
	<line id="XMLID_109_" class="st2" x1="125.4" y1="121.3" x2="125.4" y2="117.7"/>
	<line id="XMLID_108_" class="st2" x1="161.4" y1="132.1" x2="161.4" y2="132.1"/>
	<circle id="XMLID_107_" class="st4" cx="186.6" cy="153.7" r="1.4"/>
	<polyline id="XMLID_15_" class="st2" points="74.8,175.3 82.2,175.3 82.2,175.3 82.2,182.4 	"/>
	<line id="XMLID_106_" class="st2" x1="82.2" y1="160.9" x2="82.2" y2="160.9"/>
	<line id="XMLID_105_" class="st2" x1="125.4" y1="92.5" x2="125.4" y2="96.1"/>
	<circle id="XMLID_104_" class="st4" cx="125.4" cy="146.5" r="1.4"/>
	<line id="XMLID_103_" class="st2" x1="125.4" y1="193.3" x2="125.4" y2="196.9"/>
	<text id="XMLID_1_" transform="matrix(1 0 0 1 59.1657 161.8211)" class="st4 st5 st6">TL</text>
	<text id="XMLID_30_" transform="matrix(1 0 0 1 235.5551 139.9751)" class="st4 st5 st6">+5V</text>
	<text id="XMLID_2_" transform="matrix(1 0 0 1 156.7362 114.5111)" class="st4 st5 st6">+5V</text>
	<text id="XMLID_3_" transform="matrix(1 0 0 1 55.596 147.1749)" class="st4 st5 st6">+5V</text>
	<text id="XMLID_4_" transform="matrix(1 0 0 1 55.596 177.452)" class="st4 st5 st6">GND</text>
	<text id="XMLID_5_" transform="matrix(1 0 0 1 120.7362 78.5111)" class="st4 st5 st6">+5V</text>
	<text id="XMLID_29_" transform="matrix(1 0 0 1 235.124 154.9121)" class="st4 st5 st6">Timer</text>
	<text id="XMLID_28_" transform="matrix(1 0 0 1 234.6821 169.9611)" class="st4 st5 st6">GND</text>
	<text id="XMLID_27_" transform="matrix(1 0 0 1 199.3402 149.2608)" class="st4 st5 st6">33Ω</text>
	<text id="XMLID_44_" transform="matrix(1 0 0 1 108.8465 184.4426)" class="st4 st5 st6">2.7kΩ</text>
	<text id="XMLID_26_" transform="matrix(1 0 0 1 128.9433 134.0432)" class="st4 st5 st6">220Ω</text>
	<text id="XMLID_43_" transform="matrix(1 0 0 1 129.0786 107.9432)" class="st4 st5 st6">2.2kΩ</text>
	<text id="XMLID_45_" transform="matrix(1 0 0 1 89.8994 157.0293)" class="st4 st5 st6">4.7kΩ</text>
	<text id="XMLID_25_" transform="matrix(1 0 0 1 157.7598 154.9121)" class="st4 st5 st6">LM339</text>
	<text id="XMLID_24_" transform="matrix(1 0 0 1 157.0352 201.8637)" class="st4 st5 st6">100kΩ</text>
	<path id="XMLID_16_" class="st2" d="M125.4,146.5l0,10.9c2,0,3.6,1.6,3.6,3.6s-1.6,3.6-3.6,3.6v10.7"/>
	<polyline id="XMLID_18_" class="st2" points="139.7,160.9 139.7,206.4 157.8,206.4 	"/>
	<text id="XMLID_20_" transform="matrix(1 0 0 1 147.9293 166.1138)" class="st4 st5 st6">11</text>
	<text id="XMLID_19_" transform="matrix(1 0 0 1 147.9295 145.0235)" class="st4 st5 st6">10</text>
	<text id="XMLID_21_" transform="matrix(1 0 0 1 162.4395 142.5754)" class="st4 st5 st6">3</text>
	<text id="XMLID_22_" transform="matrix(1 0 0 1 182.9591 150.7829)" class="st4 st5 st6">13</text>
	<text id="XMLID_23_" transform="matrix(1 0 0 1 162.4395 168.0631)" class="st4 st5 st6">12</text>
	<text id="XMLID_8_" transform="matrix(4.489659e-011 -1 1 4.489659e-011 46.9157 200.7634)" class="st7 st8">Laser HV Power Supply</text>
</g>
</svg>
