<?xml version="1.0" encoding="utf-8"?>
<!-- Generator: Adobe Illustrator 19.0.0, SVG Export Plug-In . SVG Version: 6.00 Build 0)  -->
<svg version="1.1" id="Layer_1" xmlns="http://www.w3.org/2000/svg" xmlns:xlink="http://www.w3.org/1999/xlink" x="0px" y="0px"
	 viewBox="-1558 1134.7 283.5 283.5" style="enable-background:new -1558 1134.7 283.5 283.5;" xml:space="preserve">
<style type="text/css">
	.st0{fill:#D1D3D4;stroke:#808285;}
	.st1{fill:none;stroke:#000000;stroke-width:0.7087;stroke-linecap:round;stroke-linejoin:round;}
	.st2{fill:none;stroke:#000000;stroke-width:0.7087;stroke-linecap:round;}
	.st3{fill:none;stroke:#000000;stroke-width:0.7087;}
	.st4{fill:#010101;}
	.st5{enable-background:new    ;}
</style>
<rect id="XMLID_34_" x="-1379.8" y="1196.5" class="st0" width="46.5" height="58.7"/>
<rect id="XMLID_23_" x="-1447.3" y="1292.7" class="st0" width="83.8" height="25.3"/>
<rect id="XMLID_22_" x="-1447.3" y="1326.2" class="st0" width="83.8" height="37.3"/>
<rect id="XMLID_20_" x="-1499.3" y="1189.4" class="st0" width="36.4" height="174"/>
<polyline id="XMLID_214_" class="st1" points="-1441.5,1332.5 -1445.6,1334.4 -1441.5,1336.4 "/>
<line id="line" class="st1" x1="-1445.4" y1="1334.4" x2="-1450.8" y2="1334.4"/>
<polyline id="XMLID_213_" class="st1" points="-1441.5,1339.7 -1445.6,1341.6 -1441.5,1343.6 "/>
<line id="line_1_" class="st1" x1="-1445.4" y1="1341.6" x2="-1450.8" y2="1341.6"/>
<line id="connector0pin_2_" class="st1" x1="-1455.9" y1="1226.4" x2="-1462.9" y2="1226.4"/>
<polyline id="XMLID_212_" class="st1" points="-1469.6,1224.5 -1465.4,1226.4 -1469.6,1228.4 "/>
<line id="line_2_" class="st1" x1="-1465.6" y1="1226.4" x2="-1460.3" y2="1226.4"/>
<polyline id="connector0pin_3_" class="st1" points="-1462.9,1341.6 -1455.9,1341.6 -1455.2,1341.6 -1448.2,1341.6 "/>
<polyline id="XMLID_211_" class="st1" points="-1469.6,1339.7 -1465.4,1341.6 -1469.6,1343.6 "/>
<line id="line_3_" class="st1" x1="-1465.6" y1="1341.6" x2="-1460.3" y2="1341.6"/>
<line id="connector0pin_4_" class="st1" x1="-1455.9" y1="1276.8" x2="-1462.9" y2="1276.8"/>
<polyline id="XMLID_210_" class="st1" points="-1469.6,1274.9 -1465.4,1276.8 -1469.6,1278.8 "/>
<line id="line_4_" class="st1" x1="-1465.6" y1="1276.8" x2="-1460.3" y2="1276.8"/>
<line id="connector0pin_5_" class="st1" x1="-1455.9" y1="1204.8" x2="-1462.9" y2="1204.8"/>
<polyline id="XMLID_209_" class="st1" points="-1469.6,1202.9 -1465.4,1204.8 -1469.6,1206.8 "/>
<line id="line_5_" class="st1" x1="-1465.6" y1="1204.8" x2="-1460.3" y2="1204.8"/>
<polyline id="connector0pin_6_" class="st1" points="-1462.9,1334.4 -1455.9,1334.4 -1455.2,1334.4 -1448.2,1334.4 "/>
<polyline id="XMLID_208_" class="st1" points="-1469.6,1332.5 -1465.4,1334.4 -1469.6,1336.4 "/>
<line id="line_6_" class="st1" x1="-1465.6" y1="1334.4" x2="-1460.3" y2="1334.4"/>
<polyline id="XMLID_207_" class="st1" points="-1469.6,1296.5 -1465.4,1298.4 -1469.6,1300.4 "/>
<line id="line_7_" class="st1" x1="-1465.6" y1="1298.4" x2="-1460.3" y2="1298.4"/>
<polyline id="XMLID_206_" class="st1" points="-1441.5,1310.9 -1445.6,1312.8 -1441.5,1314.8 "/>
<line id="line_8_" class="st1" x1="-1445.4" y1="1312.8" x2="-1450.8" y2="1312.8"/>
<polyline id="XMLID_205_" class="st1" points="-1469.6,1346.9 -1465.4,1348.8 -1469.6,1350.8 "/>
<line id="line_9_" class="st1" x1="-1465.6" y1="1348.8" x2="-1460.3" y2="1348.8"/>
<polyline id="connector0pin_10_" class="st1" points="-1448.2,1298.4 -1455.2,1298.4 -1455.9,1298.4 -1462.9,1298.4 "/>
<polyline id="XMLID_204_" class="st1" points="-1441.5,1296.5 -1445.6,1298.4 -1441.5,1300.4 "/>
<line id="line_10_" class="st1" x1="-1445.4" y1="1298.4" x2="-1450.8" y2="1298.4"/>
<polyline id="XMLID_203_" class="st1" points="-1441.5,1303.7 -1445.6,1305.6 -1441.5,1307.6 "/>
<line id="line_11_" class="st1" x1="-1445.4" y1="1305.6" x2="-1450.8" y2="1305.6"/>
<polyline id="XMLID_202_" class="st1" points="-1441.5,1354.1 -1445.6,1356 -1441.5,1358 "/>
<line id="line_12_" class="st1" x1="-1445.4" y1="1356" x2="-1450.8" y2="1356"/>
<polyline id="connector0pin_13_" class="st1" points="-1462.9,1305.6 -1455.9,1305.6 -1455.2,1305.6 -1448.2,1305.6 "/>
<polyline id="XMLID_201_" class="st1" points="-1469.6,1303.7 -1465.4,1305.6 -1469.6,1307.6 "/>
<line id="line_13_" class="st1" x1="-1465.6" y1="1305.6" x2="-1460.3" y2="1305.6"/>
<polyline id="XMLID_200_" class="st1" points="-1469.6,1310.9 -1465.4,1312.8 -1469.6,1314.8 "/>
<polyline id="line_14_" class="st1" points="-1465.6,1312.8 -1460.3,1312.8 -1462.9,1312.8 -1455.9,1312.8 -1455.2,1312.8 
	-1448.2,1312.8 "/>
<polyline id="connector0pin_15_" class="st1" points="-1462.9,1356 -1455.9,1356 -1455.2,1356 -1448.2,1356 "/>
<polyline id="XMLID_199_" class="st1" points="-1469.6,1354.1 -1465.4,1356 -1469.6,1358 "/>
<line id="line_15_" class="st1" x1="-1465.6" y1="1356" x2="-1460.3" y2="1356"/>
<polyline id="connector0pin_16_" class="st1" points="-1448.2,1348.8 -1455.2,1348.8 -1455.9,1348.8 -1462.9,1348.8 "/>
<polyline id="XMLID_198_" class="st1" points="-1441.5,1346.9 -1445.6,1348.8 -1441.5,1350.8 "/>
<line id="line_16_" class="st1" x1="-1445.4" y1="1348.8" x2="-1450.8" y2="1348.8"/>
<line id="connector0pin_17_" class="st1" x1="-1455.9" y1="1248" x2="-1462.9" y2="1248"/>
<polyline id="XMLID_197_" class="st1" points="-1469.6,1246.1 -1465.4,1248 -1469.6,1250 "/>
<line id="line_17_" class="st1" x1="-1465.6" y1="1248" x2="-1460.3" y2="1248"/>
<line id="XMLID_196_" class="st2" x1="-1424.9" y1="1276.8" x2="-1423.1" y2="1276.8"/>
<line id="XMLID_195_" class="st2" x1="-1437.5" y1="1276.8" x2="-1424.9" y2="1273.2"/>
<circle id="XMLID_194_" class="st3" cx="-1437.5" cy="1276.8" r="0.4"/>
<circle id="XMLID_193_" class="st3" cx="-1423.1" cy="1276.8" r="0.4"/>
<line id="connector0pin_18_" class="st2" x1="-1444.7" y1="1276.8" x2="-1437.5" y2="1276.8"/>
<line id="connector2pin" class="st2" x1="-1415.9" y1="1276.8" x2="-1423.1" y2="1276.8"/>
<line id="XMLID_192_" class="st2" x1="-1455.5" y1="1255.2" x2="-1452.7" y2="1256.3"/>
<line id="XMLID_191_" class="st2" x1="-1452.7" y1="1256.3" x2="-1458.4" y2="1258.1"/>
<line id="XMLID_190_" class="st2" x1="-1458.4" y1="1258.1" x2="-1452.7" y2="1259.9"/>
<line id="XMLID_189_" class="st2" x1="-1452.7" y1="1259.9" x2="-1458.4" y2="1261.7"/>
<line id="XMLID_188_" class="st2" x1="-1458.4" y1="1261.7" x2="-1452.7" y2="1263.5"/>
<line id="XMLID_187_" class="st2" x1="-1452.7" y1="1263.5" x2="-1458.4" y2="1265.3"/>
<line id="XMLID_186_" class="st2" x1="-1458.4" y1="1265.3" x2="-1452.7" y2="1267.1"/>
<line id="XMLID_185_" class="st2" x1="-1452.7" y1="1267.1" x2="-1458.4" y2="1268.9"/>
<line id="XMLID_184_" class="st2" x1="-1458.4" y1="1268.9" x2="-1455.5" y2="1269.6"/>
<line id="connector1pin" class="st2" x1="-1455.5" y1="1276.8" x2="-1455.5" y2="1269.6"/>
<line id="connector0pin_19_" class="st2" x1="-1455.5" y1="1248" x2="-1455.5" y2="1255.2"/>
<line id="XMLID_183_" class="st2" x1="-1415.9" y1="1222.8" x2="-1413.1" y2="1221.7"/>
<line id="XMLID_182_" class="st2" x1="-1413.1" y1="1221.7" x2="-1418.8" y2="1219.9"/>
<line id="XMLID_181_" class="st2" x1="-1418.8" y1="1219.9" x2="-1413.1" y2="1218.1"/>
<line id="XMLID_180_" class="st2" x1="-1413.1" y1="1218.1" x2="-1418.8" y2="1216.3"/>
<line id="XMLID_179_" class="st2" x1="-1418.8" y1="1216.3" x2="-1413.1" y2="1214.5"/>
<line id="XMLID_178_" class="st2" x1="-1413.1" y1="1214.5" x2="-1418.8" y2="1212.7"/>
<line id="XMLID_177_" class="st2" x1="-1418.8" y1="1212.7" x2="-1413.1" y2="1210.9"/>
<line id="XMLID_176_" class="st2" x1="-1413.1" y1="1210.9" x2="-1418.8" y2="1209.1"/>
<line id="XMLID_175_" class="st2" x1="-1418.8" y1="1209.1" x2="-1415.9" y2="1208.4"/>
<line id="connector1pin_1_" class="st2" x1="-1415.9" y1="1204.8" x2="-1415.9" y2="1208.4"/>
<line id="connector0pin_20_" class="st2" x1="-1415.9" y1="1230" x2="-1415.9" y2="1222.8"/>
<path id="connector0pin_21_" class="st2" d="M-1401.5,1283.9v-7.2"/>
<path id="path4098" class="st2" d="M-1408.2,1284.1h13.4"/>
<path id="path4100" class="st2" d="M-1406,1286.8h8.9"/>
<path id="path4102" class="st2" d="M-1399.3,1289.5h-4.5"/>
<line id="XMLID_174_" class="st2" x1="-1408.7" y1="1204.8" x2="-1407.7" y2="1201.9"/>
<line id="XMLID_173_" class="st2" x1="-1407.7" y1="1201.9" x2="-1405.9" y2="1207.7"/>
<line id="XMLID_172_" class="st2" x1="-1405.9" y1="1207.7" x2="-1404.1" y2="1201.9"/>
<line id="XMLID_171_" class="st2" x1="-1404.1" y1="1201.9" x2="-1402.3" y2="1207.7"/>
<line id="XMLID_170_" class="st2" x1="-1402.3" y1="1207.7" x2="-1400.5" y2="1201.9"/>
<line id="XMLID_169_" class="st2" x1="-1400.5" y1="1201.9" x2="-1398.7" y2="1207.7"/>
<line id="XMLID_168_" class="st2" x1="-1398.7" y1="1207.7" x2="-1396.9" y2="1201.9"/>
<line id="XMLID_167_" class="st2" x1="-1396.9" y1="1201.9" x2="-1395.1" y2="1207.7"/>
<line id="XMLID_166_" class="st2" x1="-1395.1" y1="1207.7" x2="-1394.3" y2="1204.8"/>
<line id="connector1pin_2_" class="st2" x1="-1387.1" y1="1204.8" x2="-1394.3" y2="1204.8"/>
<line id="connector0pin_22_" class="st2" x1="-1415.9" y1="1204.8" x2="-1408.7" y2="1204.8"/>
<line id="connector0pin_23_" class="st1" x1="-1386.8" y1="1248" x2="-1379.8" y2="1248"/>
<polyline id="XMLID_165_" class="st1" points="-1373.1,1246.1 -1377.2,1248 -1373.1,1250 "/>
<line id="line_18_" class="st1" x1="-1377" y1="1248" x2="-1382.4" y2="1248"/>
<line id="connector0pin_24_" class="st1" x1="-1386.8" y1="1204.8" x2="-1379.8" y2="1204.8"/>
<polyline id="XMLID_164_" class="st1" points="-1373.1,1202.9 -1377.2,1204.8 -1373.1,1206.8 "/>
<line id="line_19_" class="st1" x1="-1377" y1="1204.8" x2="-1382.4" y2="1204.8"/>
<line id="connector0pin_25_" class="st1" x1="-1383.2" y1="1226.4" x2="-1376.2" y2="1226.4"/>
<polyline id="XMLID_163_" class="st1" points="-1369.5,1224.5 -1373.6,1226.4 -1369.5,1228.4 "/>
<line id="line_20_" class="st1" x1="-1373.4" y1="1226.4" x2="-1378.8" y2="1226.4"/>
<line id="XMLID_162_" class="st2" x1="-1444.7" y1="1233.6" x2="-1444.7" y2="1235.1"/>
<line id="XMLID_161_" class="st2" x1="-1444.7" y1="1240.8" x2="-1444.7" y2="1239.4"/>
<rect id="XMLID_160_" x="-1450.5" y="1237.9" class="st4" width="11.5" height="1.4"/>
<rect id="XMLID_159_" x="-1450.5" y="1235.1" class="st4" width="11.5" height="1.4"/>
<line id="connector1pin_3_" class="st2" x1="-1444.7" y1="1226.4" x2="-1444.7" y2="1233.6"/>
<line id="connector0pin_26_" class="st2" x1="-1444.7" y1="1248" x2="-1444.7" y2="1240.8"/>
<line id="XMLID_158_" class="st2" x1="-1444.7" y1="1219.2" x2="-1444.7" y2="1217.8"/>
<line id="XMLID_157_" class="st2" x1="-1444.7" y1="1212" x2="-1444.7" y2="1213.5"/>
<rect id="XMLID_156_" x="-1450.5" y="1213.5" class="st4" width="11.5" height="1.4"/>
<rect id="XMLID_155_" x="-1450.5" y="1216.3" class="st4" width="11.5" height="1.4"/>
<line id="connector0pin_27_" class="st2" x1="-1444.7" y1="1226.4" x2="-1444.7" y2="1219.2"/>
<line id="connector1pin_4_" class="st2" x1="-1444.7" y1="1204.8" x2="-1444.7" y2="1212"/>
<line id="XMLID_154_" class="st2" x1="-1455.5" y1="1276.8" x2="-1455.5" y2="1276.8"/>
<circle id="XMLID_153_" class="st4" cx="-1455.5" cy="1276.8" r="1.4"/>
<line id="XMLID_152_" class="st2" x1="-1401.5" y1="1276.8" x2="-1415.9" y2="1276.8"/>
<line id="XMLID_151_" class="st2" x1="-1455.5" y1="1276.8" x2="-1444.7" y2="1276.8"/>
<circle id="XMLID_150_" class="st4" cx="-1455.5" cy="1276.8" r="1.4"/>
<line id="XMLID_149_" class="st2" x1="-1455.5" y1="1248" x2="-1455.5" y2="1248"/>
<circle id="XMLID_148_" class="st4" cx="-1455.5" cy="1248" r="1.4"/>
<line id="XMLID_147_" class="st2" x1="-1444.7" y1="1248" x2="-1416" y2="1248"/>
<circle id="XMLID_146_" class="st4" cx="-1444.7" cy="1248" r="1.4"/>
<line id="XMLID_145_" class="st2" x1="-1455.5" y1="1248" x2="-1444.7" y2="1248"/>
<circle id="XMLID_144_" class="st4" cx="-1455.5" cy="1248" r="1.4"/>
<line id="XMLID_143_" class="st2" x1="-1416" y1="1248" x2="-1387.1" y2="1248"/>
<circle id="XMLID_142_" class="st4" cx="-1416" cy="1248" r="1.4"/>
<line id="XMLID_141_" class="st2" x1="-1387.1" y1="1204.8" x2="-1387.1" y2="1204.8"/>
<line id="XMLID_140_" class="st2" x1="-1444.7" y1="1248" x2="-1444.7" y2="1248"/>
<line id="XMLID_139_" class="st2" x1="-1416" y1="1248" x2="-1415.9" y2="1230"/>
<line id="XMLID_138_" class="st2" x1="-1444.7" y1="1226.4" x2="-1455.5" y2="1226.4"/>
<circle id="XMLID_137_" class="st4" cx="-1444.7" cy="1226.4" r="1.4"/>
<line id="XMLID_136_" class="st2" x1="-1444.7" y1="1226.4" x2="-1444.7" y2="1226.4"/>
<circle id="XMLID_135_" class="st4" cx="-1444.7" cy="1226.4" r="1.4"/>
<line id="XMLID_134_" class="st2" x1="-1444.7" y1="1204.8" x2="-1455.5" y2="1204.8"/>
<circle id="XMLID_133_" class="st4" cx="-1444.7" cy="1204.8" r="1.4"/>
<line id="XMLID_132_" class="st2" x1="-1415.9" y1="1204.8" x2="-1444.7" y2="1204.8"/>
<circle id="XMLID_131_" class="st4" cx="-1415.9" cy="1204.8" r="1.4"/>
<circle id="XMLID_130_" class="st4" cx="-1444.7" cy="1204.8" r="1.4"/>
<line id="XMLID_129_" class="st2" x1="-1444.7" y1="1226.4" x2="-1383.5" y2="1226.4"/>
<circle id="XMLID_128_" class="st4" cx="-1444.7" cy="1226.4" r="1.4"/>
<circle id="XMLID_127_" class="st4" cx="-1415.9" cy="1204.8" r="1.4"/>
<g class="st5">
	<path class="st4" d="M-1436.9,1281.6v1.5h-0.5v-3.6h0.9c0.4,0,0.8,0.1,1,0.3c0.2,0.2,0.3,0.4,0.3,0.8c0,0.1,0,0.3-0.1,0.4
		c0,0.1-0.1,0.2-0.2,0.3c-0.1,0.1-0.1,0.1-0.2,0.2s-0.2,0.1-0.3,0.1l1,1.6h-0.5l-0.9-1.5H-1436.9z M-1436.9,1281.2h0.4
		c0.1,0,0.3,0,0.4,0s0.2-0.1,0.3-0.1c0.1-0.1,0.1-0.1,0.1-0.2c0-0.1,0-0.2,0-0.3c0-0.1,0-0.2-0.1-0.3c0-0.1-0.1-0.1-0.2-0.2
		c-0.1-0.1-0.2-0.1-0.3-0.1c-0.1,0-0.2,0-0.4,0h-0.4V1281.2z"/>
	<path class="st4" d="M-1433.4,1283.1c-0.2,0-0.3,0-0.5-0.1c-0.1-0.1-0.3-0.1-0.4-0.3c-0.1-0.1-0.2-0.3-0.2-0.4
		c-0.1-0.2-0.1-0.4-0.1-0.6c0-0.2,0-0.4,0.1-0.6s0.1-0.3,0.2-0.4s0.2-0.2,0.4-0.3c0.1-0.1,0.3-0.1,0.5-0.1c0.2,0,0.3,0,0.4,0.1
		s0.2,0.1,0.3,0.2c0.1,0.1,0.2,0.2,0.2,0.4c0,0.1,0.1,0.3,0.1,0.5v0.3h-1.7c0,0.3,0.1,0.5,0.2,0.7c0.1,0.1,0.3,0.2,0.6,0.2
		c0.1,0,0.2,0,0.2,0c0.1,0,0.1,0,0.2,0c0.1,0,0.1,0,0.2-0.1s0.1-0.1,0.2-0.1v0.4c-0.1,0-0.1,0.1-0.2,0.1c-0.1,0-0.1,0-0.2,0.1
		c-0.1,0-0.1,0-0.2,0C-1433.2,1283.1-1433.3,1283.1-1433.4,1283.1z M-1433.5,1280.7c-0.2,0-0.3,0.1-0.4,0.2
		c-0.1,0.1-0.2,0.3-0.2,0.6h1.2c0-0.1,0-0.2,0-0.3c0-0.1-0.1-0.2-0.1-0.2c0-0.1-0.1-0.1-0.2-0.2
		C-1433.3,1280.7-1433.4,1280.7-1433.5,1280.7z"/>
	<path class="st4" d="M-1430.1,1282.3c0,0.1,0,0.2-0.1,0.3s-0.1,0.2-0.2,0.2c-0.1,0.1-0.2,0.1-0.3,0.1s-0.3,0-0.4,0
		c-0.2,0-0.3,0-0.5,0s-0.2-0.1-0.3-0.1v-0.4c0.1,0,0.1,0.1,0.2,0.1s0.1,0,0.2,0.1s0.1,0,0.2,0c0.1,0,0.1,0,0.2,0c0.1,0,0.2,0,0.3,0
		c0.1,0,0.1,0,0.2-0.1c0,0,0.1-0.1,0.1-0.1s0-0.1,0-0.2c0,0,0-0.1,0-0.1c0,0,0-0.1-0.1-0.1c0,0-0.1-0.1-0.2-0.1s-0.2-0.1-0.3-0.1
		s-0.2-0.1-0.3-0.1c-0.1,0-0.2-0.1-0.2-0.2s-0.1-0.1-0.1-0.2c0-0.1-0.1-0.2-0.1-0.3c0-0.1,0-0.2,0.1-0.3c0-0.1,0.1-0.2,0.2-0.2
		c0.1-0.1,0.2-0.1,0.3-0.1c0.1,0,0.2,0,0.4,0c0.2,0,0.3,0,0.4,0.1c0.1,0,0.3,0.1,0.4,0.1l-0.2,0.4c-0.1,0-0.2-0.1-0.3-0.1
		c-0.1,0-0.2-0.1-0.3-0.1c-0.2,0-0.3,0-0.4,0.1s-0.1,0.1-0.1,0.2c0,0.1,0,0.1,0,0.1c0,0,0.1,0.1,0.1,0.1s0.1,0.1,0.2,0.1
		s0.2,0.1,0.3,0.1c0.1,0,0.2,0.1,0.3,0.1c0.1,0,0.2,0.1,0.2,0.2c0.1,0.1,0.1,0.1,0.1,0.2S-1430.1,1282.2-1430.1,1282.3z"/>
	<path class="st4" d="M-1428.4,1283.1c-0.2,0-0.3,0-0.5-0.1c-0.1-0.1-0.3-0.1-0.4-0.3c-0.1-0.1-0.2-0.3-0.2-0.4
		c-0.1-0.2-0.1-0.4-0.1-0.6c0-0.2,0-0.4,0.1-0.6s0.1-0.3,0.2-0.4s0.2-0.2,0.4-0.3c0.1-0.1,0.3-0.1,0.5-0.1c0.2,0,0.3,0,0.4,0.1
		s0.2,0.1,0.3,0.2c0.1,0.1,0.2,0.2,0.2,0.4c0,0.1,0.1,0.3,0.1,0.5v0.3h-1.7c0,0.3,0.1,0.5,0.2,0.7c0.1,0.1,0.3,0.2,0.6,0.2
		c0.1,0,0.2,0,0.2,0c0.1,0,0.1,0,0.2,0c0.1,0,0.1,0,0.2-0.1s0.1-0.1,0.2-0.1v0.4c-0.1,0-0.1,0.1-0.2,0.1c-0.1,0-0.1,0-0.2,0.1
		c-0.1,0-0.1,0-0.2,0C-1428.3,1283.1-1428.3,1283.1-1428.4,1283.1z M-1428.5,1280.7c-0.2,0-0.3,0.1-0.4,0.2
		c-0.1,0.1-0.2,0.3-0.2,0.6h1.2c0-0.1,0-0.2,0-0.3c0-0.1-0.1-0.2-0.1-0.2c0-0.1-0.1-0.1-0.2-0.2
		C-1428.4,1280.7-1428.4,1280.7-1428.5,1280.7z"/>
	<path class="st4" d="M-1426,1282.7C-1426,1282.7-1425.9,1282.7-1426,1282.7c0.1,0,0.2,0,0.2,0s0.1,0,0.1,0c0,0,0.1,0,0.1,0v0.3
		c0,0,0,0-0.1,0s-0.1,0-0.1,0c0,0-0.1,0-0.1,0s-0.1,0-0.1,0c-0.1,0-0.2,0-0.3,0s-0.2-0.1-0.2-0.1c-0.1-0.1-0.1-0.1-0.1-0.3
		s-0.1-0.2-0.1-0.4v-1.6h-0.4v-0.2l0.4-0.2l0.2-0.6h0.3v0.6h0.7v0.3h-0.7v1.6c0,0.2,0,0.3,0.1,0.4
		C-1426.2,1282.7-1426.1,1282.7-1426,1282.7z"/>
</g>
<g class="st5">
	<path class="st4" d="M-1448.9,1263.5h-0.4v-2.2c0-0.1,0-0.1,0-0.2c0-0.1,0-0.2,0-0.2c0-0.1,0-0.2,0-0.2c0-0.1,0-0.1,0-0.2
		c0,0-0.1,0.1-0.1,0.1c0,0,0,0-0.1,0.1c0,0,0,0-0.1,0.1c0,0-0.1,0-0.1,0.1l-0.4,0.3l-0.2-0.3l0.9-0.7h0.4V1263.5z"/>
	<path class="st4" d="M-1447.1,1262.1l0.3-0.4l0.7-0.9h0.5l-1,1.2l1,1.5h-0.5l-0.8-1.2l-0.3,0.2v1h-0.4v-3.8h0.4v1.7L-1447.1,1262.1
		L-1447.1,1262.1z"/>
	<path class="st4" d="M-1443.6,1260.3c-0.2,0-0.3,0-0.5,0.1c-0.1,0.1-0.2,0.1-0.3,0.2c-0.1,0.1-0.1,0.2-0.2,0.4
		c0,0.2-0.1,0.3-0.1,0.5c0,0.2,0,0.3,0,0.5c0,0.2,0.1,0.3,0.1,0.4c0.1,0.1,0.2,0.3,0.3,0.4c0.1,0.1,0.2,0.2,0.4,0.3v0.4h-1.4v-0.4
		h0.9c-0.1-0.1-0.2-0.2-0.3-0.3c-0.1-0.1-0.2-0.2-0.2-0.4s-0.1-0.3-0.2-0.4s-0.1-0.3-0.1-0.5c0-0.2,0-0.5,0.1-0.7
		c0.1-0.2,0.2-0.4,0.3-0.5c0.1-0.1,0.3-0.2,0.5-0.3s0.4-0.1,0.7-0.1c0.3,0,0.5,0,0.7,0.1c0.2,0.1,0.4,0.2,0.5,0.3
		c0.1,0.1,0.2,0.3,0.3,0.5c0.1,0.2,0.1,0.4,0.1,0.7c0,0.2,0,0.4-0.1,0.5s-0.1,0.3-0.2,0.4s-0.1,0.3-0.2,0.4
		c-0.1,0.1-0.2,0.2-0.3,0.3h0.9v0.4h-1.4v-0.4c0.2-0.1,0.3-0.2,0.4-0.3c0.1-0.1,0.2-0.3,0.3-0.4c0.1-0.1,0.1-0.3,0.1-0.4
		c0-0.2,0-0.3,0-0.5c0-0.2,0-0.4-0.1-0.5c0-0.2-0.1-0.3-0.2-0.4c-0.1-0.1-0.2-0.2-0.3-0.2
		C-1443.2,1260.3-1443.4,1260.3-1443.6,1260.3z"/>
</g>
<g class="st5">
	<path class="st4" d="M-1430.5,1217.8h-2.2v-0.4l0.9-0.9c0.1-0.1,0.2-0.3,0.3-0.4c0.1-0.1,0.2-0.2,0.2-0.3c0.1-0.1,0.1-0.2,0.2-0.3
		c0-0.1,0.1-0.2,0.1-0.3c0-0.1,0-0.2,0-0.3c0-0.1-0.1-0.1-0.1-0.2c-0.1-0.1-0.1-0.1-0.2-0.1c-0.1,0-0.1,0-0.2,0
		c-0.2,0-0.3,0-0.4,0.1c-0.1,0.1-0.2,0.1-0.4,0.2l-0.2-0.3c0.1-0.1,0.1-0.1,0.2-0.2c0.1-0.1,0.2-0.1,0.2-0.1c0.1,0,0.2-0.1,0.3-0.1
		c0.1,0,0.2,0,0.3,0c0.2,0,0.3,0,0.4,0.1c0.1,0,0.2,0.1,0.3,0.2s0.2,0.2,0.2,0.3c0,0.1,0.1,0.3,0.1,0.4c0,0.1,0,0.3-0.1,0.4
		c0,0.1-0.1,0.2-0.2,0.4c-0.1,0.1-0.2,0.2-0.3,0.4c-0.1,0.1-0.2,0.2-0.3,0.4l-0.7,0.7v0h1.7V1217.8z"/>
	<path class="st4" d="M-1429.9,1217.5c0-0.1,0-0.1,0-0.2s0-0.1,0.1-0.1c0,0,0.1,0,0.1-0.1c0,0,0.1,0,0.1,0c0,0,0.1,0,0.1,0
		c0,0,0.1,0,0.1,0.1c0,0,0,0.1,0.1,0.1s0,0.1,0,0.2c0,0.1,0,0.1,0,0.2s0,0.1-0.1,0.1s-0.1,0-0.1,0.1c0,0-0.1,0-0.1,0
		c0,0-0.1,0-0.1,0c0,0-0.1,0-0.1-0.1s0-0.1-0.1-0.1S-1429.9,1217.6-1429.9,1217.5z"/>
	<path class="st4" d="M-1426.4,1217.8h-2.2v-0.4l0.9-0.9c0.1-0.1,0.2-0.3,0.3-0.4c0.1-0.1,0.2-0.2,0.2-0.3c0.1-0.1,0.1-0.2,0.2-0.3
		c0-0.1,0.1-0.2,0.1-0.3c0-0.1,0-0.2,0-0.3c0-0.1-0.1-0.1-0.1-0.2c-0.1-0.1-0.1-0.1-0.2-0.1c-0.1,0-0.1,0-0.2,0
		c-0.2,0-0.3,0-0.4,0.1c-0.1,0.1-0.2,0.1-0.4,0.2l-0.2-0.3c0.1-0.1,0.1-0.1,0.2-0.2c0.1-0.1,0.2-0.1,0.2-0.1c0.1,0,0.2-0.1,0.3-0.1
		c0.1,0,0.2,0,0.3,0c0.2,0,0.3,0,0.4,0.1c0.1,0,0.2,0.1,0.3,0.2s0.2,0.2,0.2,0.3c0,0.1,0.1,0.3,0.1,0.4c0,0.1,0,0.3-0.1,0.4
		c0,0.1-0.1,0.2-0.2,0.4c-0.1,0.1-0.2,0.2-0.3,0.4c-0.1,0.1-0.2,0.2-0.3,0.4l-0.7,0.7v0h1.7V1217.8z"/>
	<path class="st4" d="M-1425.3,1216.4l0.3-0.4l0.7-0.9h0.5l-1,1.2l1,1.5h-0.5l-0.8-1.2l-0.3,0.2v1h-0.4v-3.8h0.4v1.7L-1425.3,1216.4
		L-1425.3,1216.4z"/>
	<path class="st4" d="M-1421.8,1214.5c-0.2,0-0.3,0-0.5,0.1c-0.1,0.1-0.2,0.1-0.3,0.2c-0.1,0.1-0.1,0.2-0.2,0.4
		c0,0.2-0.1,0.3-0.1,0.5c0,0.2,0,0.3,0,0.5c0,0.2,0.1,0.3,0.1,0.4c0.1,0.1,0.2,0.3,0.3,0.4c0.1,0.1,0.2,0.2,0.4,0.3v0.4h-1.4v-0.4
		h0.9c-0.1-0.1-0.2-0.2-0.3-0.3c-0.1-0.1-0.2-0.2-0.2-0.4s-0.1-0.3-0.2-0.4s-0.1-0.3-0.1-0.5c0-0.2,0-0.5,0.1-0.7
		c0.1-0.2,0.2-0.4,0.3-0.5c0.1-0.1,0.3-0.2,0.5-0.3s0.4-0.1,0.7-0.1c0.3,0,0.5,0,0.7,0.1c0.2,0.1,0.4,0.2,0.5,0.3
		c0.1,0.1,0.2,0.3,0.3,0.5c0.1,0.2,0.1,0.4,0.1,0.7c0,0.2,0,0.4-0.1,0.5s-0.1,0.3-0.2,0.4s-0.1,0.3-0.2,0.4
		c-0.1,0.1-0.2,0.2-0.3,0.3h0.9v0.4h-1.4v-0.4c0.2-0.1,0.3-0.2,0.4-0.3c0.1-0.1,0.2-0.3,0.3-0.4c0.1-0.1,0.1-0.3,0.1-0.4
		c0-0.2,0-0.3,0-0.5c0-0.2,0-0.4-0.1-0.5c0-0.2-0.1-0.3-0.2-0.4c-0.1-0.1-0.2-0.2-0.3-0.2
		C-1421.5,1214.6-1421.6,1214.5-1421.8,1214.5z"/>
</g>
<g class="st5">
	<path class="st4" d="M-1402.6,1196.9c0,0.1,0,0.2-0.1,0.3c0,0.1-0.1,0.2-0.2,0.3c-0.1,0.1-0.1,0.1-0.2,0.2c-0.1,0-0.2,0.1-0.3,0.1
		v0c0.3,0,0.5,0.1,0.7,0.3c0.2,0.1,0.2,0.3,0.2,0.6c0,0.2,0,0.3-0.1,0.4s-0.1,0.2-0.2,0.3s-0.2,0.2-0.4,0.2
		c-0.2,0.1-0.4,0.1-0.6,0.1c-0.2,0-0.3,0-0.5,0c-0.2,0-0.3-0.1-0.4-0.2v-0.4c0.1,0.1,0.3,0.1,0.5,0.2c0.2,0,0.3,0.1,0.5,0.1
		c0.1,0,0.3,0,0.4,0c0.1,0,0.2-0.1,0.3-0.1c0.1-0.1,0.1-0.1,0.2-0.2c0-0.1,0.1-0.2,0.1-0.3c0-0.1,0-0.2-0.1-0.3
		c0-0.1-0.1-0.1-0.2-0.2c-0.1-0.1-0.2-0.1-0.3-0.1c-0.1,0-0.2,0-0.4,0h-0.3v-0.4h0.3c0.1,0,0.2,0,0.4,0c0.1,0,0.2-0.1,0.3-0.1
		s0.1-0.1,0.2-0.2c0-0.1,0.1-0.2,0.1-0.3c0-0.1,0-0.2,0-0.2c0-0.1-0.1-0.1-0.1-0.2c-0.1,0-0.1-0.1-0.2-0.1c-0.1,0-0.2,0-0.2,0
		c-0.2,0-0.3,0-0.5,0.1s-0.3,0.1-0.4,0.2l-0.2-0.3c0.1-0.1,0.1-0.1,0.2-0.1c0.1,0,0.2-0.1,0.2-0.1c0.1,0,0.2-0.1,0.3-0.1
		s0.2,0,0.3,0c0.2,0,0.3,0,0.5,0.1s0.2,0.1,0.3,0.2c0.1,0.1,0.2,0.2,0.2,0.3C-1402.6,1196.7-1402.6,1196.8-1402.6,1196.9z"/>
	<path class="st4" d="M-1399.9,1196.9c0,0.1,0,0.2-0.1,0.3c0,0.1-0.1,0.2-0.2,0.3c-0.1,0.1-0.1,0.1-0.2,0.2c-0.1,0-0.2,0.1-0.3,0.1
		v0c0.3,0,0.5,0.1,0.7,0.3c0.2,0.1,0.2,0.3,0.2,0.6c0,0.2,0,0.3-0.1,0.4s-0.1,0.2-0.2,0.3s-0.2,0.2-0.4,0.2
		c-0.2,0.1-0.4,0.1-0.6,0.1c-0.2,0-0.3,0-0.5,0c-0.2,0-0.3-0.1-0.4-0.2v-0.4c0.1,0.1,0.3,0.1,0.5,0.2c0.2,0,0.3,0.1,0.5,0.1
		c0.1,0,0.3,0,0.4,0c0.1,0,0.2-0.1,0.3-0.1c0.1-0.1,0.1-0.1,0.2-0.2c0-0.1,0.1-0.2,0.1-0.3c0-0.1,0-0.2-0.1-0.3
		c0-0.1-0.1-0.1-0.2-0.2c-0.1-0.1-0.2-0.1-0.3-0.1c-0.1,0-0.2,0-0.4,0h-0.3v-0.4h0.3c0.1,0,0.2,0,0.4,0c0.1,0,0.2-0.1,0.3-0.1
		s0.1-0.1,0.2-0.2c0-0.1,0.1-0.2,0.1-0.3c0-0.1,0-0.2,0-0.2c0-0.1-0.1-0.1-0.1-0.2c-0.1,0-0.1-0.1-0.2-0.1c-0.1,0-0.2,0-0.2,0
		c-0.2,0-0.3,0-0.5,0.1s-0.3,0.1-0.4,0.2l-0.2-0.3c0.1-0.1,0.1-0.1,0.2-0.1c0.1,0,0.2-0.1,0.2-0.1c0.1,0,0.2-0.1,0.3-0.1
		s0.2,0,0.3,0c0.2,0,0.3,0,0.5,0.1s0.2,0.1,0.3,0.2c0.1,0.1,0.2,0.2,0.2,0.3C-1399.9,1196.7-1399.9,1196.8-1399.9,1196.9z"/>
	<path class="st4" d="M-1397.6,1196.4c-0.2,0-0.3,0-0.5,0.1c-0.1,0.1-0.2,0.1-0.3,0.2c-0.1,0.1-0.2,0.2-0.2,0.4
		c0,0.2-0.1,0.3-0.1,0.5c0,0.2,0,0.3,0,0.5s0.1,0.3,0.1,0.4c0.1,0.1,0.2,0.3,0.3,0.4s0.2,0.2,0.4,0.3v0.4h-1.4v-0.4h0.9
		c-0.1-0.1-0.2-0.2-0.3-0.3c-0.1-0.1-0.2-0.2-0.2-0.4c-0.1-0.1-0.1-0.3-0.2-0.4c0-0.2-0.1-0.3-0.1-0.5c0-0.2,0-0.5,0.1-0.7
		c0.1-0.2,0.2-0.4,0.3-0.5c0.1-0.1,0.3-0.2,0.5-0.3c0.2-0.1,0.4-0.1,0.7-0.1c0.3,0,0.5,0,0.7,0.1c0.2,0.1,0.4,0.2,0.5,0.3
		c0.1,0.1,0.2,0.3,0.3,0.5c0.1,0.2,0.1,0.4,0.1,0.7c0,0.2,0,0.4-0.1,0.5c0,0.2-0.1,0.3-0.2,0.4c-0.1,0.1-0.1,0.3-0.2,0.4
		c-0.1,0.1-0.2,0.2-0.3,0.3h0.9v0.4h-1.4v-0.4c0.2-0.1,0.3-0.2,0.4-0.3c0.1-0.1,0.2-0.3,0.3-0.4c0.1-0.1,0.1-0.3,0.1-0.4
		c0-0.2,0-0.3,0-0.5c0-0.2,0-0.4-0.1-0.5c0-0.2-0.1-0.3-0.2-0.4c-0.1-0.1-0.2-0.2-0.3-0.2
		C-1397.2,1196.5-1397.4,1196.4-1397.6,1196.4z"/>
</g>
<g class="st5">
	<path class="st4" d="M-1369.5,1206.1h-1.3v-0.2l0.4-0.1v-2.9l-0.4-0.1v-0.2h1.3v0.2l-0.4,0.1v2.9l0.4,0.1V1206.1z"/>
	<path class="st4" d="M-1367.2,1206.1v-1.7c0-0.2,0-0.4-0.1-0.5c-0.1-0.1-0.2-0.2-0.4-0.2c-0.1,0-0.2,0-0.3,0.1
		c-0.1,0-0.2,0.1-0.2,0.2c-0.1,0.1-0.1,0.2-0.1,0.3c0,0.1,0,0.3,0,0.4v1.4h-0.4v-2.7h0.4l0.1,0.4h0c0-0.1,0.1-0.1,0.1-0.2
		c0.1-0.1,0.1-0.1,0.2-0.1c0.1,0,0.1-0.1,0.2-0.1c0.1,0,0.2,0,0.2,0c0.3,0,0.5,0.1,0.7,0.2s0.2,0.4,0.2,0.7v1.8H-1367.2z"/>
	<path class="st4" d="M-1365.1,1205.7C-1365.1,1205.7-1365,1205.7-1365.1,1205.7c0.1,0,0.2,0,0.2,0s0.1,0,0.1,0c0,0,0.1,0,0.1,0v0.3
		c0,0,0,0-0.1,0c0,0-0.1,0-0.1,0c0,0-0.1,0-0.1,0c0,0-0.1,0-0.1,0c-0.1,0-0.2,0-0.3,0c-0.1,0-0.2-0.1-0.2-0.1
		c-0.1-0.1-0.1-0.1-0.1-0.3c0-0.1-0.1-0.2-0.1-0.4v-1.6h-0.4v-0.2l0.4-0.2l0.2-0.6h0.3v0.6h0.7v0.3h-0.7v1.6c0,0.2,0,0.3,0.1,0.4
		C-1365.3,1205.7-1365.2,1205.7-1365.1,1205.7z"/>
	<path class="st4" d="M-1363.2,1206.1c-0.2,0-0.3,0-0.5-0.1c-0.1-0.1-0.3-0.1-0.4-0.3c-0.1-0.1-0.2-0.3-0.2-0.4
		c-0.1-0.2-0.1-0.4-0.1-0.6c0-0.2,0-0.4,0.1-0.6s0.1-0.3,0.2-0.4s0.2-0.2,0.3-0.3c0.1-0.1,0.3-0.1,0.5-0.1c0.2,0,0.3,0,0.4,0.1
		c0.1,0.1,0.2,0.1,0.3,0.2c0.1,0.1,0.2,0.2,0.2,0.4s0.1,0.3,0.1,0.5v0.3h-1.7c0,0.3,0.1,0.5,0.2,0.7c0.1,0.1,0.3,0.2,0.6,0.2
		c0.1,0,0.2,0,0.2,0c0.1,0,0.1,0,0.2,0c0.1,0,0.1,0,0.2-0.1c0.1,0,0.1-0.1,0.2-0.1v0.4c-0.1,0-0.1,0.1-0.2,0.1s-0.1,0-0.2,0.1
		c-0.1,0-0.1,0-0.2,0C-1363,1206.1-1363.1,1206.1-1363.2,1206.1z M-1363.3,1203.7c-0.2,0-0.3,0.1-0.4,0.2c-0.1,0.1-0.2,0.3-0.2,0.6
		h1.2c0-0.1,0-0.2,0-0.3c0-0.1-0.1-0.2-0.1-0.2c0-0.1-0.1-0.1-0.2-0.2C-1363.1,1203.7-1363.2,1203.7-1363.3,1203.7z"/>
	<path class="st4" d="M-1360.4,1203.3c0,0,0.1,0,0.2,0s0.1,0,0.2,0l-0.1,0.4c0,0-0.1,0-0.1,0c0,0-0.1,0-0.1,0c-0.1,0-0.2,0-0.3,0.1
		c-0.1,0-0.2,0.1-0.2,0.2c-0.1,0.1-0.1,0.2-0.1,0.3c0,0.1,0,0.2,0,0.4v1.4h-0.4v-2.7h0.4l0.1,0.5h0c0-0.1,0.1-0.1,0.1-0.2
		c0-0.1,0.1-0.1,0.2-0.2s0.1-0.1,0.2-0.1C-1360.6,1203.3-1360.5,1203.3-1360.4,1203.3z"/>
	<path class="st4" d="M-1358.4,1203.7h-0.6v2.3h-0.4v-2.3h-0.5v-0.2l0.5-0.2v-0.2c0-0.2,0-0.3,0.1-0.4c0-0.1,0.1-0.2,0.2-0.3
		s0.2-0.1,0.3-0.1c0.1,0,0.2,0,0.3,0c0.1,0,0.2,0,0.3,0c0.1,0,0.2,0,0.2,0.1l-0.1,0.3c0,0-0.1,0-0.2,0c-0.1,0-0.1,0-0.2,0
		c-0.1,0-0.1,0-0.2,0c0,0-0.1,0-0.1,0.1c0,0-0.1,0.1-0.1,0.2c0,0.1,0,0.2,0,0.3v0.3h0.6V1203.7z"/>
	<path class="st4" d="M-1356.4,1206.1l-0.1-0.4h0c-0.1,0.1-0.1,0.1-0.2,0.2s-0.1,0.1-0.2,0.1c-0.1,0-0.1,0.1-0.2,0.1s-0.2,0-0.3,0
		c-0.1,0-0.2,0-0.3,0c-0.1,0-0.2-0.1-0.2-0.1c-0.1-0.1-0.1-0.1-0.2-0.2c0-0.1-0.1-0.2-0.1-0.4c0-0.3,0.1-0.5,0.3-0.6
		c0.2-0.1,0.5-0.2,0.9-0.2l0.4,0v-0.2c0-0.1,0-0.2,0-0.3c0-0.1-0.1-0.1-0.1-0.2s-0.1-0.1-0.2-0.1c-0.1,0-0.1,0-0.2,0
		c-0.1,0-0.3,0-0.4,0.1c-0.1,0-0.2,0.1-0.3,0.1l-0.2-0.3c0.1-0.1,0.3-0.1,0.4-0.2c0.1,0,0.3-0.1,0.5-0.1c0.2,0,0.3,0,0.4,0
		s0.2,0.1,0.3,0.2c0.1,0.1,0.1,0.2,0.2,0.3c0,0.1,0.1,0.2,0.1,0.4v1.8H-1356.4z M-1357.2,1205.7c0.1,0,0.2,0,0.3,0
		c0.1,0,0.2-0.1,0.2-0.1c0.1-0.1,0.1-0.1,0.1-0.2c0-0.1,0.1-0.2,0.1-0.3v-0.2l-0.3,0c-0.1,0-0.3,0-0.4,0c-0.1,0-0.2,0.1-0.2,0.1
		c-0.1,0-0.1,0.1-0.1,0.2c0,0.1,0,0.1,0,0.2c0,0.1,0,0.3,0.1,0.3C-1357.4,1205.7-1357.3,1205.7-1357.2,1205.7z"/>
	<path class="st4" d="M-1354.2,1206.1c-0.2,0-0.3,0-0.5-0.1c-0.1-0.1-0.3-0.1-0.4-0.2c-0.1-0.1-0.2-0.3-0.2-0.4
		c-0.1-0.2-0.1-0.4-0.1-0.6c0-0.3,0-0.5,0.1-0.7c0.1-0.2,0.1-0.3,0.3-0.4s0.2-0.2,0.4-0.2c0.1,0,0.3-0.1,0.5-0.1c0.1,0,0.3,0,0.4,0
		c0.1,0,0.2,0.1,0.3,0.1l-0.1,0.4c0,0-0.1,0-0.1,0c0,0-0.1,0-0.1,0c0,0-0.1,0-0.1,0c0,0-0.1,0-0.1,0c-0.3,0-0.4,0.1-0.6,0.2
		c-0.1,0.2-0.2,0.4-0.2,0.8c0,0.3,0.1,0.6,0.2,0.8c0.1,0.2,0.3,0.2,0.5,0.2c0.1,0,0.3,0,0.4,0c0.1,0,0.2-0.1,0.3-0.1v0.4
		c-0.1,0-0.2,0.1-0.3,0.1C-1354,1206.1-1354.1,1206.1-1354.2,1206.1z"/>
	<path class="st4" d="M-1351.9,1206.1c-0.2,0-0.3,0-0.5-0.1c-0.1-0.1-0.3-0.1-0.4-0.3c-0.1-0.1-0.2-0.3-0.2-0.4
		c-0.1-0.2-0.1-0.4-0.1-0.6c0-0.2,0-0.4,0.1-0.6s0.1-0.3,0.2-0.4s0.2-0.2,0.3-0.3c0.1-0.1,0.3-0.1,0.5-0.1c0.2,0,0.3,0,0.4,0.1
		c0.1,0.1,0.2,0.1,0.3,0.2c0.1,0.1,0.2,0.2,0.2,0.4s0.1,0.3,0.1,0.5v0.3h-1.7c0,0.3,0.1,0.5,0.2,0.7c0.1,0.1,0.3,0.2,0.6,0.2
		c0.1,0,0.2,0,0.2,0c0.1,0,0.1,0,0.2,0c0.1,0,0.1,0,0.2-0.1c0.1,0,0.1-0.1,0.2-0.1v0.4c-0.1,0-0.1,0.1-0.2,0.1s-0.1,0-0.2,0.1
		c-0.1,0-0.1,0-0.2,0C-1351.7,1206.1-1351.8,1206.1-1351.9,1206.1z M-1352,1203.7c-0.2,0-0.3,0.1-0.4,0.2c-0.1,0.1-0.2,0.3-0.2,0.6
		h1.2c0-0.1,0-0.2,0-0.3c0-0.1-0.1-0.2-0.1-0.2c0-0.1-0.1-0.1-0.2-0.2C-1351.8,1203.7-1351.9,1203.7-1352,1203.7z"/>
	<path class="st4" d="M-1347.7,1203.3c0.2,0,0.3,0,0.4,0.1c0.1,0.1,0.2,0.1,0.3,0.3c0.1,0.1,0.2,0.3,0.2,0.4c0,0.2,0.1,0.4,0.1,0.6
		c0,0.2,0,0.4-0.1,0.6c0,0.2-0.1,0.3-0.2,0.4c-0.1,0.1-0.2,0.2-0.3,0.3c-0.1,0.1-0.3,0.1-0.4,0.1c-0.1,0-0.2,0-0.3,0
		c-0.1,0-0.1,0-0.2-0.1c-0.1,0-0.1-0.1-0.2-0.1c0,0-0.1-0.1-0.1-0.1h0l-0.1,0.3h-0.3v-3.8h0.4v0.9c0,0.1,0,0.1,0,0.2
		c0,0.1,0,0.1,0,0.2c0,0.1,0,0.1,0,0.2h0c0-0.1,0.1-0.1,0.1-0.2c0,0,0.1-0.1,0.2-0.1c0.1,0,0.1-0.1,0.2-0.1
		S-1347.8,1203.3-1347.7,1203.3z M-1347.8,1203.7c-0.1,0-0.2,0-0.3,0.1c-0.1,0-0.2,0.1-0.2,0.2s-0.1,0.2-0.1,0.3c0,0.1,0,0.3,0,0.4
		c0,0.2,0,0.3,0,0.4c0,0.1,0.1,0.2,0.1,0.3s0.1,0.2,0.2,0.2s0.2,0.1,0.3,0.1c0.2,0,0.4-0.1,0.5-0.3s0.2-0.4,0.2-0.8
		c0-0.3-0.1-0.6-0.2-0.8S-1347.6,1203.7-1347.8,1203.7z"/>
	<path class="st4" d="M-1343.8,1204.7c0,0.2,0,0.4-0.1,0.6c-0.1,0.2-0.1,0.3-0.2,0.4s-0.2,0.2-0.4,0.3c-0.1,0.1-0.3,0.1-0.5,0.1
		c-0.2,0-0.3,0-0.5-0.1s-0.3-0.2-0.4-0.3s-0.2-0.3-0.2-0.4c-0.1-0.2-0.1-0.4-0.1-0.6c0-0.2,0-0.4,0.1-0.6c0.1-0.2,0.1-0.3,0.2-0.4
		c0.1-0.1,0.2-0.2,0.4-0.3c0.1-0.1,0.3-0.1,0.5-0.1c0.2,0,0.3,0,0.5,0.1c0.1,0.1,0.3,0.2,0.4,0.3c0.1,0.1,0.2,0.3,0.2,0.4
		S-1343.8,1204.5-1343.8,1204.7z M-1345.7,1204.7c0,0.3,0.1,0.6,0.2,0.8s0.3,0.3,0.5,0.3c0.3,0,0.4-0.1,0.5-0.3
		c0.1-0.2,0.2-0.4,0.2-0.8c0-0.3-0.1-0.6-0.2-0.8c-0.1-0.2-0.3-0.3-0.5-0.3c-0.3,0-0.4,0.1-0.5,0.3
		C-1345.7,1204.1-1345.7,1204.4-1345.7,1204.7z"/>
	<path class="st4" d="M-1341.6,1206.1l-0.1-0.4h0c-0.1,0.1-0.1,0.1-0.2,0.2s-0.1,0.1-0.2,0.1c-0.1,0-0.1,0.1-0.2,0.1s-0.2,0-0.3,0
		c-0.1,0-0.2,0-0.3,0c-0.1,0-0.2-0.1-0.2-0.1c-0.1-0.1-0.1-0.1-0.2-0.2c0-0.1-0.1-0.2-0.1-0.4c0-0.3,0.1-0.5,0.3-0.6
		c0.2-0.1,0.5-0.2,0.9-0.2l0.4,0v-0.2c0-0.1,0-0.2,0-0.3c0-0.1-0.1-0.1-0.1-0.2c0,0-0.1-0.1-0.2-0.1c-0.1,0-0.1,0-0.2,0
		c-0.1,0-0.3,0-0.4,0.1s-0.2,0.1-0.3,0.1l-0.2-0.3c0.1-0.1,0.3-0.1,0.4-0.2c0.1,0,0.3-0.1,0.5-0.1c0.2,0,0.3,0,0.4,0
		c0.1,0,0.2,0.1,0.3,0.2s0.1,0.2,0.2,0.3c0,0.1,0.1,0.2,0.1,0.4v1.8H-1341.6z M-1342.4,1205.7c0.1,0,0.2,0,0.3,0
		c0.1,0,0.2-0.1,0.2-0.1c0.1-0.1,0.1-0.1,0.1-0.2c0-0.1,0.1-0.2,0.1-0.3v-0.2l-0.3,0c-0.1,0-0.3,0-0.4,0c-0.1,0-0.2,0.1-0.2,0.1
		c-0.1,0-0.1,0.1-0.1,0.2c0,0.1,0,0.1,0,0.2c0,0.1,0,0.3,0.1,0.3S-1342.6,1205.7-1342.4,1205.7z"/>
	<path class="st4" d="M-1339.3,1203.3c0,0,0.1,0,0.2,0s0.1,0,0.2,0l-0.1,0.4c0,0-0.1,0-0.1,0s-0.1,0-0.1,0c-0.1,0-0.2,0-0.3,0.1
		c-0.1,0-0.2,0.1-0.2,0.2c-0.1,0.1-0.1,0.2-0.1,0.3s0,0.2,0,0.4v1.4h-0.4v-2.7h0.4l0.1,0.5h0c0-0.1,0.1-0.1,0.1-0.2
		c0-0.1,0.1-0.1,0.2-0.2c0.1,0,0.1-0.1,0.2-0.1C-1339.5,1203.3-1339.4,1203.3-1339.3,1203.3z"/>
	<path class="st4" d="M-1336.8,1205.7L-1336.8,1205.7c-0.1,0.1-0.1,0.1-0.1,0.2c0,0-0.1,0.1-0.2,0.1c-0.1,0-0.1,0.1-0.2,0.1
		c-0.1,0-0.2,0-0.3,0c-0.2,0-0.3,0-0.4-0.1c-0.1-0.1-0.2-0.1-0.3-0.3c-0.1-0.1-0.2-0.3-0.2-0.4c0-0.2-0.1-0.4-0.1-0.6s0-0.4,0.1-0.6
		c0-0.2,0.1-0.3,0.2-0.4c0.1-0.1,0.2-0.2,0.3-0.3c0.1-0.1,0.3-0.1,0.4-0.1c0.1,0,0.2,0,0.3,0c0.1,0,0.1,0,0.2,0.1s0.1,0.1,0.2,0.1
		c0,0,0.1,0.1,0.1,0.1h0c0-0.1,0-0.1,0-0.2c0,0,0-0.1,0-0.1c0,0,0-0.1,0-0.1v-1.1h0.4v3.8h-0.4L-1336.8,1205.7z M-1337.5,1205.7
		c0.1,0,0.2,0,0.3-0.1c0.1,0,0.2-0.1,0.2-0.2c0.1-0.1,0.1-0.2,0.1-0.3c0-0.1,0-0.2,0-0.4v-0.1c0-0.2,0-0.3,0-0.4
		c0-0.1-0.1-0.2-0.1-0.3c-0.1-0.1-0.1-0.2-0.2-0.2s-0.2-0.1-0.3-0.1c-0.2,0-0.4,0.1-0.5,0.3c-0.1,0.2-0.2,0.4-0.2,0.8
		c0,0.3,0.1,0.6,0.2,0.8C-1337.9,1205.6-1337.8,1205.7-1337.5,1205.7z"/>
</g>
<g class="st5">
	<path class="st4" d="M-1476.5,1343.8l-0.4-1.1h-1.3l-0.4,1.1h-0.5l1.3-3.6h0.4l1.3,3.6H-1476.5z M-1477,1342.3l-0.4-1
		c0,0,0-0.1,0-0.1c0,0,0-0.1,0-0.1s0-0.1,0-0.2s0-0.1,0-0.2c0,0.1,0,0.1,0,0.2s0,0.1,0,0.2s0,0.1,0,0.1c0,0,0,0.1,0,0.1l-0.4,1
		H-1477z"/>
	<path class="st4" d="M-1474.7,1341.6c0.2,0,0.3,0,0.5,0.1c0.1,0,0.3,0.1,0.4,0.2c0.1,0.1,0.2,0.2,0.2,0.3s0.1,0.3,0.1,0.5
		c0,0.2,0,0.4-0.1,0.5s-0.1,0.3-0.2,0.4s-0.2,0.2-0.4,0.2c-0.2,0.1-0.3,0.1-0.6,0.1c-0.1,0-0.2,0-0.2,0c-0.1,0-0.2,0-0.2,0
		c-0.1,0-0.1,0-0.2-0.1s-0.1-0.1-0.2-0.1v-0.4c0.1,0,0.1,0.1,0.2,0.1c0.1,0,0.1,0.1,0.2,0.1s0.2,0,0.2,0c0.1,0,0.2,0,0.2,0
		c0.1,0,0.2,0,0.3,0s0.2-0.1,0.3-0.1c0.1-0.1,0.1-0.1,0.2-0.2c0-0.1,0.1-0.2,0.1-0.3c0-0.2-0.1-0.4-0.2-0.5s-0.4-0.2-0.6-0.2
		c0,0-0.1,0-0.1,0c-0.1,0-0.1,0-0.2,0c-0.1,0-0.1,0-0.1,0c0,0-0.1,0-0.1,0l-0.2-0.1l0.1-1.7h1.7v0.4h-1.3l-0.1,1c0.1,0,0.1,0,0.2,0
		C-1474.9,1341.6-1474.8,1341.6-1474.7,1341.6z"/>
</g>
<g class="st5">
	<path class="st4" d="M-1369.3,1247.1h-0.9v-0.4h0.9v-1h0.4v1h0.9v0.4h-0.9v0.9h-0.4V1247.1z"/>
	<path class="st4" d="M-1366.5,1246.5c0.2,0,0.3,0,0.5,0.1c0.1,0,0.3,0.1,0.4,0.2s0.2,0.2,0.2,0.3s0.1,0.3,0.1,0.5
		c0,0.2,0,0.4-0.1,0.5c-0.1,0.1-0.1,0.3-0.2,0.4c-0.1,0.1-0.2,0.2-0.4,0.2c-0.2,0.1-0.3,0.1-0.6,0.1c-0.1,0-0.2,0-0.2,0
		c-0.1,0-0.2,0-0.2,0c-0.1,0-0.1,0-0.2-0.1c-0.1,0-0.1-0.1-0.2-0.1v-0.4c0.1,0,0.1,0.1,0.2,0.1s0.1,0.1,0.2,0.1c0.1,0,0.2,0,0.2,0
		c0.1,0,0.2,0,0.2,0c0.1,0,0.2,0,0.3,0c0.1,0,0.2-0.1,0.3-0.1c0.1-0.1,0.1-0.1,0.2-0.2c0-0.1,0.1-0.2,0.1-0.3c0-0.2-0.1-0.4-0.2-0.5
		c-0.1-0.1-0.4-0.2-0.6-0.2c0,0-0.1,0-0.1,0c-0.1,0-0.1,0-0.2,0c-0.1,0-0.1,0-0.1,0c0,0-0.1,0-0.1,0l-0.2-0.1l0.1-1.7h1.7v0.4h-1.3
		l-0.1,1c0.1,0,0.1,0,0.2,0C-1366.7,1246.5-1366.6,1246.5-1366.5,1246.5z"/>
	<path class="st4" d="M-1362.7,1245.1h0.5l-1.2,3.6h-0.5l-1.2-3.6h0.5l0.7,2.3c0,0.1,0.1,0.3,0.1,0.4s0.1,0.3,0.1,0.4
		c0-0.1,0.1-0.3,0.1-0.4c0-0.1,0.1-0.3,0.1-0.4L-1362.7,1245.1z"/>
</g>
<g class="st5">
	<path class="st4" d="M-1476.5,1336.6l-0.4-1.1h-1.3l-0.4,1.1h-0.5l1.3-3.6h0.4l1.3,3.6H-1476.5z M-1477,1335.1l-0.4-1
		c0,0,0-0.1,0-0.1c0,0,0-0.1,0-0.1s0-0.1,0-0.2s0-0.1,0-0.2c0,0.1,0,0.1,0,0.2c0,0.1,0,0.1,0,0.2c0,0,0,0.1,0,0.1c0,0,0,0.1,0,0.1
		l-0.4,1H-1477z"/>
	<path class="st4" d="M-1473.4,1335.8h-0.5v0.8h-0.4v-0.8h-1.6v-0.4l1.6-2.4h0.5v2.4h0.5V1335.8z M-1474.3,1335.4v-0.9
		c0-0.1,0-0.2,0-0.3c0-0.1,0-0.2,0-0.3c0-0.1,0-0.2,0-0.3c0-0.1,0-0.2,0-0.2h0c0,0,0,0.1,0,0.1c0,0,0,0.1-0.1,0.1c0,0,0,0.1-0.1,0.1
		c0,0,0,0.1-0.1,0.1l-1,1.5H-1474.3z"/>
</g>
<g class="st5">
	<path class="st4" d="M-1480.8,1248.6h-0.9v-0.4h0.9v-1h0.4v1h0.9v0.4h-0.9v0.9h-0.4V1248.6z"/>
	<path class="st4" d="M-1477.9,1248c0.2,0,0.3,0,0.5,0.1c0.1,0,0.3,0.1,0.4,0.2c0.1,0.1,0.2,0.2,0.2,0.3s0.1,0.3,0.1,0.5
		c0,0.2,0,0.4-0.1,0.5s-0.1,0.3-0.2,0.4s-0.2,0.2-0.4,0.2c-0.2,0.1-0.3,0.1-0.6,0.1c-0.1,0-0.2,0-0.2,0c-0.1,0-0.2,0-0.2,0
		c-0.1,0-0.1,0-0.2-0.1s-0.1-0.1-0.2-0.1v-0.4c0.1,0,0.1,0.1,0.2,0.1c0.1,0,0.1,0.1,0.2,0.1s0.2,0,0.2,0c0.1,0,0.2,0,0.2,0
		c0.1,0,0.2,0,0.3,0s0.2-0.1,0.3-0.1c0.1-0.1,0.1-0.1,0.2-0.2c0-0.1,0.1-0.2,0.1-0.3c0-0.2-0.1-0.4-0.2-0.5s-0.4-0.2-0.6-0.2
		c0,0-0.1,0-0.1,0c-0.1,0-0.1,0-0.2,0c-0.1,0-0.1,0-0.1,0c0,0-0.1,0-0.1,0l-0.2-0.1l0.1-1.7h1.7v0.4h-1.3l-0.1,1c0.1,0,0.1,0,0.2,0
		C-1478.2,1248-1478,1248-1477.9,1248z"/>
	<path class="st4" d="M-1474.2,1246.6h0.5l-1.2,3.6h-0.5l-1.2-3.6h0.5l0.7,2.3c0,0.1,0.1,0.3,0.1,0.4s0.1,0.3,0.1,0.4
		c0-0.1,0.1-0.3,0.1-0.4s0.1-0.3,0.1-0.4L-1474.2,1246.6z"/>
</g>
<g class="st5">
	<path class="st4" d="M-1365.9,1226.4h1.2v1.8c-0.1,0-0.2,0.1-0.3,0.1c-0.1,0-0.2,0-0.3,0.1s-0.2,0-0.3,0c-0.1,0-0.2,0-0.3,0
		c-0.3,0-0.5,0-0.7-0.1c-0.2-0.1-0.4-0.2-0.5-0.4c-0.1-0.2-0.2-0.4-0.3-0.6c-0.1-0.2-0.1-0.5-0.1-0.8c0-0.3,0-0.5,0.1-0.8
		s0.2-0.4,0.3-0.6c0.1-0.2,0.3-0.3,0.5-0.4c0.2-0.1,0.5-0.1,0.7-0.1c0.2,0,0.4,0,0.5,0.1c0.2,0,0.3,0.1,0.5,0.2l-0.2,0.4
		c-0.1,0-0.1-0.1-0.2-0.1c-0.1,0-0.1,0-0.2-0.1s-0.1,0-0.2,0c-0.1,0-0.2,0-0.2,0c-0.2,0-0.4,0-0.5,0.1c-0.2,0.1-0.3,0.2-0.4,0.3
		c-0.1,0.1-0.2,0.3-0.2,0.5c-0.1,0.2-0.1,0.4-0.1,0.6c0,0.2,0,0.4,0.1,0.6s0.1,0.3,0.2,0.5s0.2,0.2,0.4,0.3s0.3,0.1,0.6,0.1
		c0.1,0,0.1,0,0.2,0c0.1,0,0.1,0,0.2,0c0.1,0,0.1,0,0.1,0c0,0,0.1,0,0.1,0v-1.1h-0.7V1226.4z"/>
	<path class="st4" d="M-1361.2,1228.3h-0.5l-1.8-3h0c0,0.1,0,0.3,0,0.4c0,0.1,0,0.2,0,0.3c0,0.1,0,0.2,0,0.3v1.9h-0.4v-3.6h0.5
		l1.7,2.9h0c0-0.1,0-0.2,0-0.4c0-0.1,0-0.1,0-0.2s0-0.1,0-0.2c0-0.1,0-0.1,0-0.2c0-0.1,0-0.1,0-0.1v-2h0.4V1228.3z"/>
	<path class="st4" d="M-1357.6,1226.5c0,0.3,0,0.6-0.1,0.8c-0.1,0.2-0.2,0.4-0.3,0.6c-0.1,0.2-0.3,0.3-0.5,0.3
		c-0.2,0.1-0.5,0.1-0.7,0.1h-0.9v-3.6h1c0.2,0,0.5,0,0.7,0.1c0.2,0.1,0.4,0.2,0.5,0.3s0.3,0.3,0.3,0.5
		C-1357.6,1225.9-1357.6,1226.2-1357.6,1226.5z M-1358.1,1226.5c0-0.2,0-0.4-0.1-0.6c-0.1-0.2-0.1-0.3-0.2-0.4
		c-0.1-0.1-0.2-0.2-0.4-0.3c-0.1-0.1-0.3-0.1-0.5-0.1h-0.5v2.8h0.4c0.4,0,0.8-0.1,1-0.4C-1358.2,1227.3-1358.1,1227-1358.1,1226.5z"
		/>
</g>
<g class="st5">
	<path class="st4" d="M-1479.9,1226.2h1.2v1.8c-0.1,0-0.2,0.1-0.3,0.1c-0.1,0-0.2,0-0.3,0.1s-0.2,0-0.3,0c-0.1,0-0.2,0-0.3,0
		c-0.3,0-0.5,0-0.7-0.1c-0.2-0.1-0.4-0.2-0.5-0.4c-0.1-0.2-0.2-0.4-0.3-0.6c-0.1-0.2-0.1-0.5-0.1-0.8c0-0.3,0-0.5,0.1-0.8
		c0.1-0.2,0.2-0.4,0.3-0.6c0.1-0.2,0.3-0.3,0.5-0.4c0.2-0.1,0.5-0.1,0.7-0.1c0.2,0,0.4,0,0.5,0.1c0.2,0,0.3,0.1,0.5,0.2l-0.2,0.4
		c-0.1,0-0.1-0.1-0.2-0.1c-0.1,0-0.1,0-0.2-0.1s-0.1,0-0.2,0c-0.1,0-0.2,0-0.2,0c-0.2,0-0.4,0-0.5,0.1c-0.2,0.1-0.3,0.2-0.4,0.3
		c-0.1,0.1-0.2,0.3-0.2,0.5c-0.1,0.2-0.1,0.4-0.1,0.6c0,0.2,0,0.4,0.1,0.6c0,0.2,0.1,0.3,0.2,0.5s0.2,0.2,0.4,0.3s0.3,0.1,0.6,0.1
		c0.1,0,0.1,0,0.2,0c0.1,0,0.1,0,0.2,0s0.1,0,0.1,0c0,0,0.1,0,0.1,0v-1.1h-0.7V1226.2z"/>
	<path class="st4" d="M-1475.2,1228.1h-0.5l-1.8-3h0c0,0.1,0,0.3,0,0.4c0,0.1,0,0.2,0,0.3c0,0.1,0,0.2,0,0.3v1.9h-0.4v-3.6h0.5
		l1.7,2.9h0c0-0.1,0-0.2,0-0.4c0-0.1,0-0.1,0-0.2c0-0.1,0-0.1,0-0.2c0-0.1,0-0.1,0-0.2c0-0.1,0-0.1,0-0.1v-2h0.4V1228.1z"/>
	<path class="st4" d="M-1471.6,1226.3c0,0.3,0,0.6-0.1,0.8c-0.1,0.2-0.2,0.4-0.3,0.6s-0.3,0.3-0.5,0.3c-0.2,0.1-0.5,0.1-0.7,0.1
		h-0.9v-3.6h1c0.2,0,0.5,0,0.7,0.1s0.4,0.2,0.5,0.3s0.3,0.3,0.3,0.5C-1471.6,1225.7-1471.6,1226-1471.6,1226.3z M-1472,1226.3
		c0-0.2,0-0.4-0.1-0.6c-0.1-0.2-0.1-0.3-0.2-0.4c-0.1-0.1-0.2-0.2-0.4-0.3s-0.3-0.1-0.5-0.1h-0.5v2.8h0.4c0.4,0,0.8-0.1,1-0.4
		S-1472,1226.7-1472,1226.3z"/>
</g>
<g class="st5">
	<path class="st4" d="M-1476.5,1206.7l-0.4-1.1h-1.3l-0.4,1.1h-0.5l1.3-3.6h0.4l1.3,3.6H-1476.5z M-1477,1205.2l-0.4-1
		c0,0,0-0.1,0-0.1s0-0.1,0-0.1s0-0.1,0-0.2s0-0.1,0-0.2c0,0.1,0,0.1,0,0.2s0,0.1,0,0.2s0,0.1,0,0.1c0,0,0,0.1,0,0.1l-0.4,1H-1477z"
		/>
	<path class="st4" d="M-1473.5,1204.9c0,0.3,0,0.5-0.1,0.8c0,0.2-0.1,0.4-0.2,0.6c-0.1,0.2-0.2,0.3-0.4,0.4
		c-0.1,0.1-0.3,0.1-0.5,0.1c-0.2,0-0.4,0-0.5-0.1c-0.1-0.1-0.3-0.2-0.4-0.4c-0.1-0.2-0.2-0.4-0.2-0.6c0-0.2-0.1-0.5-0.1-0.8
		c0-0.3,0-0.5,0.1-0.8c0-0.2,0.1-0.4,0.2-0.6c0.1-0.2,0.2-0.3,0.4-0.4c0.1-0.1,0.3-0.1,0.5-0.1c0.2,0,0.4,0,0.5,0.1
		c0.1,0.1,0.3,0.2,0.4,0.4c0.1,0.2,0.2,0.3,0.2,0.6C-1473.5,1204.4-1473.5,1204.6-1473.5,1204.9z M-1475.3,1204.9c0,0.2,0,0.5,0,0.6
		c0,0.2,0.1,0.3,0.1,0.5s0.1,0.2,0.2,0.3c0.1,0.1,0.2,0.1,0.3,0.1c0.1,0,0.2,0,0.3-0.1s0.2-0.2,0.2-0.3c0.1-0.1,0.1-0.3,0.1-0.5
		c0-0.2,0-0.4,0-0.6c0-0.2,0-0.5,0-0.6c0-0.2-0.1-0.3-0.1-0.5c-0.1-0.1-0.1-0.2-0.2-0.3s-0.2-0.1-0.3-0.1c-0.1,0-0.2,0-0.3,0.1
		s-0.2,0.2-0.2,0.3c-0.1,0.1-0.1,0.3-0.1,0.5C-1475.3,1204.5-1475.3,1204.7-1475.3,1204.9z"/>
</g>
<g class="st5">
	<path class="st4" d="M-1475.9,1276.9c0,0.3,0,0.6-0.1,0.8c-0.1,0.2-0.2,0.4-0.3,0.6c-0.1,0.2-0.3,0.3-0.5,0.3
		c-0.2,0.1-0.5,0.1-0.7,0.1h-0.9v-3.6h1c0.2,0,0.5,0,0.7,0.1c0.2,0.1,0.4,0.2,0.5,0.3s0.3,0.3,0.3,0.5
		C-1476,1276.4-1475.9,1276.6-1475.9,1276.9z M-1476.4,1276.9c0-0.2,0-0.4-0.1-0.6c-0.1-0.2-0.1-0.3-0.2-0.4
		c-0.1-0.1-0.2-0.2-0.4-0.3c-0.2-0.1-0.3-0.1-0.5-0.1h-0.5v2.8h0.4c0.4,0,0.8-0.1,1-0.4C-1476.5,1277.7-1476.4,1277.4-1476.4,1276.9
		z"/>
	<path class="st4" d="M-1475,1278.7l1.4-3.2h-1.8v-0.4h2.3v0.4l-1.4,3.2H-1475z"/>
</g>
<g class="st5">
	<path class="st4" d="M-1459.5,1237.3h-0.5v0.8h-0.4v-0.8h-1.6v-0.4l1.6-2.4h0.5v2.4h0.5V1237.3z M-1460.4,1236.9v-0.9
		c0-0.1,0-0.2,0-0.3c0-0.1,0-0.2,0-0.3c0-0.1,0-0.2,0-0.3c0-0.1,0-0.2,0-0.2h0c0,0,0,0.1,0,0.1c0,0,0,0.1-0.1,0.1c0,0,0,0.1-0.1,0.1
		c0,0,0,0.1-0.1,0.1l-1,1.5H-1460.4z"/>
	<path class="st4" d="M-1458.7,1238.1l1.4-3.2h-1.8v-0.4h2.3v0.4l-1.4,3.2H-1458.7z"/>
	<path class="st4" d="M-1455.8,1237.2c0,0.2,0,0.4,0.1,0.5s0.2,0.2,0.4,0.2c0.1,0,0.2,0,0.3-0.1c0.1,0,0.2-0.1,0.2-0.2
		c0.1-0.1,0.1-0.2,0.1-0.3s0-0.3,0-0.4v-1.4h0.4v2.7h-0.4l-0.1-0.4h0c-0.1,0.1-0.2,0.2-0.3,0.3s-0.3,0.1-0.4,0.1
		c-0.1,0-0.2,0-0.3-0.1c-0.1,0-0.2-0.1-0.2-0.2c0,0.1,0,0.1,0,0.2c0,0.1,0,0.1,0,0.2c0,0.1,0,0.1,0,0.2v0.8h-0.4v-3.9h0.4V1237.2z"
		/>
	<path class="st4" d="M-1452.7,1238.1h-0.5v-3.6h1.9v0.4h-1.4v1.3h1.3v0.4h-1.3V1238.1z"/>
</g>
<g class="st5">
	<path class="st4" d="M-1438.6,1343.8v-3.6h0.5v3.2h1.4v0.4H-1438.6z"/>
	<path class="st4" d="M-1434.8,1340.5c-0.2,0-0.3,0-0.5,0.1c-0.1,0.1-0.3,0.2-0.4,0.3c-0.1,0.1-0.2,0.3-0.2,0.5
		c-0.1,0.2-0.1,0.4-0.1,0.6c0,0.2,0,0.4,0.1,0.6c0,0.2,0.1,0.3,0.2,0.5s0.2,0.2,0.4,0.3s0.3,0.1,0.5,0.1c0.1,0,0.3,0,0.4,0
		s0.3-0.1,0.4-0.1v0.4c-0.1,0-0.1,0-0.2,0.1s-0.1,0-0.2,0c-0.1,0-0.1,0-0.2,0c-0.1,0-0.2,0-0.3,0c-0.3,0-0.5,0-0.7-0.1
		s-0.4-0.2-0.5-0.4c-0.1-0.2-0.2-0.4-0.3-0.6c-0.1-0.2-0.1-0.5-0.1-0.8c0-0.3,0-0.5,0.1-0.7c0.1-0.2,0.2-0.4,0.3-0.6
		c0.1-0.2,0.3-0.3,0.5-0.4s0.4-0.1,0.7-0.1c0.2,0,0.3,0,0.5,0.1c0.2,0,0.3,0.1,0.4,0.2l-0.2,0.4c-0.1-0.1-0.2-0.1-0.3-0.1
		S-1434.6,1340.5-1434.8,1340.5z"/>
	<path class="st4" d="M-1430.6,1342c0,0.3,0,0.6-0.1,0.8c-0.1,0.2-0.2,0.4-0.3,0.6s-0.3,0.3-0.5,0.3c-0.2,0.1-0.5,0.1-0.7,0.1h-0.9
		v-3.6h1c0.2,0,0.5,0,0.7,0.1s0.4,0.2,0.5,0.3s0.3,0.3,0.3,0.5C-1430.6,1341.4-1430.6,1341.7-1430.6,1342z M-1431.1,1342
		c0-0.2,0-0.4-0.1-0.6c-0.1-0.2-0.1-0.3-0.2-0.4c-0.1-0.1-0.2-0.2-0.4-0.3s-0.3-0.1-0.5-0.1h-0.5v2.8h0.4c0.4,0,0.8-0.1,1-0.4
		S-1431.1,1342.4-1431.1,1342z"/>
	<path class="st4" d="M-1426.6,1342.8c0,0.2,0,0.3-0.1,0.4c-0.1,0.1-0.1,0.2-0.2,0.3s-0.2,0.2-0.4,0.2s-0.3,0.1-0.5,0.1
		c-0.2,0-0.3,0-0.5,0c-0.2,0-0.3-0.1-0.4-0.1v-0.4c0.1,0,0.1,0.1,0.2,0.1c0.1,0,0.1,0,0.2,0.1s0.2,0,0.2,0c0.1,0,0.2,0,0.2,0
		c0.3,0,0.5,0,0.6-0.1c0.1-0.1,0.2-0.2,0.2-0.4c0-0.1,0-0.2,0-0.2c0-0.1-0.1-0.1-0.1-0.2c-0.1-0.1-0.1-0.1-0.2-0.2
		c-0.1-0.1-0.2-0.1-0.4-0.2c-0.1-0.1-0.3-0.1-0.4-0.2c-0.1-0.1-0.2-0.1-0.3-0.2c-0.1-0.1-0.1-0.2-0.2-0.3c0-0.1-0.1-0.2-0.1-0.4
		c0-0.1,0-0.3,0.1-0.4c0.1-0.1,0.1-0.2,0.2-0.3s0.2-0.1,0.3-0.2c0.1,0,0.3-0.1,0.4-0.1c0.2,0,0.4,0,0.5,0.1c0.2,0,0.3,0.1,0.4,0.1
		l-0.2,0.4c-0.1,0-0.2-0.1-0.4-0.1c-0.1,0-0.3-0.1-0.4-0.1c-0.2,0-0.4,0-0.5,0.1s-0.2,0.2-0.2,0.4c0,0.1,0,0.2,0,0.2
		s0.1,0.1,0.1,0.2s0.1,0.1,0.2,0.2c0.1,0,0.2,0.1,0.3,0.2c0.1,0.1,0.3,0.1,0.4,0.2c0.1,0.1,0.2,0.1,0.3,0.2s0.1,0.2,0.2,0.3
		C-1426.6,1342.6-1426.6,1342.7-1426.6,1342.8z"/>
	<path class="st4" d="M-1424.5,1340.5c-0.2,0-0.3,0-0.5,0.1c-0.1,0.1-0.3,0.2-0.4,0.3c-0.1,0.1-0.2,0.3-0.2,0.5
		c-0.1,0.2-0.1,0.4-0.1,0.6c0,0.2,0,0.4,0.1,0.6c0,0.2,0.1,0.3,0.2,0.5s0.2,0.2,0.4,0.3s0.3,0.1,0.5,0.1c0.1,0,0.3,0,0.4,0
		s0.3-0.1,0.4-0.1v0.4c-0.1,0-0.1,0-0.2,0.1s-0.1,0-0.2,0c-0.1,0-0.1,0-0.2,0c-0.1,0-0.2,0-0.3,0c-0.3,0-0.5,0-0.7-0.1
		s-0.4-0.2-0.5-0.4c-0.1-0.2-0.2-0.4-0.3-0.6c-0.1-0.2-0.1-0.5-0.1-0.8c0-0.3,0-0.5,0.1-0.7c0.1-0.2,0.2-0.4,0.3-0.6
		c0.1-0.2,0.3-0.3,0.5-0.4s0.4-0.1,0.7-0.1c0.2,0,0.3,0,0.5,0.1c0.2,0,0.3,0.1,0.4,0.2l-0.2,0.4c-0.1-0.1-0.2-0.1-0.3-0.1
		S-1424.3,1340.5-1424.5,1340.5z"/>
	<path class="st4" d="M-1422.9,1343.8v-3.6h0.5v3.2h1.4v0.4H-1422.9z"/>
</g>
<g class="st5">
	<path class="st4" d="M-1437.8,1312.6h1.2v1.8c-0.1,0-0.2,0.1-0.3,0.1c-0.1,0-0.2,0-0.3,0.1s-0.2,0-0.3,0c-0.1,0-0.2,0-0.3,0
		c-0.3,0-0.5,0-0.7-0.1c-0.2-0.1-0.4-0.2-0.5-0.4c-0.1-0.2-0.2-0.4-0.3-0.6c-0.1-0.2-0.1-0.5-0.1-0.8c0-0.3,0-0.5,0.1-0.8
		c0.1-0.2,0.2-0.4,0.3-0.6c0.1-0.2,0.3-0.3,0.5-0.4c0.2-0.1,0.5-0.1,0.7-0.1c0.2,0,0.4,0,0.5,0.1c0.2,0,0.3,0.1,0.5,0.2l-0.2,0.4
		c-0.1,0-0.1-0.1-0.2-0.1c-0.1,0-0.1,0-0.2-0.1s-0.1,0-0.2,0c-0.1,0-0.2,0-0.2,0c-0.2,0-0.4,0-0.5,0.1c-0.2,0.1-0.3,0.2-0.4,0.3
		c-0.1,0.1-0.2,0.3-0.2,0.5c-0.1,0.2-0.1,0.4-0.1,0.6c0,0.2,0,0.4,0.1,0.6c0,0.2,0.1,0.3,0.2,0.5s0.2,0.2,0.4,0.3s0.3,0.1,0.6,0.1
		c0.1,0,0.1,0,0.2,0c0.1,0,0.1,0,0.2,0s0.1,0,0.1,0c0,0,0.1,0,0.1,0v-1.1h-0.7V1312.6z"/>
	<path class="st4" d="M-1433.1,1314.5h-0.5l-1.8-3h0c0,0.1,0,0.3,0,0.4c0,0.1,0,0.2,0,0.3c0,0.1,0,0.2,0,0.3v1.9h-0.4v-3.6h0.5
		l1.7,2.9h0c0-0.1,0-0.2,0-0.4c0-0.1,0-0.1,0-0.2c0-0.1,0-0.1,0-0.2c0-0.1,0-0.1,0-0.2c0-0.1,0-0.1,0-0.1v-2h0.4V1314.5z"/>
	<path class="st4" d="M-1429.5,1312.7c0,0.3,0,0.6-0.1,0.8c-0.1,0.2-0.2,0.4-0.3,0.6s-0.3,0.3-0.5,0.3c-0.2,0.1-0.5,0.1-0.7,0.1
		h-0.9v-3.6h1c0.2,0,0.5,0,0.7,0.1s0.4,0.2,0.5,0.3s0.3,0.3,0.3,0.5C-1429.5,1312.1-1429.5,1312.4-1429.5,1312.7z M-1430,1312.7
		c0-0.2,0-0.4-0.1-0.6c-0.1-0.2-0.1-0.3-0.2-0.4c-0.1-0.1-0.2-0.2-0.4-0.3s-0.3-0.1-0.5-0.1h-0.5v2.8h0.4c0.4,0,0.8-0.1,1-0.4
		S-1430,1313.1-1430,1312.7z"/>
</g>
<g class="st5">
	<path class="st4" d="M-1439.3,1355.8h-0.9v-0.4h0.9v-1h0.4v1h0.9v0.4h-0.9v0.9h-0.4V1355.8z"/>
	<path class="st4" d="M-1436.4,1355.2c0.2,0,0.3,0,0.5,0.1c0.1,0,0.3,0.1,0.4,0.2c0.1,0.1,0.2,0.2,0.2,0.3s0.1,0.3,0.1,0.5
		c0,0.2,0,0.4-0.1,0.5s-0.1,0.3-0.2,0.4s-0.2,0.2-0.4,0.2c-0.2,0.1-0.3,0.1-0.6,0.1c-0.1,0-0.2,0-0.2,0c-0.1,0-0.2,0-0.2,0
		c-0.1,0-0.1,0-0.2-0.1s-0.1-0.1-0.2-0.1v-0.4c0.1,0,0.1,0.1,0.2,0.1c0.1,0,0.1,0.1,0.2,0.1s0.2,0,0.2,0c0.1,0,0.2,0,0.2,0
		c0.1,0,0.2,0,0.3,0s0.2-0.1,0.3-0.1c0.1-0.1,0.1-0.1,0.2-0.2c0-0.1,0.1-0.2,0.1-0.3c0-0.2-0.1-0.4-0.2-0.5s-0.4-0.2-0.6-0.2
		c0,0-0.1,0-0.1,0c-0.1,0-0.1,0-0.2,0c-0.1,0-0.1,0-0.1,0c0,0-0.1,0-0.1,0l-0.2-0.1l0.1-1.7h1.7v0.4h-1.3l-0.1,1c0.1,0,0.1,0,0.2,0
		C-1436.6,1355.2-1436.5,1355.2-1436.4,1355.2z"/>
	<path class="st4" d="M-1432.6,1353.8h0.5l-1.2,3.6h-0.5l-1.2-3.6h0.5l0.7,2.3c0,0.1,0.1,0.3,0.1,0.4s0.1,0.3,0.1,0.4
		c0-0.1,0.1-0.3,0.1-0.4s0.1-0.3,0.1-0.4L-1432.6,1353.8z"/>
</g>
<g class="st5">
	<path class="st4" d="M-1479.9,1348.6h1.2v1.8c-0.1,0-0.2,0.1-0.3,0.1c-0.1,0-0.2,0-0.3,0.1c-0.1,0-0.2,0-0.3,0c-0.1,0-0.2,0-0.3,0
		c-0.3,0-0.5,0-0.7-0.1c-0.2-0.1-0.4-0.2-0.5-0.4c-0.1-0.2-0.2-0.4-0.3-0.6c-0.1-0.2-0.1-0.5-0.1-0.8c0-0.3,0-0.5,0.1-0.8
		c0.1-0.2,0.2-0.4,0.3-0.6c0.1-0.2,0.3-0.3,0.5-0.4c0.2-0.1,0.5-0.1,0.7-0.1c0.2,0,0.4,0,0.5,0.1c0.2,0,0.3,0.1,0.5,0.2l-0.2,0.4
		c-0.1,0-0.1-0.1-0.2-0.1c-0.1,0-0.1,0-0.2-0.1c-0.1,0-0.1,0-0.2,0c-0.1,0-0.2,0-0.2,0c-0.2,0-0.4,0-0.5,0.1
		c-0.2,0.1-0.3,0.2-0.4,0.3s-0.2,0.3-0.2,0.5c-0.1,0.2-0.1,0.4-0.1,0.6c0,0.2,0,0.4,0.1,0.6s0.1,0.3,0.2,0.5s0.2,0.2,0.4,0.3
		c0.2,0.1,0.3,0.1,0.6,0.1c0.1,0,0.1,0,0.2,0s0.1,0,0.2,0c0,0,0.1,0,0.1,0s0.1,0,0.1,0v-1.1h-0.7V1348.6z"/>
	<path class="st4" d="M-1475.2,1350.5h-0.5l-1.8-3h0c0,0.1,0,0.3,0,0.4c0,0.1,0,0.2,0,0.3c0,0.1,0,0.2,0,0.3v1.9h-0.4v-3.6h0.5
		l1.7,2.9h0c0-0.1,0-0.2,0-0.4c0-0.1,0-0.1,0-0.2c0-0.1,0-0.1,0-0.2c0-0.1,0-0.1,0-0.2c0-0.1,0-0.1,0-0.1v-2h0.4V1350.5z"/>
	<path class="st4" d="M-1471.6,1348.7c0,0.3,0,0.6-0.1,0.8c-0.1,0.2-0.2,0.4-0.3,0.6c-0.1,0.2-0.3,0.3-0.5,0.3
		c-0.2,0.1-0.5,0.1-0.7,0.1h-0.9v-3.6h1c0.2,0,0.5,0,0.7,0.1c0.2,0.1,0.4,0.2,0.5,0.3s0.3,0.3,0.3,0.5
		C-1471.6,1348.1-1471.6,1348.4-1471.6,1348.7z M-1472,1348.7c0-0.2,0-0.4-0.1-0.6c-0.1-0.2-0.1-0.3-0.2-0.4
		c-0.1-0.1-0.2-0.2-0.4-0.3c-0.2-0.1-0.3-0.1-0.5-0.1h-0.5v2.8h0.4c0.4,0,0.8-0.1,1-0.4C-1472.2,1349.5-1472,1349.1-1472,1348.7z"/>
</g>
<g class="st5">
	<path class="st4" d="M-1437.8,1348.6h1.2v1.8c-0.1,0-0.2,0.1-0.3,0.1c-0.1,0-0.2,0-0.3,0.1s-0.2,0-0.3,0c-0.1,0-0.2,0-0.3,0
		c-0.3,0-0.5,0-0.7-0.1c-0.2-0.1-0.4-0.2-0.5-0.4c-0.1-0.2-0.2-0.4-0.3-0.6c-0.1-0.2-0.1-0.5-0.1-0.8c0-0.3,0-0.5,0.1-0.8
		c0.1-0.2,0.2-0.4,0.3-0.6c0.1-0.2,0.3-0.3,0.5-0.4c0.2-0.1,0.5-0.1,0.7-0.1c0.2,0,0.4,0,0.5,0.1c0.2,0,0.3,0.1,0.5,0.2l-0.2,0.4
		c-0.1,0-0.1-0.1-0.2-0.1c-0.1,0-0.1,0-0.2-0.1s-0.1,0-0.2,0c-0.1,0-0.2,0-0.2,0c-0.2,0-0.4,0-0.5,0.1c-0.2,0.1-0.3,0.2-0.4,0.3
		c-0.1,0.1-0.2,0.3-0.2,0.5c-0.1,0.2-0.1,0.4-0.1,0.6c0,0.2,0,0.4,0.1,0.6c0,0.2,0.1,0.3,0.2,0.5s0.2,0.2,0.4,0.3s0.3,0.1,0.6,0.1
		c0.1,0,0.1,0,0.2,0c0.1,0,0.1,0,0.2,0s0.1,0,0.1,0c0,0,0.1,0,0.1,0v-1.1h-0.7V1348.6z"/>
	<path class="st4" d="M-1433.1,1350.5h-0.5l-1.8-3h0c0,0.1,0,0.3,0,0.4c0,0.1,0,0.2,0,0.3c0,0.1,0,0.2,0,0.3v1.9h-0.4v-3.6h0.5
		l1.7,2.9h0c0-0.1,0-0.2,0-0.4c0-0.1,0-0.1,0-0.2c0-0.1,0-0.1,0-0.2c0-0.1,0-0.1,0-0.2c0-0.1,0-0.1,0-0.1v-2h0.4V1350.5z"/>
	<path class="st4" d="M-1429.5,1348.7c0,0.3,0,0.6-0.1,0.8c-0.1,0.2-0.2,0.4-0.3,0.6s-0.3,0.3-0.5,0.3c-0.2,0.1-0.5,0.1-0.7,0.1
		h-0.9v-3.6h1c0.2,0,0.5,0,0.7,0.1s0.4,0.2,0.5,0.3s0.3,0.3,0.3,0.5C-1429.5,1348.1-1429.5,1348.4-1429.5,1348.7z M-1430,1348.7
		c0-0.2,0-0.4-0.1-0.6c-0.1-0.2-0.1-0.3-0.2-0.4c-0.1-0.1-0.2-0.2-0.4-0.3s-0.3-0.1-0.5-0.1h-0.5v2.8h0.4c0.4,0,0.8-0.1,1-0.4
		S-1430,1349.1-1430,1348.7z"/>
</g>
<g class="st5">
	<path class="st4" d="M-1439.3,1305.4h-0.9v-0.4h0.9v-1h0.4v1h0.9v0.4h-0.9v0.9h-0.4V1305.4z"/>
	<path class="st4" d="M-1436.4,1304.8c0.2,0,0.3,0,0.5,0.1c0.1,0,0.3,0.1,0.4,0.2c0.1,0.1,0.2,0.2,0.2,0.3s0.1,0.3,0.1,0.5
		c0,0.2,0,0.4-0.1,0.5s-0.1,0.3-0.2,0.4s-0.2,0.2-0.4,0.2c-0.2,0.1-0.3,0.1-0.6,0.1c-0.1,0-0.2,0-0.2,0c-0.1,0-0.2,0-0.2,0
		c-0.1,0-0.1,0-0.2-0.1s-0.1-0.1-0.2-0.1v-0.4c0.1,0,0.1,0.1,0.2,0.1c0.1,0,0.1,0.1,0.2,0.1s0.2,0,0.2,0c0.1,0,0.2,0,0.2,0
		c0.1,0,0.2,0,0.3,0s0.2-0.1,0.3-0.1c0.1-0.1,0.1-0.1,0.2-0.2c0-0.1,0.1-0.2,0.1-0.3c0-0.2-0.1-0.4-0.2-0.5s-0.4-0.2-0.6-0.2
		c0,0-0.1,0-0.1,0c-0.1,0-0.1,0-0.2,0c-0.1,0-0.1,0-0.1,0c0,0-0.1,0-0.1,0l-0.2-0.1l0.1-1.7h1.7v0.4h-1.3l-0.1,1c0.1,0,0.1,0,0.2,0
		C-1436.6,1304.8-1436.5,1304.8-1436.4,1304.8z"/>
	<path class="st4" d="M-1432.6,1303.4h0.5l-1.2,3.6h-0.5l-1.2-3.6h0.5l0.7,2.3c0,0.1,0.1,0.3,0.1,0.4s0.1,0.3,0.1,0.4
		c0-0.1,0.1-0.3,0.1-0.4s0.1-0.3,0.1-0.4L-1432.6,1303.4z"/>
</g>
<g class="st5">
	<path class="st4" d="M-1479.9,1312.6h1.2v1.8c-0.1,0-0.2,0.1-0.3,0.1c-0.1,0-0.2,0-0.3,0.1s-0.2,0-0.3,0c-0.1,0-0.2,0-0.3,0
		c-0.3,0-0.5,0-0.7-0.1c-0.2-0.1-0.4-0.2-0.5-0.4c-0.1-0.2-0.2-0.4-0.3-0.6c-0.1-0.2-0.1-0.5-0.1-0.8c0-0.3,0-0.5,0.1-0.8
		c0.1-0.2,0.2-0.4,0.3-0.6c0.1-0.2,0.3-0.3,0.5-0.4c0.2-0.1,0.5-0.1,0.7-0.1c0.2,0,0.4,0,0.5,0.1c0.2,0,0.3,0.1,0.5,0.2l-0.2,0.4
		c-0.1,0-0.1-0.1-0.2-0.1c-0.1,0-0.1,0-0.2-0.1s-0.1,0-0.2,0c-0.1,0-0.2,0-0.2,0c-0.2,0-0.4,0-0.5,0.1c-0.2,0.1-0.3,0.2-0.4,0.3
		c-0.1,0.1-0.2,0.3-0.2,0.5c-0.1,0.2-0.1,0.4-0.1,0.6c0,0.2,0,0.4,0.1,0.6c0,0.2,0.1,0.3,0.2,0.5s0.2,0.2,0.4,0.3s0.3,0.1,0.6,0.1
		c0.1,0,0.1,0,0.2,0c0.1,0,0.1,0,0.2,0s0.1,0,0.1,0c0,0,0.1,0,0.1,0v-1.1h-0.7V1312.6z"/>
	<path class="st4" d="M-1475.2,1314.5h-0.5l-1.8-3h0c0,0.1,0,0.3,0,0.4c0,0.1,0,0.2,0,0.3c0,0.1,0,0.2,0,0.3v1.9h-0.4v-3.6h0.5
		l1.7,2.9h0c0-0.1,0-0.2,0-0.4c0-0.1,0-0.1,0-0.2c0-0.1,0-0.1,0-0.2c0-0.1,0-0.1,0-0.2c0-0.1,0-0.1,0-0.1v-2h0.4V1314.5z"/>
	<path class="st4" d="M-1471.6,1312.7c0,0.3,0,0.6-0.1,0.8c-0.1,0.2-0.2,0.4-0.3,0.6s-0.3,0.3-0.5,0.3c-0.2,0.1-0.5,0.1-0.7,0.1
		h-0.9v-3.6h1c0.2,0,0.5,0,0.7,0.1s0.4,0.2,0.5,0.3s0.3,0.3,0.3,0.5C-1471.6,1312.1-1471.6,1312.4-1471.6,1312.7z M-1472,1312.7
		c0-0.2,0-0.4-0.1-0.6c-0.1-0.2-0.1-0.3-0.2-0.4c-0.1-0.1-0.2-0.2-0.4-0.3s-0.3-0.1-0.5-0.1h-0.5v2.8h0.4c0.4,0,0.8-0.1,1-0.4
		S-1472,1313.1-1472,1312.7z"/>
</g>
<g class="st5">
	<path class="st4" d="M-1438.9,1335.8v-3.6h0.5v3.2h1.4v0.4H-1438.9z"/>
	<path class="st4" d="M-1435,1332.5c-0.2,0-0.3,0-0.5,0.1c-0.1,0.1-0.3,0.2-0.4,0.3c-0.1,0.1-0.2,0.3-0.2,0.5
		c-0.1,0.2-0.1,0.4-0.1,0.6c0,0.2,0,0.4,0.1,0.6c0,0.2,0.1,0.3,0.2,0.5c0.1,0.1,0.2,0.2,0.4,0.3c0.1,0.1,0.3,0.1,0.5,0.1
		c0.1,0,0.3,0,0.4,0c0.1,0,0.3-0.1,0.4-0.1v0.4c-0.1,0-0.1,0-0.2,0.1s-0.1,0-0.2,0c-0.1,0-0.1,0-0.2,0s-0.2,0-0.3,0
		c-0.3,0-0.5,0-0.7-0.1s-0.4-0.2-0.5-0.4c-0.1-0.2-0.2-0.4-0.3-0.6c-0.1-0.2-0.1-0.5-0.1-0.8c0-0.3,0-0.5,0.1-0.7
		c0.1-0.2,0.2-0.4,0.3-0.6c0.1-0.2,0.3-0.3,0.5-0.4c0.2-0.1,0.4-0.1,0.7-0.1c0.2,0,0.3,0,0.5,0.1c0.2,0,0.3,0.1,0.4,0.2l-0.2,0.4
		c-0.1-0.1-0.2-0.1-0.3-0.1C-1434.8,1332.6-1434.9,1332.5-1435,1332.5z"/>
	<path class="st4" d="M-1430.9,1334c0,0.3,0,0.6-0.1,0.8c-0.1,0.2-0.2,0.4-0.3,0.6c-0.1,0.2-0.3,0.3-0.5,0.3
		c-0.2,0.1-0.5,0.1-0.7,0.1h-0.9v-3.6h1c0.2,0,0.5,0,0.7,0.1c0.2,0.1,0.4,0.2,0.5,0.3s0.3,0.3,0.3,0.5
		C-1430.9,1333.4-1430.9,1333.7-1430.9,1334z M-1431.3,1334c0-0.2,0-0.4-0.1-0.6c-0.1-0.2-0.1-0.3-0.2-0.4c-0.1-0.1-0.2-0.2-0.4-0.3
		c-0.1-0.1-0.3-0.1-0.5-0.1h-0.5v2.8h0.4c0.4,0,0.8-0.1,1-0.4C-1431.4,1334.8-1431.3,1334.4-1431.3,1334z"/>
	<path class="st4" d="M-1426.9,1334.8c0,0.2,0,0.3-0.1,0.4c-0.1,0.1-0.1,0.2-0.2,0.3c-0.1,0.1-0.2,0.2-0.4,0.2
		c-0.1,0-0.3,0.1-0.5,0.1c-0.2,0-0.3,0-0.5,0s-0.3-0.1-0.4-0.1v-0.4c0.1,0,0.1,0.1,0.2,0.1c0.1,0,0.1,0,0.2,0.1s0.2,0,0.2,0
		c0.1,0,0.2,0,0.2,0c0.3,0,0.5,0,0.6-0.1c0.1-0.1,0.2-0.2,0.2-0.4c0-0.1,0-0.2,0-0.2c0-0.1-0.1-0.1-0.1-0.2
		c-0.1-0.1-0.1-0.1-0.2-0.2c-0.1-0.1-0.2-0.1-0.4-0.2c-0.1-0.1-0.3-0.1-0.4-0.2c-0.1-0.1-0.2-0.1-0.3-0.2c-0.1-0.1-0.1-0.2-0.2-0.3
		s0-0.2,0-0.4c0-0.1,0-0.3,0.1-0.4c0.1-0.1,0.1-0.2,0.2-0.3c0.1-0.1,0.2-0.1,0.3-0.2s0.3-0.1,0.4-0.1c0.2,0,0.4,0,0.5,0.1
		c0.2,0,0.3,0.1,0.4,0.1l-0.2,0.4c-0.1,0-0.2-0.1-0.4-0.1c-0.1,0-0.3-0.1-0.4-0.1c-0.2,0-0.4,0-0.5,0.1c-0.1,0.1-0.2,0.2-0.2,0.4
		c0,0.1,0,0.2,0,0.2s0.1,0.1,0.1,0.2c0.1,0.1,0.1,0.1,0.2,0.2c0.1,0,0.2,0.1,0.3,0.2c0.1,0.1,0.3,0.1,0.4,0.2
		c0.1,0.1,0.2,0.1,0.3,0.2c0.1,0.1,0.1,0.2,0.2,0.3S-1426.9,1334.7-1426.9,1334.8z"/>
	<path class="st4" d="M-1423.5,1334c0,0.3,0,0.6-0.1,0.8c-0.1,0.2-0.2,0.4-0.3,0.6c-0.1,0.2-0.3,0.3-0.5,0.3
		c-0.2,0.1-0.5,0.1-0.7,0.1h-0.9v-3.6h1c0.2,0,0.5,0,0.7,0.1c0.2,0.1,0.4,0.2,0.5,0.3s0.3,0.3,0.3,0.5
		C-1423.6,1333.4-1423.5,1333.7-1423.5,1334z M-1424,1334c0-0.2,0-0.4-0.1-0.6c-0.1-0.2-0.1-0.3-0.2-0.4c-0.1-0.1-0.2-0.2-0.4-0.3
		c-0.1-0.1-0.3-0.1-0.5-0.1h-0.5v2.8h0.4c0.4,0,0.8-0.1,1-0.4C-1424.1,1334.8-1424,1334.4-1424,1334z"/>
	<path class="st4" d="M-1420.7,1335.8l-0.4-1.1h-1.3l-0.4,1.1h-0.5l1.3-3.6h0.4l1.3,3.6H-1420.7z M-1421.2,1334.3l-0.4-1
		c0,0,0-0.1,0-0.1s0-0.1,0-0.1s0-0.1,0-0.2s0-0.1,0-0.2c0,0.1,0,0.1,0,0.2s0,0.1,0,0.2s0,0.1,0,0.1c0,0,0,0.1,0,0.1l-0.4,1H-1421.2z
		"/>
</g>
<g class="st5">
	<path class="st4" d="M-1475.9,1298.5c0,0.3,0,0.6-0.1,0.8c-0.1,0.2-0.2,0.4-0.3,0.6c-0.1,0.2-0.3,0.3-0.5,0.3
		c-0.2,0.1-0.5,0.1-0.7,0.1h-0.9v-3.6h1c0.2,0,0.5,0,0.7,0.1c0.2,0.1,0.4,0.2,0.5,0.3c0.1,0.1,0.3,0.3,0.3,0.5
		C-1476,1298-1475.9,1298.2-1475.9,1298.5z M-1476.4,1298.5c0-0.2,0-0.4-0.1-0.6s-0.1-0.3-0.2-0.4c-0.1-0.1-0.2-0.2-0.4-0.3
		c-0.2-0.1-0.3-0.1-0.5-0.1h-0.5v2.8h0.4c0.4,0,0.8-0.1,1-0.4C-1476.5,1299.3-1476.4,1299-1476.4,1298.5z"/>
	<path class="st4" d="M-1475.4,1298.8c0-0.2,0-0.3,0-0.5c0-0.2,0-0.3,0.1-0.5c0-0.2,0.1-0.3,0.2-0.4c0.1-0.1,0.2-0.2,0.3-0.3
		c0.1-0.1,0.3-0.2,0.4-0.2c0.2-0.1,0.3-0.1,0.6-0.1c0,0,0.1,0,0.1,0c0,0,0.1,0,0.1,0s0.1,0,0.1,0c0,0,0.1,0,0.1,0v0.4
		c-0.1,0-0.1,0-0.2,0c-0.1,0-0.1,0-0.2,0c-0.1,0-0.3,0-0.4,0.1c-0.1,0-0.2,0.1-0.3,0.1c-0.1,0.1-0.1,0.1-0.2,0.2
		c-0.1,0.1-0.1,0.2-0.1,0.3c0,0.1-0.1,0.2-0.1,0.3c0,0.1,0,0.2,0,0.4h0c0-0.1,0.1-0.1,0.1-0.2c0-0.1,0.1-0.1,0.2-0.1
		c0.1,0,0.1-0.1,0.2-0.1c0.1,0,0.2,0,0.3,0c0.2,0,0.3,0,0.4,0.1c0.1,0,0.2,0.1,0.3,0.2c0.1,0.1,0.2,0.2,0.2,0.3s0.1,0.3,0.1,0.5
		c0,0.2,0,0.4-0.1,0.5c0,0.1-0.1,0.3-0.2,0.4c-0.1,0.1-0.2,0.2-0.3,0.2c-0.1,0.1-0.3,0.1-0.4,0.1c-0.2,0-0.3,0-0.5-0.1
		c-0.1-0.1-0.3-0.2-0.4-0.3c-0.1-0.1-0.2-0.3-0.2-0.5C-1475.3,1299.3-1475.4,1299.1-1475.4,1298.8z M-1474.2,1300
		c0.1,0,0.2,0,0.3-0.1c0.1,0,0.1-0.1,0.2-0.2c0.1-0.1,0.1-0.2,0.1-0.3c0-0.1,0-0.2,0-0.4c0-0.1,0-0.2,0-0.3c0-0.1-0.1-0.2-0.1-0.2
		c-0.1-0.1-0.1-0.1-0.2-0.1c-0.1,0-0.2-0.1-0.3-0.1c-0.1,0-0.2,0-0.3,0.1c-0.1,0-0.2,0.1-0.2,0.1s-0.1,0.1-0.1,0.2s-0.1,0.2-0.1,0.2
		c0,0.1,0,0.2,0,0.3c0,0.1,0.1,0.2,0.1,0.3s0.1,0.2,0.2,0.2C-1474.4,1300-1474.3,1300-1474.2,1300z"/>
</g>
<g class="st5">
	<path class="st4" d="M-1480.8,1306.2h-0.9v-0.4h0.9v-1h0.4v1h0.9v0.4h-0.9v0.9h-0.4V1306.2z"/>
	<path class="st4" d="M-1477.9,1305.6c0.2,0,0.3,0,0.5,0.1c0.1,0,0.3,0.1,0.4,0.2c0.1,0.1,0.2,0.2,0.2,0.3s0.1,0.3,0.1,0.5
		c0,0.2,0,0.4-0.1,0.5s-0.1,0.3-0.2,0.4s-0.2,0.2-0.4,0.2c-0.2,0.1-0.3,0.1-0.6,0.1c-0.1,0-0.2,0-0.2,0c-0.1,0-0.2,0-0.2,0
		c-0.1,0-0.1,0-0.2-0.1s-0.1-0.1-0.2-0.1v-0.4c0.1,0,0.1,0.1,0.2,0.1c0.1,0,0.1,0.1,0.2,0.1s0.2,0,0.2,0c0.1,0,0.2,0,0.2,0
		c0.1,0,0.2,0,0.3,0s0.2-0.1,0.3-0.1c0.1-0.1,0.1-0.1,0.2-0.2c0-0.1,0.1-0.2,0.1-0.3c0-0.2-0.1-0.4-0.2-0.5s-0.4-0.2-0.6-0.2
		c0,0-0.1,0-0.1,0c-0.1,0-0.1,0-0.2,0c-0.1,0-0.1,0-0.1,0c0,0-0.1,0-0.1,0l-0.2-0.1l0.1-1.7h1.7v0.4h-1.3l-0.1,1c0.1,0,0.1,0,0.2,0
		C-1478.2,1305.6-1478,1305.6-1477.9,1305.6z"/>
	<path class="st4" d="M-1474.2,1304.2h0.5l-1.2,3.6h-0.5l-1.2-3.6h0.5l0.7,2.3c0,0.1,0.1,0.3,0.1,0.4s0.1,0.3,0.1,0.4
		c0-0.1,0.1-0.3,0.1-0.4s0.1-0.3,0.1-0.4L-1474.2,1304.2z"/>
</g>
<g class="st5">
	<path class="st4" d="M-1436.3,1298c0,0.3,0,0.6-0.1,0.8c-0.1,0.2-0.2,0.4-0.3,0.6c-0.1,0.2-0.3,0.3-0.5,0.3
		c-0.2,0.1-0.5,0.1-0.7,0.1h-0.9v-3.6h1c0.2,0,0.5,0,0.7,0.1c0.2,0.1,0.4,0.2,0.5,0.3s0.3,0.3,0.3,0.5
		C-1436.3,1297.4-1436.3,1297.7-1436.3,1298z M-1436.8,1298c0-0.2,0-0.4-0.1-0.6c-0.1-0.2-0.1-0.3-0.2-0.4c-0.1-0.1-0.2-0.2-0.4-0.3
		c-0.2-0.1-0.3-0.1-0.5-0.1h-0.5v2.8h0.4c0.4,0,0.8-0.1,1-0.4C-1436.9,1298.8-1436.8,1298.4-1436.8,1298z"/>
	<path class="st4" d="M-1434,1299.8l-0.1-0.4h0c-0.1,0.1-0.1,0.1-0.2,0.2s-0.1,0.1-0.2,0.1c-0.1,0-0.1,0.1-0.2,0.1s-0.2,0-0.3,0
		c-0.1,0-0.2,0-0.3,0c-0.1,0-0.2-0.1-0.2-0.1c-0.1-0.1-0.1-0.1-0.2-0.2c0-0.1-0.1-0.2-0.1-0.4c0-0.3,0.1-0.5,0.3-0.6
		c0.2-0.1,0.5-0.2,0.9-0.2l0.4,0v-0.2c0-0.1,0-0.2,0-0.3c0-0.1-0.1-0.1-0.1-0.2s-0.1-0.1-0.2-0.1c-0.1,0-0.1,0-0.2,0
		c-0.1,0-0.3,0-0.4,0.1c-0.1,0-0.2,0.1-0.3,0.1l-0.2-0.3c0.1-0.1,0.3-0.1,0.4-0.2c0.1,0,0.3-0.1,0.5-0.1c0.2,0,0.3,0,0.4,0
		s0.2,0.1,0.3,0.2c0.1,0.1,0.1,0.2,0.2,0.3c0,0.1,0.1,0.2,0.1,0.4v1.8H-1434z M-1434.9,1299.5c0.1,0,0.2,0,0.3,0
		c0.1,0,0.2-0.1,0.2-0.1c0.1-0.1,0.1-0.1,0.1-0.2c0-0.1,0.1-0.2,0.1-0.3v-0.2l-0.3,0c-0.1,0-0.3,0-0.4,0c-0.1,0-0.2,0.1-0.2,0.1
		c-0.1,0-0.1,0.1-0.1,0.2c0,0.1,0,0.1,0,0.2c0,0.1,0,0.3,0.1,0.3C-1435.1,1299.4-1435,1299.5-1434.9,1299.5z"/>
	<path class="st4" d="M-1432.1,1299.5C-1432.1,1299.5-1432,1299.5-1432.1,1299.5c0.1,0,0.2,0,0.2,0s0.1,0,0.1,0c0,0,0.1,0,0.1,0v0.3
		c0,0,0,0-0.1,0c0,0-0.1,0-0.1,0c0,0-0.1,0-0.1,0c0,0-0.1,0-0.1,0c-0.1,0-0.2,0-0.3,0c-0.1,0-0.2-0.1-0.2-0.1
		c-0.1-0.1-0.1-0.1-0.1-0.3c0-0.1-0.1-0.2-0.1-0.4v-1.6h-0.4v-0.2l0.4-0.2l0.2-0.6h0.3v0.6h0.7v0.3h-0.7v1.6c0,0.2,0,0.3,0.1,0.4
		C-1432.3,1299.4-1432.2,1299.5-1432.1,1299.5z"/>
	<path class="st4" d="M-1429.7,1299.8l-0.1-0.4h0c-0.1,0.1-0.1,0.1-0.2,0.2s-0.1,0.1-0.2,0.1c-0.1,0-0.1,0.1-0.2,0.1s-0.2,0-0.3,0
		c-0.1,0-0.2,0-0.3,0c-0.1,0-0.2-0.1-0.2-0.1c-0.1-0.1-0.1-0.1-0.2-0.2c0-0.1-0.1-0.2-0.1-0.4c0-0.3,0.1-0.5,0.3-0.6
		c0.2-0.1,0.5-0.2,0.9-0.2l0.4,0v-0.2c0-0.1,0-0.2,0-0.3c0-0.1-0.1-0.1-0.1-0.2c0,0-0.1-0.1-0.2-0.1c-0.1,0-0.1,0-0.2,0
		c-0.1,0-0.3,0-0.4,0.1s-0.2,0.1-0.3,0.1l-0.2-0.3c0.1-0.1,0.3-0.1,0.4-0.2c0.1,0,0.3-0.1,0.5-0.1c0.2,0,0.3,0,0.4,0
		c0.1,0,0.2,0.1,0.3,0.2s0.1,0.2,0.2,0.3c0,0.1,0.1,0.2,0.1,0.4v1.8H-1429.7z M-1430.5,1299.5c0.1,0,0.2,0,0.3,0
		c0.1,0,0.2-0.1,0.2-0.1c0.1-0.1,0.1-0.1,0.1-0.2c0-0.1,0.1-0.2,0.1-0.3v-0.2l-0.3,0c-0.1,0-0.3,0-0.4,0c-0.1,0-0.2,0.1-0.2,0.1
		c-0.1,0-0.1,0.1-0.1,0.2c0,0.1,0,0.1,0,0.2c0,0.1,0,0.3,0.1,0.3S-1430.6,1299.5-1430.5,1299.5z"/>
</g>
<g class="st5">
	<path class="st4" d="M-1480.8,1356.6h-0.9v-0.4h0.9v-1h0.4v1h0.9v0.4h-0.9v0.9h-0.4V1356.6z"/>
	<path class="st4" d="M-1477.9,1356c0.2,0,0.3,0,0.5,0.1c0.1,0,0.3,0.1,0.4,0.2c0.1,0.1,0.2,0.2,0.2,0.3s0.1,0.3,0.1,0.5
		c0,0.2,0,0.4-0.1,0.5s-0.1,0.3-0.2,0.4s-0.2,0.2-0.4,0.2c-0.2,0.1-0.3,0.1-0.6,0.1c-0.1,0-0.2,0-0.2,0c-0.1,0-0.2,0-0.2,0
		c-0.1,0-0.1,0-0.2-0.1s-0.1-0.1-0.2-0.1v-0.4c0.1,0,0.1,0.1,0.2,0.1c0.1,0,0.1,0.1,0.2,0.1s0.2,0,0.2,0c0.1,0,0.2,0,0.2,0
		c0.1,0,0.2,0,0.3,0s0.2-0.1,0.3-0.1c0.1-0.1,0.1-0.1,0.2-0.2c0-0.1,0.1-0.2,0.1-0.3c0-0.2-0.1-0.4-0.2-0.5s-0.4-0.2-0.6-0.2
		c0,0-0.1,0-0.1,0c-0.1,0-0.1,0-0.2,0c-0.1,0-0.1,0-0.1,0c0,0-0.1,0-0.1,0l-0.2-0.1l0.1-1.7h1.7v0.4h-1.3l-0.1,1c0.1,0,0.1,0,0.2,0
		C-1478.2,1356-1478.1,1356-1477.9,1356z"/>
	<path class="st4" d="M-1474.2,1354.6h0.5l-1.2,3.6h-0.5l-1.2-3.6h0.5l0.7,2.3c0,0.1,0.1,0.3,0.1,0.4s0.1,0.3,0.1,0.4
		c0-0.1,0.1-0.3,0.1-0.4s0.1-0.3,0.1-0.4L-1474.2,1354.6z"/>
</g>
<g class="st5">
	<path class="st4" d="M-1459.7,1216.5h-0.5v0.8h-0.4v-0.8h-1.6v-0.4l1.6-2.4h0.5v2.4h0.5V1216.5z M-1460.7,1216.1v-0.9
		c0-0.1,0-0.2,0-0.3c0-0.1,0-0.2,0-0.3c0-0.1,0-0.2,0-0.3c0-0.1,0-0.2,0-0.2h0c0,0,0,0.1,0,0.1c0,0,0,0.1-0.1,0.1c0,0,0,0.1-0.1,0.1
		c0,0,0,0.1-0.1,0.1l-1,1.5H-1460.7z"/>
	<path class="st4" d="M-1458.9,1217.3l1.4-3.2h-1.8v-0.4h2.3v0.4l-1.4,3.2H-1458.9z"/>
	<path class="st4" d="M-1454.8,1217.3v-1.7c0-0.2,0-0.4-0.1-0.5c-0.1-0.1-0.2-0.2-0.4-0.2c-0.1,0-0.2,0-0.3,0.1
		c-0.1,0-0.2,0.1-0.2,0.2c-0.1,0.1-0.1,0.2-0.1,0.3c0,0.1,0,0.3,0,0.4v1.4h-0.4v-2.7h0.4l0.1,0.4h0c0-0.1,0.1-0.1,0.1-0.2
		c0.1-0.1,0.1-0.1,0.2-0.1c0.1,0,0.1-0.1,0.2-0.1s0.2,0,0.2,0c0.3,0,0.5,0.1,0.7,0.2c0.2,0.2,0.2,0.4,0.2,0.7v1.8H-1454.8z"/>
	<path class="st4" d="M-1453,1217.3h-0.5v-3.6h1.9v0.4h-1.4v1.3h1.3v0.4h-1.3V1217.3z"/>
</g>
<g class="st5">
	<path d="M-1488,1321.2l-2.7,0.9v3.2l2.7,0.9v1.1l-8.6-3.1v-1l8.6-3.2V1321.2z M-1491.6,1322.5l-2.5,0.9c-0.1,0-0.2,0.1-0.3,0.1
		s-0.2,0.1-0.3,0.1s-0.2,0.1-0.4,0.1s-0.3,0.1-0.4,0.1c0.1,0,0.2,0.1,0.4,0.1s0.3,0.1,0.4,0.1s0.2,0.1,0.3,0.1s0.2,0.1,0.2,0.1
		l2.5,0.8V1322.5z"/>
	<path d="M-1494.6,1316.3c0-0.1,0-0.2,0-0.4s0-0.3,0-0.4l1,0.1c0,0.1,0,0.2,0,0.3s0,0.2,0,0.3c0,0.2,0,0.5,0.1,0.7s0.2,0.4,0.4,0.5
		s0.4,0.3,0.7,0.3s0.5,0.1,0.9,0.1h3.5v1.1h-6.4v-0.9l1.2-0.1v0c-0.2-0.1-0.3-0.2-0.5-0.3s-0.3-0.2-0.4-0.4s-0.2-0.3-0.3-0.5
		S-1494.6,1316.5-1494.6,1316.3z"/>
	<path d="M-1488.9,1310.3L-1488.9,1310.3c0.1,0.1,0.3,0.2,0.4,0.3s0.2,0.2,0.3,0.4s0.2,0.3,0.2,0.5s0.1,0.4,0.1,0.6
		c0,0.4-0.1,0.7-0.2,1s-0.4,0.6-0.6,0.8s-0.6,0.4-1,0.5s-0.9,0.2-1.4,0.2c-0.6,0-1-0.1-1.5-0.2s-0.8-0.3-1-0.5s-0.5-0.5-0.6-0.8
		s-0.2-0.6-0.2-1c0-0.2,0-0.4,0.1-0.6s0.1-0.4,0.2-0.5s0.2-0.3,0.3-0.4s0.2-0.2,0.4-0.3v-0.1c-0.1,0-0.3,0-0.4,0c-0.1,0-0.2,0-0.3,0
		s-0.2,0-0.3,0h-2.6v-1.1h9.1v0.9L-1488.9,1310.3z M-1488.8,1312c0-0.3,0-0.5-0.1-0.8s-0.2-0.4-0.4-0.5s-0.4-0.2-0.7-0.3
		s-0.6-0.1-1-0.1h-0.2c-0.4,0-0.7,0-1.1,0.1s-0.6,0.1-0.8,0.3s-0.4,0.3-0.5,0.5s-0.2,0.5-0.2,0.8c0,0.5,0.2,0.9,0.6,1.2
		s1,0.4,1.8,0.4c0.8,0,1.4-0.1,1.8-0.4S-1488.8,1312.6-1488.8,1312z"/>
	<path d="M-1488,1303.1l-0.9,0.2v0.1c0.2,0.1,0.3,0.2,0.4,0.3s0.2,0.3,0.3,0.4s0.1,0.3,0.2,0.5s0.1,0.4,0.1,0.6c0,0.4,0,0.7-0.1,0.9
		s-0.2,0.5-0.4,0.7s-0.4,0.3-0.7,0.4s-0.7,0.1-1.1,0.1h-4.2v-1.1h4.1c0.5,0,0.9-0.1,1.1-0.3s0.4-0.5,0.4-1c0-0.3-0.1-0.6-0.2-0.8
		s-0.3-0.4-0.4-0.5s-0.4-0.2-0.7-0.3s-0.6-0.1-1-0.1h-3.3v-1.1h6.4V1303.1z"/>
	<path d="M-1496.2,1300.3c-0.2,0-0.4-0.1-0.5-0.2s-0.2-0.3-0.2-0.4c0-0.1,0-0.2,0-0.2s0.1-0.1,0.1-0.2s0.1-0.1,0.2-0.1s0.2,0,0.3,0
		c0.2,0,0.4,0.1,0.5,0.2s0.2,0.3,0.2,0.4c0,0.2-0.1,0.3-0.2,0.4S-1496,1300.3-1496.2,1300.3z M-1488,1299.1v1.1h-6.4v-1.1H-1488z"/>
	<path d="M-1488,1293.1h-4.1c-0.5,0-0.9,0.1-1.1,0.3s-0.4,0.5-0.4,1c0,0.3,0.1,0.6,0.2,0.8s0.3,0.4,0.5,0.5s0.4,0.2,0.7,0.3
		s0.6,0.1,1,0.1h3.3v1.1h-6.4v-0.9l0.9-0.2v-0.1c-0.2-0.1-0.3-0.2-0.4-0.3s-0.2-0.3-0.3-0.4s-0.1-0.3-0.2-0.5s-0.1-0.4-0.1-0.6
		c0-0.7,0.2-1.3,0.6-1.6s1-0.5,1.8-0.5h4.2V1293.1z"/>
	<path d="M-1491.2,1284.8c0.5,0,1,0.1,1.4,0.2s0.8,0.3,1,0.6s0.5,0.5,0.6,0.9s0.2,0.7,0.2,1.2c0,0.4-0.1,0.8-0.2,1.1
		s-0.4,0.6-0.6,0.9s-0.6,0.4-1,0.6s-0.9,0.2-1.4,0.2c-0.5,0-1-0.1-1.4-0.2s-0.8-0.3-1-0.6s-0.5-0.5-0.6-0.9s-0.2-0.7-0.2-1.2
		c0-0.4,0.1-0.8,0.2-1.1s0.4-0.6,0.6-0.9s0.6-0.4,1-0.6S-1491.8,1284.8-1491.2,1284.8z M-1491.2,1289.3c0.8,0,1.4-0.1,1.8-0.4
		s0.6-0.7,0.6-1.3s-0.2-1-0.6-1.3s-1-0.4-1.8-0.4s-1.4,0.1-1.8,0.4s-0.6,0.7-0.6,1.3s0.2,1,0.6,1.3S-1492.1,1289.3-1491.2,1289.3z"
		/>
	<path d="M-1488,1273.4v1.3l-7.1,4.2v0c0.3,0,0.6,0,0.9-0.1c0.3,0,0.5,0,0.8,0s0.5,0,0.8,0h4.6v1h-8.6v-1.2l7.1-4.2v0
		c-0.3,0-0.6,0-0.9,0c-0.1,0-0.3,0-0.4,0s-0.3,0-0.4,0s-0.3,0-0.4,0s-0.2,0-0.3,0h-4.7v-1H-1488z"/>
	<path d="M-1488,1267.6l-0.9,0.2v0c0.2,0.1,0.3,0.3,0.5,0.4s0.2,0.3,0.3,0.4s0.1,0.3,0.2,0.5s0.1,0.4,0.1,0.7c0,0.3,0,0.5-0.1,0.7
		s-0.2,0.4-0.4,0.6s-0.4,0.3-0.6,0.4s-0.5,0.1-0.9,0.1c-0.6,0-1.1-0.2-1.5-0.7s-0.5-1.1-0.6-2.1l0-1.1h-0.4c-0.3,0-0.5,0-0.7,0.1
		s-0.3,0.1-0.4,0.2s-0.2,0.2-0.2,0.4s-0.1,0.3-0.1,0.5c0,0.3,0,0.6,0.1,0.9s0.2,0.5,0.3,0.8l-0.8,0.4c-0.2-0.3-0.3-0.6-0.4-1
		s-0.2-0.7-0.2-1.1c0-0.4,0-0.7,0.1-1s0.2-0.5,0.4-0.7s0.4-0.3,0.7-0.4s0.6-0.1,1-0.1h4.4V1267.6z M-1488.8,1269.6
		c0-0.2,0-0.5-0.1-0.7s-0.2-0.4-0.3-0.5s-0.3-0.3-0.6-0.3s-0.5-0.1-0.8-0.1h-0.6l0,0.8c0,0.4,0.1,0.6,0.1,0.9s0.1,0.4,0.3,0.6
		s0.2,0.2,0.4,0.3s0.3,0.1,0.5,0.1c0.4,0,0.6-0.1,0.8-0.3S-1488.8,1269.9-1488.8,1269.6z"/>
	<path d="M-1488,1260.9h-4.1c-0.5,0-0.9,0.1-1.1,0.3s-0.4,0.5-0.4,1c0,0.3,0.1,0.6,0.2,0.8s0.3,0.4,0.5,0.5s0.4,0.2,0.7,0.3
		s0.6,0.1,1,0.1h3.3v1.1h-6.4v-0.9l0.9-0.2v-0.1c-0.2-0.1-0.3-0.2-0.4-0.3s-0.2-0.3-0.3-0.4s-0.1-0.3-0.2-0.5s-0.1-0.4-0.1-0.6
		c0-0.7,0.2-1.3,0.6-1.6s1-0.5,1.8-0.5h4.2V1260.9z"/>
	<path d="M-1491.2,1252.6c0.5,0,1,0.1,1.4,0.2s0.8,0.3,1,0.6s0.5,0.5,0.6,0.9s0.2,0.7,0.2,1.2c0,0.4-0.1,0.8-0.2,1.1
		s-0.4,0.6-0.6,0.9s-0.6,0.4-1,0.6s-0.9,0.2-1.4,0.2c-0.5,0-1-0.1-1.4-0.2s-0.8-0.3-1-0.6s-0.5-0.5-0.6-0.9s-0.2-0.7-0.2-1.2
		c0-0.4,0.1-0.8,0.2-1.1s0.4-0.6,0.6-0.9s0.6-0.4,1-0.6S-1491.8,1252.6-1491.2,1252.6z M-1491.2,1257.1c0.8,0,1.4-0.1,1.8-0.4
		s0.6-0.7,0.6-1.3s-0.2-1-0.6-1.3s-1-0.4-1.8-0.4s-1.4,0.1-1.8,0.4s-0.6,0.7-0.6,1.3s0.2,1,0.6,1.3S-1492.1,1257.1-1491.2,1257.1z"
		/>
	<path d="M-1488,1246.6l-6.4,2.2v-1.1l3.6-1.2c0.1,0,0.3-0.1,0.5-0.2s0.4-0.1,0.6-0.2s0.4-0.1,0.6-0.2s0.3-0.1,0.4-0.1v0
		c-0.1,0-0.2-0.1-0.4-0.1s-0.4-0.1-0.6-0.2s-0.4-0.1-0.6-0.2s-0.4-0.1-0.5-0.2l-3.6-1.2v-1.1l6.4,2.2V1246.6z"/>
	<path d="M-1494.6,1237.4c0.3,0,0.5,0,0.8,0.1s0.4,0.2,0.6,0.4s0.3,0.4,0.4,0.6s0.2,0.5,0.2,0.8h0c0.1-0.7,0.3-1.2,0.7-1.6
		s0.8-0.5,1.4-0.5c0.4,0,0.7,0.1,1,0.2s0.6,0.3,0.8,0.6s0.4,0.6,0.5,1s0.2,0.9,0.2,1.4c0,0.4,0,0.8-0.1,1.2s-0.2,0.7-0.4,1.1h-1
		c0.2-0.3,0.3-0.7,0.4-1.1s0.1-0.8,0.1-1.1c0-0.4,0-0.7-0.1-0.9s-0.2-0.5-0.3-0.6s-0.3-0.3-0.5-0.4s-0.4-0.1-0.7-0.1
		c-0.3,0-0.5,0.1-0.7,0.2s-0.3,0.3-0.5,0.4s-0.2,0.4-0.3,0.7s-0.1,0.6-0.1,0.9v0.8h-0.9v-0.8c0-0.3,0-0.6-0.1-0.8s-0.2-0.5-0.3-0.6
		s-0.3-0.3-0.5-0.4s-0.4-0.1-0.7-0.1c-0.2,0-0.4,0-0.5,0.1s-0.3,0.2-0.4,0.3s-0.2,0.3-0.3,0.5s-0.1,0.4-0.1,0.6
		c0,0.4,0.1,0.8,0.2,1.1s0.3,0.6,0.5,0.9l-0.7,0.5c-0.1-0.1-0.2-0.3-0.3-0.5s-0.2-0.4-0.3-0.6s-0.1-0.4-0.2-0.7s-0.1-0.5-0.1-0.8
		c0-0.4,0.1-0.8,0.2-1.1s0.3-0.6,0.4-0.8s0.4-0.4,0.7-0.5S-1494.9,1237.4-1494.6,1237.4z"/>
</g>
<g class="st5">
	<path d="M-1408.1,1347.9h-3.1v-0.6l1-0.2v-6.9l-1-0.2v-0.6h3.1v0.6l-1,0.2v6.9l1,0.2V1347.9z"/>
	<path d="M-1401.7,1347.9h-5.3v-0.9l2.1-2.2c0.3-0.3,0.6-0.6,0.8-0.9s0.4-0.5,0.6-0.8s0.3-0.5,0.4-0.8s0.1-0.5,0.1-0.8
		c0-0.2,0-0.4-0.1-0.6s-0.2-0.3-0.3-0.4s-0.3-0.2-0.4-0.3s-0.4-0.1-0.6-0.1c-0.4,0-0.7,0.1-1,0.2s-0.6,0.3-0.9,0.6l-0.6-0.7
		c0.2-0.1,0.3-0.3,0.5-0.4s0.4-0.2,0.6-0.3s0.4-0.2,0.7-0.2s0.5-0.1,0.7-0.1c0.4,0,0.7,0.1,1,0.2s0.6,0.3,0.8,0.5s0.4,0.4,0.5,0.7
		s0.2,0.6,0.2,1c0,0.3-0.1,0.6-0.2,0.9s-0.2,0.6-0.4,0.9s-0.4,0.6-0.7,0.9s-0.5,0.6-0.8,0.9l-1.6,1.8v0h4V1347.9z"/>
	<path d="M-1396.3,1340.1c-0.4,0-0.8,0.1-1.1,0.2s-0.6,0.4-0.9,0.7s-0.4,0.7-0.6,1.1s-0.2,0.9-0.2,1.4c0,0.6,0.1,1,0.2,1.5
		s0.3,0.8,0.5,1.1s0.5,0.5,0.9,0.7s0.7,0.2,1.2,0.2c0.3,0,0.7,0,1-0.1s0.6-0.1,0.9-0.2v0.9c-0.2,0.1-0.3,0.1-0.5,0.2
		s-0.3,0.1-0.5,0.1s-0.3,0-0.5,0.1s-0.4,0-0.6,0c-0.6,0-1.2-0.1-1.7-0.3s-0.9-0.5-1.2-0.9s-0.5-0.9-0.7-1.4s-0.2-1.1-0.2-1.8
		c0-0.6,0.1-1.2,0.3-1.8s0.4-1,0.8-1.4s0.7-0.7,1.2-0.9s1-0.3,1.7-0.3c0.4,0,0.8,0,1.2,0.1s0.7,0.2,1,0.4l-0.5,0.9
		c-0.2-0.1-0.5-0.2-0.8-0.3S-1396,1340.1-1396.3,1340.1z"/>
	<path d="M-1389.5,1347.9v-8.6h1.1v7.6h3.4v1H-1389.5z"/>
	<path d="M-1380.2,1340.1c-0.4,0-0.8,0.1-1.1,0.2s-0.6,0.4-0.9,0.7s-0.4,0.7-0.6,1.1s-0.2,0.9-0.2,1.4c0,0.6,0.1,1,0.2,1.5
		s0.3,0.8,0.5,1.1s0.5,0.5,0.9,0.7s0.7,0.2,1.2,0.2c0.3,0,0.7,0,1-0.1s0.6-0.1,0.9-0.2v0.9c-0.2,0.1-0.3,0.1-0.5,0.2
		s-0.3,0.1-0.5,0.1s-0.3,0-0.5,0.1s-0.4,0-0.6,0c-0.6,0-1.2-0.1-1.7-0.3s-0.9-0.5-1.2-0.9s-0.5-0.9-0.7-1.4s-0.2-1.1-0.2-1.8
		c0-0.6,0.1-1.2,0.3-1.8s0.4-1,0.8-1.4s0.7-0.7,1.2-0.9s1-0.3,1.7-0.3c0.4,0,0.8,0,1.2,0.1s0.7,0.2,1,0.4l-0.5,0.9
		c-0.2-0.1-0.5-0.2-0.8-0.3S-1379.8,1340.1-1380.2,1340.1z"/>
	<path d="M-1370.1,1343.5c0,0.7-0.1,1.4-0.3,1.9s-0.5,1-0.8,1.4s-0.8,0.6-1.3,0.8s-1.1,0.3-1.8,0.3h-2.1v-8.6h2.4
		c0.6,0,1.1,0.1,1.6,0.3s0.9,0.4,1.2,0.8s0.6,0.8,0.8,1.3S-1370.1,1342.8-1370.1,1343.5z M-1371.3,1343.5c0-0.6-0.1-1.1-0.2-1.5
		s-0.3-0.8-0.6-1s-0.5-0.5-0.9-0.6s-0.8-0.2-1.2-0.2h-1.2v6.7h0.9c1,0,1.8-0.3,2.3-0.9S-1371.3,1344.6-1371.3,1343.5z"/>
</g>
<g class="st5">
	<path d="M-1412,1310.9h-1.3l-4.2-7.1h0c0,0.3,0,0.6,0.1,0.9c0,0.3,0,0.5,0,0.8s0,0.5,0,0.8v4.6h-1v-8.6h1.2l4.2,7.1h0
		c0-0.3,0-0.6,0-0.9c0-0.1,0-0.3,0-0.4s0-0.3,0-0.4s0-0.3,0-0.4s0-0.2,0-0.3v-4.7h1V1310.9z"/>
	<path d="M-1407.2,1311c-0.4,0-0.8-0.1-1.2-0.2s-0.7-0.4-0.9-0.6s-0.5-0.6-0.6-1s-0.2-0.9-0.2-1.4c0-0.5,0.1-1,0.2-1.4
		s0.3-0.8,0.5-1.1s0.5-0.5,0.8-0.7s0.7-0.2,1.1-0.2c0.4,0,0.7,0.1,1,0.2s0.6,0.3,0.8,0.6s0.4,0.6,0.5,0.9s0.2,0.7,0.2,1.2v0.7h-4.1
		c0,0.8,0.2,1.3,0.5,1.7s0.7,0.5,1.3,0.5c0.2,0,0.4,0,0.6,0s0.3,0,0.5-0.1s0.3-0.1,0.5-0.1s0.3-0.1,0.5-0.2v0.9
		c-0.2,0.1-0.3,0.1-0.5,0.2s-0.3,0.1-0.5,0.1s-0.3,0.1-0.5,0.1S-1407,1311-1407.2,1311z M-1407.5,1305.2c-0.4,0-0.8,0.2-1.1,0.5
		s-0.4,0.7-0.5,1.3h2.9c0-0.3,0-0.5-0.1-0.7s-0.1-0.4-0.2-0.6s-0.3-0.3-0.4-0.4S-1407.2,1305.2-1407.5,1305.2z"/>
	<path d="M-1398.1,1307.6c0,0.5-0.1,1-0.2,1.4s-0.3,0.8-0.6,1s-0.5,0.5-0.9,0.6s-0.7,0.2-1.2,0.2c-0.4,0-0.8-0.1-1.1-0.2
		s-0.6-0.4-0.9-0.6s-0.4-0.6-0.6-1s-0.2-0.9-0.2-1.4c0-0.5,0.1-1,0.2-1.4s0.3-0.8,0.6-1s0.5-0.5,0.9-0.6s0.7-0.2,1.2-0.2
		c0.4,0,0.8,0.1,1.1,0.2s0.6,0.4,0.9,0.6s0.4,0.6,0.6,1S-1398.1,1307.1-1398.1,1307.6z M-1402.6,1307.6c0,0.8,0.1,1.4,0.4,1.8
		s0.7,0.6,1.3,0.6s1-0.2,1.3-0.6s0.4-1,0.4-1.8s-0.1-1.4-0.4-1.8s-0.7-0.6-1.3-0.6s-1,0.2-1.3,0.6S-1402.6,1306.8-1402.6,1307.6z"/>
	<path d="M-1393.5,1311c-0.2,0-0.4,0-0.6-0.1s-0.4-0.1-0.5-0.2s-0.3-0.2-0.4-0.3s-0.2-0.2-0.3-0.4h-0.1c0,0.1,0,0.3,0,0.4
		c0,0.1,0,0.2,0,0.3s0,0.2,0,0.3v2.7h-1.1v-9.3h0.9l0.2,0.9h0c0.1-0.1,0.2-0.3,0.3-0.4s0.2-0.2,0.4-0.3s0.3-0.2,0.5-0.2
		s0.4-0.1,0.6-0.1c0.4,0,0.7,0.1,1,0.2s0.6,0.4,0.8,0.6s0.4,0.6,0.5,1s0.2,0.9,0.2,1.4c0,0.6-0.1,1-0.2,1.5s-0.3,0.8-0.5,1
		s-0.5,0.5-0.8,0.6S-1393.1,1311-1393.5,1311z M-1393.7,1305.2c-0.3,0-0.5,0-0.8,0.1s-0.4,0.2-0.5,0.4s-0.2,0.4-0.3,0.7
		s-0.1,0.6-0.1,1v0.2c0,0.4,0,0.7,0.1,1.1s0.1,0.6,0.3,0.8s0.3,0.4,0.5,0.5s0.5,0.2,0.8,0.2c0.5,0,0.9-0.2,1.2-0.6s0.4-1,0.4-1.8
		c0-0.8-0.1-1.4-0.4-1.8S-1393.2,1305.2-1393.7,1305.2z"/>
	<path d="M-1389.5,1302.7c0-0.2,0.1-0.4,0.2-0.5s0.3-0.2,0.4-0.2c0.1,0,0.2,0,0.2,0s0.1,0.1,0.2,0.1s0.1,0.1,0.1,0.2s0,0.2,0,0.3
		c0,0.2-0.1,0.4-0.2,0.5s-0.3,0.2-0.4,0.2c-0.2,0-0.3-0.1-0.4-0.2S-1389.5,1302.9-1389.5,1302.7z M-1388.3,1310.9h-1.1v-6.4h1.1
		V1310.9z"/>
	<path d="M-1384.9,1307.6l-2.1-3.1h1.2l1.5,2.4l1.5-2.4h1.2l-2.1,3.1l2.2,3.3h-1.2l-1.6-2.6l-1.6,2.6h-1.2L-1384.9,1307.6z"/>
	<path d="M-1377.7,1311c-0.4,0-0.8-0.1-1.2-0.2s-0.7-0.4-0.9-0.6s-0.5-0.6-0.6-1s-0.2-0.9-0.2-1.4c0-0.5,0.1-1,0.2-1.4
		s0.3-0.8,0.5-1.1s0.5-0.5,0.8-0.7s0.7-0.2,1.1-0.2c0.4,0,0.7,0.1,1,0.2s0.6,0.3,0.8,0.6s0.4,0.6,0.5,0.9s0.2,0.7,0.2,1.2v0.7h-4.1
		c0,0.8,0.2,1.3,0.5,1.7s0.7,0.5,1.3,0.5c0.2,0,0.4,0,0.6,0s0.3,0,0.5-0.1s0.3-0.1,0.5-0.1s0.3-0.1,0.5-0.2v0.9
		c-0.2,0.1-0.3,0.1-0.5,0.2s-0.3,0.1-0.5,0.1s-0.3,0.1-0.5,0.1S-1377.5,1311-1377.7,1311z M-1378,1305.2c-0.4,0-0.8,0.2-1.1,0.5
		s-0.4,0.7-0.5,1.3h2.9c0-0.3,0-0.5-0.1-0.7s-0.1-0.4-0.2-0.6s-0.3-0.3-0.4-0.4S-1377.8,1305.2-1378,1305.2z"/>
	<path d="M-1372.8,1310.9h-1.1v-9.1h1.1V1310.9z"/>
	<path d="M-1366.9,1309.1c0,0.3-0.1,0.6-0.2,0.8s-0.3,0.4-0.5,0.6s-0.5,0.3-0.8,0.4s-0.6,0.1-1,0.1c-0.4,0-0.8,0-1.1-0.1
		s-0.6-0.2-0.8-0.3v-1c0.1,0.1,0.3,0.1,0.4,0.2s0.3,0.1,0.5,0.2s0.3,0.1,0.5,0.1s0.3,0,0.5,0c0.3,0,0.5,0,0.6-0.1s0.3-0.1,0.4-0.2
		s0.2-0.2,0.2-0.3s0.1-0.2,0.1-0.4c0-0.1,0-0.2-0.1-0.3s-0.1-0.2-0.2-0.3s-0.2-0.2-0.4-0.3s-0.4-0.2-0.7-0.3s-0.5-0.2-0.8-0.4
		s-0.4-0.2-0.6-0.4s-0.3-0.3-0.4-0.5s-0.1-0.4-0.1-0.7c0-0.3,0.1-0.5,0.2-0.7s0.3-0.4,0.5-0.5s0.4-0.3,0.7-0.3s0.6-0.1,0.9-0.1
		c0.4,0,0.7,0,1,0.1s0.6,0.2,0.9,0.3l-0.4,0.9c-0.3-0.1-0.5-0.2-0.8-0.3s-0.5-0.1-0.8-0.1c-0.4,0-0.7,0.1-0.9,0.2s-0.3,0.3-0.3,0.6
		c0,0.1,0,0.3,0.1,0.4s0.1,0.2,0.2,0.3s0.3,0.2,0.4,0.3s0.4,0.2,0.7,0.3c0.3,0.1,0.5,0.2,0.8,0.4s0.4,0.2,0.6,0.4s0.3,0.3,0.4,0.5
		S-1366.9,1308.8-1366.9,1309.1z"/>
</g>
</svg>
