<?xml version="1.0" encoding="utf-8"?>
<!-- Generator: Adobe Illustrator 19.0.0, SVG Export Plug-In . SVG Version: 6.00 Build 0)  -->
<svg version="1.1" id="Layer_1" xmlns="http://www.w3.org/2000/svg" xmlns:xlink="http://www.w3.org/1999/xlink" x="0px" y="0px"
	 viewBox="-1558 1134.7 283.5 283.5" style="enable-background:new -1558 1134.7 283.5 283.5;" xml:space="preserve">
<style type="text/css">
	.st0{fill:#D1D3D4;stroke:#808285;}
	.st1{fill:#FFFFFF;stroke:#000000;stroke-width:0.7087;stroke-linecap:round;stroke-linejoin:round;}
	.st2{fill:none;stroke:#000000;stroke-width:0.7087;stroke-linecap:round;}
	.st3{fill:none;stroke:#000000;stroke-width:0.7087;stroke-linecap:round;stroke-linejoin:round;}
	.st4{fill:#010101;}
	.st5{enable-background:new    ;}
</style>
<g id="XMLID_102_">
	<rect id="XMLID_7_" x="-1330.6" y="1266.5" class="st0" width="23.9" height="42.4"/>
	<rect id="XMLID_6_" x="-1525.8" y="1215.9" class="st0" width="41.6" height="124.7"/>
	<polygon id="XMLID_161_" class="st1" points="-1403.8,1302.8 -1375,1288.4 -1403.8,1274 	"/>
	<line id="XMLID_160_" class="st2" x1="-1400.2" y1="1297.4" x2="-1400.2" y2="1293.8"/>
	<line id="XMLID_159_" class="st2" x1="-1402" y1="1295.6" x2="-1398.4" y2="1295.6"/>
	<line id="XMLID_158_" class="st2" x1="-1402" y1="1281.2" x2="-1398.4" y2="1281.2"/>
	<line id="XMLID_14_" class="st2" x1="-1396.6" y1="1317.2" x2="-1396.6" y2="1299.4"/>
	<line id="XMLID_157_" class="st2" x1="-1396.6" y1="1277.3" x2="-1396.6" y2="1274"/>
	<line id="connector2pin" class="st2" x1="-1411" y1="1295.6" x2="-1403.8" y2="1295.6"/>
	<line id="connector3pin" class="st2" x1="-1411" y1="1281.2" x2="-1403.8" y2="1281.2"/>
	<line id="connector0pin" class="st2" x1="-1367.8" y1="1288.4" x2="-1375" y2="1288.4"/>
	<line id="connector0pin_1_" class="st3" x1="-1396.6" y1="1274" x2="-1396.6" y2="1259.4"/>
	<polyline id="XMLID_156_" class="st3" points="-1394.7,1252.7 -1396.6,1256.9 -1398.6,1252.7 	"/>
	<line id="line" class="st3" x1="-1396.6" y1="1256.7" x2="-1396.6" y2="1262"/>
	<polyline id="XMLID_155_" class="st3" points="-1489.9,1308 -1485.7,1310 -1489.9,1311.9 	"/>
	<line id="line_1_" class="st3" x1="-1485.9" y1="1310" x2="-1480.6" y2="1310"/>
	<line id="connector0pin_3_" class="st3" x1="-1476.2" y1="1281.2" x2="-1483.2" y2="1281.2"/>
	<polyline id="XMLID_154_" class="st3" points="-1489.9,1279.2 -1485.7,1281.2 -1489.9,1283.1 	"/>
	<line id="line_2_" class="st3" x1="-1485.9" y1="1281.2" x2="-1480.6" y2="1281.2"/>
	<line id="connector0pin_4_" class="st3" x1="-1476.2" y1="1295.6" x2="-1483.2" y2="1295.6"/>
	<polyline id="XMLID_153_" class="st3" points="-1489.9,1293.6 -1485.7,1295.6 -1489.9,1297.5 	"/>
	<line id="line_3_" class="st3" x1="-1485.9" y1="1295.6" x2="-1480.6" y2="1295.6"/>
	<polyline id="XMLID_42_" class="st3" points="-1325,1286.4 -1329.1,1288.4 -1325,1290.3 	"/>
	<line id="line_4_" class="st3" x1="-1329" y1="1288.4" x2="-1334.3" y2="1288.4"/>
	<line id="connector0pin_6_" class="st3" x1="-1338.7" y1="1274" x2="-1331.7" y2="1274"/>
	<polyline id="XMLID_41_" class="st3" points="-1325,1272 -1329.1,1274 -1325,1275.9 	"/>
	<line id="line_5_" class="st3" x1="-1329" y1="1274" x2="-1334.3" y2="1274"/>
	<polyline id="XMLID_40_" class="st3" points="-1325,1300.8 -1329.1,1302.8 -1325,1304.7 	"/>
	<line id="line_6_" class="st3" x1="-1329" y1="1302.8" x2="-1334.3" y2="1302.8"/>
	<line id="connector0pin_8_" class="st3" x1="-1432.6" y1="1230.4" x2="-1432.6" y2="1223.4"/>
	<polyline id="XMLID_152_" class="st3" points="-1430.7,1216.7 -1432.6,1220.9 -1434.6,1216.7 	"/>
	<line id="line_7_" class="st3" x1="-1432.6" y1="1220.7" x2="-1432.6" y2="1226"/>
	<path id="path4098" class="st2" d="M-1482.5,1317.2h13.4"/>
	<path id="path4100" class="st2" d="M-1480.3,1319.9h8.9"/>
	<path id="path4102" class="st2" d="M-1473.6,1322.7h-4.5"/>
	<path id="connector0pin_10_" class="st2" d="M-1432.6,1335.1v-7.2"/>
	<path id="path4098_1_" class="st2" d="M-1439.3,1335.2h13.4"/>
	<path id="path4100_1_" class="st2" d="M-1437.1,1337.9h8.9"/>
	<path id="path4102_1_" class="st2" d="M-1430.4,1340.7h-4.5"/>
	<path id="connector0pin_11_" class="st2" d="M-1339.1,1309.9v-7.1h7.4"/>
	<path id="path4098_2_" class="st2" d="M-1345.8,1310h13.4"/>
	<path id="path4100_2_" class="st2" d="M-1343.5,1312.7h8.9"/>
	<path id="path4102_2_" class="st2" d="M-1336.9,1315.5h-4.5"/>
	<path id="path4098_3_" class="st2" d="M-1403.3,1317.2h13.4"/>
	<path id="path4100_3_" class="st2" d="M-1401.1,1319.9h8.9"/>
	<path id="path4102_3_" class="st2" d="M-1394.4,1322.7h-4.5"/>
	<line id="XMLID_39_" class="st2" x1="-1360.6" y1="1288.4" x2="-1359.6" y2="1285.5"/>
	<line id="XMLID_38_" class="st2" x1="-1359.6" y1="1285.5" x2="-1357.8" y2="1291.2"/>
	<line id="XMLID_37_" class="st2" x1="-1357.8" y1="1291.2" x2="-1356" y2="1285.5"/>
	<line id="XMLID_36_" class="st2" x1="-1356" y1="1285.5" x2="-1354.2" y2="1291.2"/>
	<line id="XMLID_35_" class="st2" x1="-1354.2" y1="1291.2" x2="-1352.4" y2="1285.5"/>
	<line id="XMLID_34_" class="st2" x1="-1352.4" y1="1285.5" x2="-1350.6" y2="1291.2"/>
	<line id="XMLID_33_" class="st2" x1="-1350.6" y1="1291.2" x2="-1348.8" y2="1285.5"/>
	<line id="XMLID_32_" class="st2" x1="-1348.8" y1="1285.5" x2="-1347" y2="1291.2"/>
	<line id="XMLID_31_" class="st2" x1="-1347" y1="1291.2" x2="-1346.2" y2="1288.4"/>
	<polyline id="connector1pin_1_" class="st2" points="-1346.2,1288.4 -1339,1288.4 -1338.7,1288.4 -1331.7,1288.4 	"/>
	<line id="connector0pin_13_" class="st2" x1="-1367.8" y1="1288.4" x2="-1360.6" y2="1288.4"/>
	<line id="XMLID_151_" class="st2" x1="-1468.6" y1="1295.6" x2="-1467.6" y2="1292.7"/>
	<line id="XMLID_150_" class="st2" x1="-1467.6" y1="1292.7" x2="-1465.8" y2="1298.4"/>
	<line id="XMLID_149_" class="st2" x1="-1465.8" y1="1298.4" x2="-1464" y2="1292.7"/>
	<line id="XMLID_148_" class="st2" x1="-1464" y1="1292.7" x2="-1462.2" y2="1298.4"/>
	<line id="XMLID_147_" class="st2" x1="-1462.2" y1="1298.4" x2="-1460.4" y2="1292.7"/>
	<line id="XMLID_146_" class="st2" x1="-1460.4" y1="1292.7" x2="-1458.6" y2="1298.4"/>
	<line id="XMLID_145_" class="st2" x1="-1458.6" y1="1298.4" x2="-1456.8" y2="1292.7"/>
	<line id="XMLID_144_" class="st2" x1="-1456.8" y1="1292.7" x2="-1455" y2="1298.4"/>
	<line id="XMLID_143_" class="st2" x1="-1455" y1="1298.4" x2="-1454.2" y2="1295.6"/>
	<line id="connector1pin_2_" class="st2" x1="-1447" y1="1295.6" x2="-1454.2" y2="1295.6"/>
	<line id="connector0pin_14_" class="st2" x1="-1475.8" y1="1295.6" x2="-1468.6" y2="1295.6"/>
	<line id="XMLID_142_" class="st2" x1="-1432.6" y1="1234.4" x2="-1429.8" y2="1235.4"/>
	<line id="XMLID_141_" class="st2" x1="-1429.8" y1="1235.4" x2="-1435.5" y2="1237.2"/>
	<line id="XMLID_140_" class="st2" x1="-1435.5" y1="1237.2" x2="-1429.8" y2="1239"/>
	<line id="XMLID_139_" class="st2" x1="-1429.8" y1="1239" x2="-1435.5" y2="1240.8"/>
	<line id="XMLID_138_" class="st2" x1="-1435.5" y1="1240.8" x2="-1429.8" y2="1242.6"/>
	<line id="XMLID_137_" class="st2" x1="-1429.8" y1="1242.6" x2="-1435.5" y2="1244.4"/>
	<line id="XMLID_136_" class="st2" x1="-1435.5" y1="1244.4" x2="-1429.8" y2="1246.2"/>
	<line id="XMLID_135_" class="st2" x1="-1429.8" y1="1246.2" x2="-1435.5" y2="1248"/>
	<line id="XMLID_134_" class="st2" x1="-1435.5" y1="1248" x2="-1432.6" y2="1248.8"/>
	<line id="connector1pin_3_" class="st2" x1="-1432.6" y1="1256" x2="-1432.6" y2="1248.8"/>
	<line id="connector0pin_15_" class="st2" x1="-1432.6" y1="1227.2" x2="-1432.6" y2="1234.4"/>
	<line id="XMLID_133_" class="st2" x1="-1432.6" y1="1310" x2="-1429.8" y2="1311"/>
	<line id="XMLID_132_" class="st2" x1="-1429.8" y1="1311" x2="-1435.5" y2="1312.8"/>
	<line id="XMLID_131_" class="st2" x1="-1435.5" y1="1312.8" x2="-1429.8" y2="1314.6"/>
	<line id="XMLID_130_" class="st2" x1="-1429.8" y1="1314.6" x2="-1435.5" y2="1316.4"/>
	<line id="XMLID_129_" class="st2" x1="-1435.5" y1="1316.4" x2="-1429.8" y2="1318.2"/>
	<line id="XMLID_128_" class="st2" x1="-1429.8" y1="1318.2" x2="-1435.5" y2="1320"/>
	<line id="XMLID_127_" class="st2" x1="-1435.5" y1="1320" x2="-1429.8" y2="1321.8"/>
	<line id="XMLID_126_" class="st2" x1="-1429.8" y1="1321.8" x2="-1435.5" y2="1323.6"/>
	<line id="XMLID_125_" class="st2" x1="-1435.5" y1="1323.6" x2="-1432.6" y2="1324.4"/>
	<line id="connector1pin_4_" class="st2" x1="-1432.6" y1="1331.6" x2="-1432.6" y2="1324.4"/>
	<line id="XMLID_124_" class="st2" x1="-1432.6" y1="1259.6" x2="-1429.8" y2="1260.6"/>
	<line id="XMLID_123_" class="st2" x1="-1429.8" y1="1260.6" x2="-1435.5" y2="1262.4"/>
	<line id="XMLID_122_" class="st2" x1="-1435.5" y1="1262.4" x2="-1429.8" y2="1264.2"/>
	<line id="XMLID_121_" class="st2" x1="-1429.8" y1="1264.2" x2="-1435.5" y2="1266"/>
	<line id="XMLID_120_" class="st2" x1="-1435.5" y1="1266" x2="-1429.8" y2="1267.8"/>
	<line id="XMLID_119_" class="st2" x1="-1429.8" y1="1267.8" x2="-1435.5" y2="1269.6"/>
	<line id="XMLID_118_" class="st2" x1="-1435.5" y1="1269.6" x2="-1429.8" y2="1271.4"/>
	<line id="XMLID_117_" class="st2" x1="-1429.8" y1="1271.4" x2="-1435.5" y2="1273.2"/>
	<line id="XMLID_116_" class="st2" x1="-1435.5" y1="1273.2" x2="-1432.6" y2="1274"/>
	<line id="connector1pin_5_" class="st2" x1="-1432.6" y1="1281.2" x2="-1432.6" y2="1274"/>
	<line id="connector0pin_17_" class="st2" x1="-1432.6" y1="1252.4" x2="-1432.6" y2="1259.6"/>
	<line id="XMLID_54_" class="st2" x1="-1400.2" y1="1341.1" x2="-1399.2" y2="1338.2"/>
	<line id="XMLID_53_" class="st2" x1="-1399.2" y1="1338.2" x2="-1397.4" y2="1343.9"/>
	<line id="XMLID_52_" class="st2" x1="-1397.4" y1="1343.9" x2="-1395.6" y2="1338.2"/>
	<line id="XMLID_51_" class="st2" x1="-1395.6" y1="1338.2" x2="-1393.8" y2="1343.9"/>
	<line id="XMLID_50_" class="st2" x1="-1393.8" y1="1343.9" x2="-1392" y2="1338.2"/>
	<line id="XMLID_49_" class="st2" x1="-1392" y1="1338.2" x2="-1390.2" y2="1343.9"/>
	<line id="XMLID_48_" class="st2" x1="-1390.2" y1="1343.9" x2="-1388.4" y2="1338.2"/>
	<line id="XMLID_47_" class="st2" x1="-1388.4" y1="1338.2" x2="-1386.6" y2="1343.9"/>
	<line id="XMLID_46_" class="st2" x1="-1386.6" y1="1343.9" x2="-1385.8" y2="1341.1"/>
	<line id="connector1pin_6_" class="st2" x1="-1378.6" y1="1341.1" x2="-1385.8" y2="1341.1"/>
	<circle id="XMLID_115_" class="st4" cx="-1371.4" cy="1288.4" r="1.4"/>
	<polyline id="XMLID_17_" class="st2" points="-1378.6,1341.1 -1371.5,1341 -1371.4,1288.4 	"/>
	<line id="XMLID_114_" class="st2" x1="-1418.3" y1="1295.6" x2="-1407.4" y2="1295.6"/>
	<circle id="XMLID_113_" class="st4" cx="-1418.3" cy="1295.6" r="1.4"/>
	<line id="XMLID_112_" class="st2" x1="-1418.3" y1="1295.6" x2="-1447" y2="1295.6"/>
	<line id="XMLID_111_" class="st2" x1="-1411" y1="1281.2" x2="-1432.6" y2="1281.2"/>
	<circle id="XMLID_110_" class="st4" cx="-1432.6" cy="1281.2" r="1.4"/>
	<line id="XMLID_109_" class="st2" x1="-1432.6" y1="1256" x2="-1432.6" y2="1252.4"/>
	<line id="XMLID_108_" class="st2" x1="-1396.6" y1="1266.8" x2="-1396.6" y2="1266.8"/>
	<circle id="XMLID_107_" class="st4" cx="-1371.4" cy="1288.4" r="1.4"/>
	<polyline id="XMLID_15_" class="st2" points="-1483.2,1310 -1475.8,1310 -1475.8,1310 -1475.8,1317.1 	"/>
	<line id="XMLID_106_" class="st2" x1="-1475.8" y1="1295.6" x2="-1475.8" y2="1295.6"/>
	<line id="XMLID_105_" class="st2" x1="-1432.6" y1="1227.2" x2="-1432.6" y2="1230.8"/>
	<circle id="XMLID_104_" class="st4" cx="-1432.6" cy="1281.2" r="1.4"/>
	<line id="XMLID_103_" class="st2" x1="-1432.6" y1="1328" x2="-1432.6" y2="1331.6"/>
	<g class="st5">
		<path class="st4" d="M-1497.3,1296.5h-0.5v-3.2h-1v-0.4h2.5v0.4h-1V1296.5z"/>
		<path class="st4" d="M-1495.8,1296.5v-3.6h0.5v3.2h1.4v0.4H-1495.8z"/>
	</g>
	<g class="st5">
		<path class="st4" d="M-1321.3,1273.1h-0.9v-0.4h0.9v-1h0.4v1h0.9v0.4h-0.9v0.9h-0.4V1273.1z"/>
		<path class="st4" d="M-1318.4,1272.5c0.2,0,0.3,0,0.5,0.1c0.1,0,0.3,0.1,0.4,0.2c0.1,0.1,0.2,0.2,0.2,0.3s0.1,0.3,0.1,0.5
			c0,0.2,0,0.4-0.1,0.5c-0.1,0.1-0.1,0.3-0.2,0.4c-0.1,0.1-0.2,0.2-0.4,0.2s-0.3,0.1-0.6,0.1c-0.1,0-0.2,0-0.2,0c-0.1,0-0.2,0-0.2,0
			s-0.1,0-0.2-0.1c-0.1,0-0.1-0.1-0.2-0.1v-0.4c0.1,0,0.1,0.1,0.2,0.1c0.1,0,0.1,0.1,0.2,0.1c0.1,0,0.2,0,0.2,0c0.1,0,0.2,0,0.2,0
			c0.1,0,0.2,0,0.3,0c0.1,0,0.2-0.1,0.3-0.1c0.1-0.1,0.1-0.1,0.2-0.2c0-0.1,0.1-0.2,0.1-0.3c0-0.2-0.1-0.4-0.2-0.5
			c-0.1-0.1-0.4-0.2-0.6-0.2c0,0-0.1,0-0.1,0c-0.1,0-0.1,0-0.2,0c-0.1,0-0.1,0-0.1,0c0,0-0.1,0-0.1,0l-0.2-0.1l0.1-1.7h1.7v0.4h-1.3
			l-0.1,1c0.1,0,0.1,0,0.2,0C-1318.6,1272.5-1318.5,1272.5-1318.4,1272.5z"/>
		<path class="st4" d="M-1314.6,1271.1h0.5l-1.2,3.6h-0.5l-1.2-3.6h0.5l0.7,2.3c0,0.1,0.1,0.3,0.1,0.4s0.1,0.3,0.1,0.4
			c0-0.1,0.1-0.3,0.1-0.4c0-0.1,0.1-0.3,0.1-0.4L-1314.6,1271.1z"/>
	</g>
	<g class="st5">
		<path class="st4" d="M-1400.1,1247.6h-0.9v-0.4h0.9v-1h0.4v1h0.9v0.4h-0.9v0.9h-0.4V1247.6z"/>
		<path class="st4" d="M-1397.2,1247c0.2,0,0.3,0,0.5,0.1c0.1,0,0.3,0.1,0.4,0.2s0.2,0.2,0.2,0.3s0.1,0.3,0.1,0.5
			c0,0.2,0,0.4-0.1,0.5c-0.1,0.1-0.1,0.3-0.2,0.4c-0.1,0.1-0.2,0.2-0.4,0.2c-0.2,0.1-0.3,0.1-0.6,0.1c-0.1,0-0.2,0-0.2,0
			c-0.1,0-0.2,0-0.2,0c-0.1,0-0.1,0-0.2-0.1c-0.1,0-0.1-0.1-0.2-0.1v-0.4c0.1,0,0.1,0.1,0.2,0.1s0.1,0.1,0.2,0.1c0.1,0,0.2,0,0.2,0
			c0.1,0,0.2,0,0.2,0c0.1,0,0.2,0,0.3,0c0.1,0,0.2-0.1,0.3-0.1c0.1-0.1,0.1-0.1,0.2-0.2c0-0.1,0.1-0.2,0.1-0.3
			c0-0.2-0.1-0.4-0.2-0.5c-0.1-0.1-0.4-0.2-0.6-0.2c0,0-0.1,0-0.1,0c-0.1,0-0.1,0-0.2,0c-0.1,0-0.1,0-0.1,0c0,0-0.1,0-0.1,0
			l-0.2-0.1l0.1-1.7h1.7v0.4h-1.3l-0.1,1c0.1,0,0.1,0,0.2,0C-1397.4,1247-1397.3,1247-1397.2,1247z"/>
		<path class="st4" d="M-1393.4,1245.6h0.5l-1.2,3.6h-0.5l-1.2-3.6h0.5l0.7,2.3c0,0.1,0.1,0.3,0.1,0.4s0.1,0.3,0.1,0.4
			c0-0.1,0.1-0.3,0.1-0.4c0-0.1,0.1-0.3,0.1-0.4L-1393.4,1245.6z"/>
	</g>
	<g class="st5">
		<path class="st4" d="M-1501.2,1280.3h-0.9v-0.4h0.9v-1h0.4v1h0.9v0.4h-0.9v0.9h-0.4V1280.3z"/>
		<path class="st4" d="M-1498.3,1279.7c0.2,0,0.3,0,0.5,0.1c0.1,0,0.3,0.1,0.4,0.2c0.1,0.1,0.2,0.2,0.2,0.3s0.1,0.3,0.1,0.5
			c0,0.2,0,0.4-0.1,0.5c-0.1,0.1-0.1,0.3-0.2,0.4c-0.1,0.1-0.2,0.2-0.4,0.2s-0.3,0.1-0.6,0.1c-0.1,0-0.2,0-0.2,0c-0.1,0-0.2,0-0.2,0
			s-0.1,0-0.2-0.1c-0.1,0-0.1-0.1-0.2-0.1v-0.4c0.1,0,0.1,0.1,0.2,0.1c0.1,0,0.1,0.1,0.2,0.1c0.1,0,0.2,0,0.2,0c0.1,0,0.2,0,0.2,0
			c0.1,0,0.2,0,0.3,0c0.1,0,0.2-0.1,0.3-0.1c0.1-0.1,0.1-0.1,0.2-0.2c0-0.1,0.1-0.2,0.1-0.3c0-0.2-0.1-0.4-0.2-0.5
			c-0.1-0.1-0.4-0.2-0.6-0.2c0,0-0.1,0-0.1,0c-0.1,0-0.1,0-0.2,0c-0.1,0-0.1,0-0.1,0c0,0-0.1,0-0.1,0l-0.2-0.1l0.1-1.7h1.7v0.4h-1.3
			l-0.1,1c0.1,0,0.1,0,0.2,0C-1498.5,1279.7-1498.4,1279.7-1498.3,1279.7z"/>
		<path class="st4" d="M-1494.5,1278.3h0.5l-1.2,3.6h-0.5l-1.2-3.6h0.5l0.7,2.3c0,0.1,0.1,0.3,0.1,0.4s0.1,0.3,0.1,0.4
			c0-0.1,0.1-0.3,0.1-0.4c0-0.1,0.1-0.3,0.1-0.4L-1494.5,1278.3z"/>
	</g>
	<g class="st5">
		<path class="st4" d="M-1500.5,1310.2h1.2v1.8c-0.1,0-0.2,0.1-0.3,0.1c-0.1,0-0.2,0-0.3,0.1c-0.1,0-0.2,0-0.3,0c-0.1,0-0.2,0-0.3,0
			c-0.3,0-0.5,0-0.7-0.1c-0.2-0.1-0.4-0.2-0.5-0.4c-0.1-0.2-0.2-0.4-0.3-0.6c-0.1-0.2-0.1-0.5-0.1-0.8c0-0.3,0-0.5,0.1-0.8
			c0.1-0.2,0.2-0.4,0.3-0.6c0.1-0.2,0.3-0.3,0.5-0.4c0.2-0.1,0.5-0.1,0.7-0.1c0.2,0,0.4,0,0.5,0.1s0.3,0.1,0.5,0.2l-0.2,0.4
			c-0.1,0-0.1-0.1-0.2-0.1c-0.1,0-0.1,0-0.2-0.1c-0.1,0-0.1,0-0.2,0c-0.1,0-0.2,0-0.2,0c-0.2,0-0.4,0-0.5,0.1
			c-0.2,0.1-0.3,0.2-0.4,0.3c-0.1,0.1-0.2,0.3-0.2,0.5s-0.1,0.4-0.1,0.6c0,0.2,0,0.4,0.1,0.6s0.1,0.3,0.2,0.5s0.2,0.2,0.4,0.3
			c0.2,0.1,0.3,0.1,0.6,0.1c0.1,0,0.1,0,0.2,0s0.1,0,0.2,0c0,0,0.1,0,0.1,0c0,0,0.1,0,0.1,0v-1.1h-0.7V1310.2z"/>
		<path class="st4" d="M-1495.8,1312.1h-0.5l-1.8-3h0c0,0.1,0,0.3,0,0.4c0,0.1,0,0.2,0,0.3s0,0.2,0,0.3v1.9h-0.4v-3.6h0.5l1.7,2.9h0
			c0-0.1,0-0.2,0-0.4c0-0.1,0-0.1,0-0.2c0-0.1,0-0.1,0-0.2c0-0.1,0-0.1,0-0.2s0-0.1,0-0.1v-2h0.4V1312.1z"/>
		<path class="st4" d="M-1492.2,1310.3c0,0.3,0,0.6-0.1,0.8c-0.1,0.2-0.2,0.4-0.3,0.6c-0.1,0.2-0.3,0.3-0.5,0.3
			c-0.2,0.1-0.5,0.1-0.7,0.1h-0.9v-3.6h1c0.2,0,0.5,0,0.7,0.1c0.2,0.1,0.4,0.2,0.5,0.3c0.1,0.1,0.3,0.3,0.3,0.5
			C-1492.2,1309.8-1492.2,1310-1492.2,1310.3z M-1492.7,1310.3c0-0.2,0-0.4-0.1-0.6s-0.1-0.3-0.2-0.4c-0.1-0.1-0.2-0.2-0.4-0.3
			c-0.2-0.1-0.3-0.1-0.5-0.1h-0.5v2.8h0.4c0.4,0,0.8-0.1,1-0.4C-1492.8,1311.1-1492.7,1310.8-1492.7,1310.3z"/>
	</g>
	<g class="st5">
		<path class="st4" d="M-1436.1,1211.6h-0.9v-0.4h0.9v-1h0.4v1h0.9v0.4h-0.9v0.9h-0.4V1211.6z"/>
		<path class="st4" d="M-1433.2,1211c0.2,0,0.3,0,0.5,0.1c0.1,0,0.3,0.1,0.4,0.2c0.1,0.1,0.2,0.2,0.2,0.3s0.1,0.3,0.1,0.5
			c0,0.2,0,0.4-0.1,0.5s-0.1,0.3-0.2,0.4s-0.2,0.2-0.4,0.2c-0.2,0.1-0.3,0.1-0.6,0.1c-0.1,0-0.2,0-0.2,0c-0.1,0-0.2,0-0.2,0
			c-0.1,0-0.1,0-0.2-0.1s-0.1-0.1-0.2-0.1v-0.4c0.1,0,0.1,0.1,0.2,0.1c0.1,0,0.1,0.1,0.2,0.1s0.2,0,0.2,0c0.1,0,0.2,0,0.2,0
			c0.1,0,0.2,0,0.3,0s0.2-0.1,0.3-0.1c0.1-0.1,0.1-0.1,0.2-0.2c0-0.1,0.1-0.2,0.1-0.3c0-0.2-0.1-0.4-0.2-0.5s-0.4-0.2-0.6-0.2
			c0,0-0.1,0-0.1,0c-0.1,0-0.1,0-0.2,0c-0.1,0-0.1,0-0.1,0c0,0-0.1,0-0.1,0l-0.2-0.1l0.1-1.7h1.7v0.4h-1.3l-0.1,1c0.1,0,0.1,0,0.2,0
			C-1433.4,1211-1433.3,1211-1433.2,1211z"/>
		<path class="st4" d="M-1429.4,1209.6h0.5l-1.2,3.6h-0.5l-1.2-3.6h0.5l0.7,2.3c0,0.1,0.1,0.3,0.1,0.4s0.1,0.3,0.1,0.4
			c0-0.1,0.1-0.3,0.1-0.4s0.1-0.3,0.1-0.4L-1429.4,1209.6z"/>
	</g>
	<g class="st5">
		<path class="st4" d="M-1321.3,1289.6h-0.5v-3.2h-1v-0.4h2.5v0.4h-1V1289.6z"/>
		<path class="st4" d="M-1319.9,1286.2c0-0.1,0-0.2,0.1-0.2c0.1,0,0.1-0.1,0.2-0.1c0,0,0.1,0,0.1,0c0,0,0.1,0,0.1,0s0,0.1,0.1,0.1
			s0,0.1,0,0.1c0,0.1,0,0.2-0.1,0.2c-0.1,0-0.1,0.1-0.2,0.1c-0.1,0-0.1,0-0.2-0.1C-1319.9,1286.4-1319.9,1286.3-1319.9,1286.2z
			 M-1319.4,1289.6h-0.4v-2.7h0.4V1289.6z"/>
		<path class="st4" d="M-1315.4,1289.6v-1.7c0-0.2,0-0.4-0.1-0.5s-0.2-0.2-0.4-0.2c-0.1,0-0.2,0-0.3,0.1c-0.1,0-0.2,0.1-0.2,0.2
			c-0.1,0.1-0.1,0.2-0.1,0.3c0,0.1,0,0.2,0,0.4v1.5h-0.4v-1.7c0-0.2,0-0.4-0.1-0.5c-0.1-0.1-0.2-0.2-0.4-0.2c-0.1,0-0.2,0-0.3,0.1
			c-0.1,0-0.2,0.1-0.2,0.2s-0.1,0.2-0.1,0.3c0,0.1,0,0.3,0,0.4v1.4h-0.4v-2.7h0.4l0.1,0.4h0c0-0.1,0.1-0.1,0.1-0.2
			c0.1-0.1,0.1-0.1,0.2-0.1c0.1,0,0.1-0.1,0.2-0.1s0.1,0,0.2,0c0.2,0,0.4,0,0.5,0.1c0.1,0.1,0.2,0.2,0.3,0.3h0
			c0-0.1,0.1-0.1,0.2-0.2c0.1-0.1,0.1-0.1,0.2-0.1c0.1,0,0.1-0.1,0.2-0.1c0.1,0,0.2,0,0.2,0c0.3,0,0.5,0.1,0.6,0.2s0.2,0.4,0.2,0.7
			v1.8H-1315.4z"/>
		<path class="st4" d="M-1313,1289.6c-0.2,0-0.3,0-0.5-0.1c-0.1-0.1-0.3-0.1-0.4-0.3c-0.1-0.1-0.2-0.3-0.2-0.4
			c-0.1-0.2-0.1-0.4-0.1-0.6c0-0.2,0-0.4,0.1-0.6s0.1-0.3,0.2-0.4s0.2-0.2,0.4-0.3c0.1-0.1,0.3-0.1,0.5-0.1c0.2,0,0.3,0,0.4,0.1
			c0.1,0.1,0.2,0.1,0.3,0.2c0.1,0.1,0.2,0.2,0.2,0.4c0,0.1,0.1,0.3,0.1,0.5v0.3h-1.7c0,0.3,0.1,0.5,0.2,0.7c0.1,0.1,0.3,0.2,0.6,0.2
			c0.1,0,0.2,0,0.2,0c0.1,0,0.1,0,0.2,0c0.1,0,0.1,0,0.2-0.1c0.1,0,0.1-0.1,0.2-0.1v0.4c-0.1,0-0.1,0.1-0.2,0.1
			c-0.1,0-0.1,0-0.2,0.1c-0.1,0-0.1,0-0.2,0C-1312.9,1289.6-1312.9,1289.6-1313,1289.6z M-1313.1,1287.2c-0.2,0-0.3,0.1-0.4,0.2
			s-0.2,0.3-0.2,0.6h1.2c0-0.1,0-0.2,0-0.3c0-0.1-0.1-0.2-0.1-0.2c0-0.1-0.1-0.1-0.2-0.2C-1312.9,1287.2-1313,1287.2-1313.1,1287.2z
			"/>
		<path class="st4" d="M-1310.2,1286.9c0,0,0.1,0,0.2,0s0.1,0,0.2,0l-0.1,0.4c0,0-0.1,0-0.1,0s-0.1,0-0.1,0c-0.1,0-0.2,0-0.3,0.1
			c-0.1,0-0.2,0.1-0.2,0.2c-0.1,0.1-0.1,0.2-0.1,0.3s0,0.2,0,0.4v1.4h-0.4v-2.7h0.4l0.1,0.5h0c0-0.1,0.1-0.1,0.1-0.2
			c0-0.1,0.1-0.1,0.2-0.2s0.1-0.1,0.2-0.1C-1310.4,1286.9-1310.3,1286.9-1310.2,1286.9z"/>
	</g>
	<g class="st5">
		<path class="st4" d="M-1321.4,1302.8h1.2v1.8c-0.1,0-0.2,0.1-0.3,0.1c-0.1,0-0.2,0-0.3,0.1c-0.1,0-0.2,0-0.3,0c-0.1,0-0.2,0-0.3,0
			c-0.3,0-0.5,0-0.7-0.1c-0.2-0.1-0.4-0.2-0.5-0.4c-0.1-0.2-0.2-0.4-0.3-0.6c-0.1-0.2-0.1-0.5-0.1-0.8c0-0.3,0-0.5,0.1-0.8
			c0.1-0.2,0.2-0.4,0.3-0.6c0.1-0.2,0.3-0.3,0.5-0.4c0.2-0.1,0.5-0.1,0.7-0.1c0.2,0,0.4,0,0.5,0.1c0.2,0,0.3,0.1,0.5,0.2l-0.2,0.4
			c-0.1,0-0.1-0.1-0.2-0.1c-0.1,0-0.1,0-0.2-0.1c-0.1,0-0.1,0-0.2,0s-0.2,0-0.2,0c-0.2,0-0.4,0-0.5,0.1c-0.2,0.1-0.3,0.2-0.4,0.3
			c-0.1,0.1-0.2,0.3-0.2,0.5c-0.1,0.2-0.1,0.4-0.1,0.6c0,0.2,0,0.4,0.1,0.6s0.1,0.3,0.2,0.5s0.2,0.2,0.4,0.3
			c0.2,0.1,0.3,0.1,0.6,0.1c0.1,0,0.1,0,0.2,0c0.1,0,0.1,0,0.2,0s0.1,0,0.1,0c0,0,0.1,0,0.1,0v-1.1h-0.7V1302.8z"/>
		<path class="st4" d="M-1316.7,1304.6h-0.5l-1.8-3h0c0,0.1,0,0.3,0,0.4c0,0.1,0,0.2,0,0.3c0,0.1,0,0.2,0,0.3v1.9h-0.4v-3.6h0.5
			l1.7,2.9h0c0-0.1,0-0.2,0-0.4c0-0.1,0-0.1,0-0.2c0-0.1,0-0.1,0-0.2c0-0.1,0-0.1,0-0.2c0-0.1,0-0.1,0-0.1v-2h0.4V1304.6z"/>
		<path class="st4" d="M-1313.1,1302.8c0,0.3,0,0.6-0.1,0.8c-0.1,0.2-0.2,0.4-0.3,0.6s-0.3,0.3-0.5,0.3c-0.2,0.1-0.5,0.1-0.7,0.1
			h-0.9v-3.6h1c0.3,0,0.5,0,0.7,0.1s0.4,0.2,0.5,0.3c0.1,0.1,0.3,0.3,0.3,0.5C-1313.1,1302.3-1313.1,1302.5-1313.1,1302.8z
			 M-1313.6,1302.8c0-0.2,0-0.4-0.1-0.6c-0.1-0.2-0.1-0.3-0.2-0.4c-0.1-0.1-0.2-0.2-0.4-0.3s-0.3-0.1-0.5-0.1h-0.5v2.8h0.4
			c0.4,0,0.8-0.1,1-0.4S-1313.6,1303.3-1313.6,1302.8z"/>
	</g>
	<g class="st5">
		<path class="st4" d="M-1356.3,1281.2c0,0.1,0,0.2-0.1,0.3c0,0.1-0.1,0.2-0.2,0.3c-0.1,0.1-0.1,0.1-0.2,0.2c-0.1,0-0.2,0.1-0.3,0.1
			v0c0.3,0,0.5,0.1,0.7,0.3c0.2,0.1,0.2,0.3,0.2,0.6c0,0.2,0,0.3-0.1,0.4s-0.1,0.2-0.2,0.3s-0.2,0.2-0.4,0.2
			c-0.2,0.1-0.4,0.1-0.6,0.1c-0.2,0-0.3,0-0.5,0c-0.2,0-0.3-0.1-0.4-0.2v-0.4c0.1,0.1,0.3,0.1,0.5,0.2c0.2,0,0.3,0.1,0.5,0.1
			c0.1,0,0.3,0,0.4,0c0.1,0,0.2-0.1,0.3-0.1c0.1-0.1,0.1-0.1,0.2-0.2c0-0.1,0.1-0.2,0.1-0.3c0-0.1,0-0.2-0.1-0.3
			c0-0.1-0.1-0.1-0.2-0.2c-0.1-0.1-0.2-0.1-0.3-0.1c-0.1,0-0.2,0-0.4,0h-0.3v-0.4h0.3c0.1,0,0.2,0,0.4,0c0.1,0,0.2-0.1,0.3-0.1
			s0.1-0.1,0.2-0.2c0-0.1,0.1-0.2,0.1-0.3c0-0.1,0-0.2,0-0.2c0-0.1-0.1-0.1-0.1-0.2c-0.1,0-0.1-0.1-0.2-0.1c-0.1,0-0.2,0-0.2,0
			c-0.2,0-0.3,0-0.5,0.1s-0.3,0.1-0.4,0.2l-0.2-0.3c0.1-0.1,0.1-0.1,0.2-0.1c0.1,0,0.2-0.1,0.2-0.1c0.1,0,0.2-0.1,0.3-0.1
			s0.2,0,0.3,0c0.2,0,0.3,0,0.5,0.1s0.2,0.1,0.3,0.2c0.1,0.1,0.2,0.2,0.2,0.3C-1356.3,1281-1356.3,1281.1-1356.3,1281.2z"/>
		<path class="st4" d="M-1353.6,1281.2c0,0.1,0,0.2-0.1,0.3c0,0.1-0.1,0.2-0.2,0.3c-0.1,0.1-0.1,0.1-0.2,0.2c-0.1,0-0.2,0.1-0.3,0.1
			v0c0.3,0,0.5,0.1,0.7,0.3c0.2,0.1,0.2,0.3,0.2,0.6c0,0.2,0,0.3-0.1,0.4s-0.1,0.2-0.2,0.3s-0.2,0.2-0.4,0.2
			c-0.2,0.1-0.4,0.1-0.6,0.1c-0.2,0-0.3,0-0.5,0c-0.2,0-0.3-0.1-0.4-0.2v-0.4c0.1,0.1,0.3,0.1,0.5,0.2c0.2,0,0.3,0.1,0.5,0.1
			c0.1,0,0.3,0,0.4,0c0.1,0,0.2-0.1,0.3-0.1c0.1-0.1,0.1-0.1,0.2-0.2c0-0.1,0.1-0.2,0.1-0.3c0-0.1,0-0.2-0.1-0.3
			c0-0.1-0.1-0.1-0.2-0.2c-0.1-0.1-0.2-0.1-0.3-0.1c-0.1,0-0.2,0-0.4,0h-0.3v-0.4h0.3c0.1,0,0.2,0,0.4,0c0.1,0,0.2-0.1,0.3-0.1
			s0.1-0.1,0.2-0.2c0-0.1,0.1-0.2,0.1-0.3c0-0.1,0-0.2,0-0.2c0-0.1-0.1-0.1-0.1-0.2c-0.1,0-0.1-0.1-0.2-0.1c-0.1,0-0.2,0-0.2,0
			c-0.2,0-0.3,0-0.5,0.1s-0.3,0.1-0.4,0.2l-0.2-0.3c0.1-0.1,0.1-0.1,0.2-0.1c0.1,0,0.2-0.1,0.2-0.1c0.1,0,0.2-0.1,0.3-0.1
			s0.2,0,0.3,0c0.2,0,0.3,0,0.5,0.1s0.2,0.1,0.3,0.2c0.1,0.1,0.2,0.2,0.2,0.3C-1353.6,1281-1353.6,1281.1-1353.6,1281.2z"/>
		<path class="st4" d="M-1351.3,1280.7c-0.2,0-0.3,0-0.5,0.1c-0.1,0.1-0.2,0.1-0.3,0.2c-0.1,0.1-0.2,0.2-0.2,0.4
			c0,0.2-0.1,0.3-0.1,0.5c0,0.2,0,0.3,0,0.5s0.1,0.3,0.1,0.4c0.1,0.1,0.2,0.3,0.3,0.4s0.2,0.2,0.4,0.3v0.4h-1.4v-0.4h0.9
			c-0.1-0.1-0.2-0.2-0.3-0.3c-0.1-0.1-0.2-0.2-0.2-0.4c-0.1-0.1-0.1-0.3-0.2-0.4c0-0.2-0.1-0.3-0.1-0.5c0-0.2,0-0.5,0.1-0.7
			c0.1-0.2,0.2-0.4,0.3-0.5c0.1-0.1,0.3-0.2,0.5-0.3c0.2-0.1,0.4-0.1,0.7-0.1c0.3,0,0.5,0,0.7,0.1c0.2,0.1,0.4,0.2,0.5,0.3
			c0.1,0.1,0.2,0.3,0.3,0.5c0.1,0.2,0.1,0.4,0.1,0.7c0,0.2,0,0.4-0.1,0.5c0,0.2-0.1,0.3-0.2,0.4c-0.1,0.1-0.1,0.3-0.2,0.4
			c-0.1,0.1-0.2,0.2-0.3,0.3h0.9v0.4h-1.4v-0.4c0.2-0.1,0.3-0.2,0.4-0.3c0.1-0.1,0.2-0.3,0.3-0.4c0.1-0.1,0.1-0.3,0.1-0.4
			c0-0.2,0-0.3,0-0.5c0-0.2,0-0.4-0.1-0.5c0-0.2-0.1-0.3-0.2-0.4c-0.1-0.1-0.2-0.2-0.3-0.2
			C-1350.9,1280.7-1351.1,1280.7-1351.3,1280.7z"/>
	</g>
	<g class="st5">
		<path class="st4" d="M-1446.7,1319.1h-2.2v-0.4l0.9-0.9c0.1-0.1,0.2-0.3,0.3-0.4c0.1-0.1,0.2-0.2,0.2-0.3s0.1-0.2,0.2-0.3
			c0-0.1,0.1-0.2,0.1-0.3c0-0.1,0-0.2,0-0.3c0-0.1-0.1-0.1-0.1-0.2c-0.1-0.1-0.1-0.1-0.2-0.1c-0.1,0-0.1,0-0.2,0
			c-0.2,0-0.3,0-0.4,0.1c-0.1,0.1-0.2,0.1-0.4,0.2l-0.2-0.3c0.1-0.1,0.1-0.1,0.2-0.2c0.1-0.1,0.2-0.1,0.2-0.1c0.1,0,0.2-0.1,0.3-0.1
			c0.1,0,0.2,0,0.3,0c0.2,0,0.3,0,0.4,0.1c0.1,0,0.2,0.1,0.3,0.2s0.2,0.2,0.2,0.3s0.1,0.3,0.1,0.4c0,0.1,0,0.3-0.1,0.4
			c0,0.1-0.1,0.2-0.2,0.4c-0.1,0.1-0.2,0.2-0.3,0.4c-0.1,0.1-0.2,0.2-0.3,0.4l-0.7,0.7v0h1.7V1319.1z"/>
		<path class="st4" d="M-1446,1318.9c0-0.1,0-0.1,0-0.2c0,0,0-0.1,0.1-0.1c0,0,0.1,0,0.1-0.1c0,0,0.1,0,0.1,0c0,0,0.1,0,0.1,0
			c0,0,0.1,0,0.1,0.1c0,0,0,0.1,0.1,0.1c0,0,0,0.1,0,0.2c0,0.1,0,0.1,0,0.2c0,0,0,0.1-0.1,0.1c0,0-0.1,0-0.1,0.1c0,0-0.1,0-0.1,0
			c0,0-0.1,0-0.1,0c0,0-0.1,0-0.1-0.1c0,0,0-0.1-0.1-0.1C-1446,1319-1446,1318.9-1446,1318.9z"/>
		<path class="st4" d="M-1444.4,1319.1l1.4-3.2h-1.8v-0.4h2.3v0.4l-1.4,3.2H-1444.4z"/>
		<path class="st4" d="M-1441.5,1317.7l0.3-0.4l0.7-0.9h0.5l-1,1.2l1,1.5h-0.5l-0.8-1.2l-0.3,0.2v1h-0.4v-3.8h0.4v1.7
			L-1441.5,1317.7L-1441.5,1317.7z"/>
		<path class="st4" d="M-1438,1315.9c-0.2,0-0.3,0-0.5,0.1c-0.1,0.1-0.2,0.1-0.3,0.2c-0.1,0.1-0.2,0.2-0.2,0.4
			c0,0.2-0.1,0.3-0.1,0.5c0,0.2,0,0.3,0,0.5s0.1,0.3,0.1,0.4c0.1,0.1,0.2,0.3,0.3,0.4s0.2,0.2,0.4,0.3v0.4h-1.4v-0.4h0.9
			c-0.1-0.1-0.2-0.2-0.3-0.3c-0.1-0.1-0.2-0.2-0.2-0.4c-0.1-0.1-0.1-0.3-0.2-0.4c0-0.2-0.1-0.3-0.1-0.5c0-0.2,0-0.5,0.1-0.7
			c0.1-0.2,0.2-0.4,0.3-0.5c0.1-0.1,0.3-0.2,0.5-0.3c0.2-0.1,0.4-0.1,0.7-0.1c0.3,0,0.5,0,0.7,0.1c0.2,0.1,0.4,0.2,0.5,0.3
			c0.1,0.1,0.2,0.3,0.3,0.5c0.1,0.2,0.1,0.4,0.1,0.7c0,0.2,0,0.4-0.1,0.5c0,0.2-0.1,0.3-0.2,0.4c-0.1,0.1-0.1,0.3-0.2,0.4
			c-0.1,0.1-0.2,0.2-0.3,0.3h0.9v0.4h-1.4v-0.4c0.2-0.1,0.3-0.2,0.4-0.3c0.1-0.1,0.2-0.3,0.3-0.4c0.1-0.1,0.1-0.3,0.1-0.4
			c0-0.2,0-0.3,0-0.5c0-0.2,0-0.4-0.1-0.5c0-0.2-0.1-0.3-0.2-0.4c-0.1-0.1-0.2-0.2-0.3-0.2
			C-1437.6,1315.9-1437.8,1315.9-1438,1315.9z"/>
	</g>
	<g class="st5">
		<path class="st4" d="M-1426.6,1268.7h-2.2v-0.4l0.9-0.9c0.1-0.1,0.2-0.3,0.3-0.4c0.1-0.1,0.2-0.2,0.2-0.3c0.1-0.1,0.1-0.2,0.2-0.3
			c0-0.1,0.1-0.2,0.1-0.3c0-0.1,0-0.2,0-0.3c0-0.1-0.1-0.1-0.1-0.2c-0.1-0.1-0.1-0.1-0.2-0.1c-0.1,0-0.1,0-0.2,0
			c-0.2,0-0.3,0-0.4,0.1c-0.1,0.1-0.2,0.1-0.4,0.2l-0.2-0.3c0.1-0.1,0.1-0.1,0.2-0.2c0.1-0.1,0.2-0.1,0.2-0.1c0.1,0,0.2-0.1,0.3-0.1
			c0.1,0,0.2,0,0.3,0c0.2,0,0.3,0,0.4,0.1c0.1,0,0.2,0.1,0.3,0.2s0.2,0.2,0.2,0.3c0,0.1,0.1,0.3,0.1,0.4c0,0.1,0,0.3-0.1,0.4
			c0,0.1-0.1,0.2-0.2,0.4c-0.1,0.1-0.2,0.2-0.3,0.4c-0.1,0.1-0.2,0.2-0.3,0.4l-0.7,0.7v0h1.7V1268.7z"/>
		<path class="st4" d="M-1423.8,1268.7h-2.2v-0.4l0.9-0.9c0.1-0.1,0.2-0.3,0.3-0.4c0.1-0.1,0.2-0.2,0.2-0.3c0.1-0.1,0.1-0.2,0.2-0.3
			c0-0.1,0.1-0.2,0.1-0.3c0-0.1,0-0.2,0-0.3c0-0.1-0.1-0.1-0.1-0.2c-0.1-0.1-0.1-0.1-0.2-0.1c-0.1,0-0.1,0-0.2,0
			c-0.2,0-0.3,0-0.4,0.1c-0.1,0.1-0.2,0.1-0.4,0.2l-0.2-0.3c0.1-0.1,0.1-0.1,0.2-0.2c0.1-0.1,0.2-0.1,0.2-0.1c0.1,0,0.2-0.1,0.3-0.1
			c0.1,0,0.2,0,0.3,0c0.2,0,0.3,0,0.4,0.1c0.1,0,0.2,0.1,0.3,0.2s0.2,0.2,0.2,0.3c0,0.1,0.1,0.3,0.1,0.4c0,0.1,0,0.3-0.1,0.4
			c0,0.1-0.1,0.2-0.2,0.4c-0.1,0.1-0.2,0.2-0.3,0.4c-0.1,0.1-0.2,0.2-0.3,0.4l-0.7,0.7v0h1.7V1268.7z"/>
		<path class="st4" d="M-1421,1266.9c0,0.3,0,0.5-0.1,0.8c0,0.2-0.1,0.4-0.2,0.6c-0.1,0.2-0.2,0.3-0.4,0.4c-0.1,0.1-0.3,0.1-0.5,0.1
			c-0.2,0-0.4,0-0.5-0.1c-0.1-0.1-0.3-0.2-0.4-0.4c-0.1-0.2-0.2-0.4-0.2-0.6c0-0.2-0.1-0.5-0.1-0.8c0-0.3,0-0.5,0.1-0.8
			c0-0.2,0.1-0.4,0.2-0.6c0.1-0.2,0.2-0.3,0.4-0.4c0.1-0.1,0.3-0.1,0.5-0.1c0.2,0,0.4,0,0.5,0.1s0.3,0.2,0.4,0.4s0.2,0.3,0.2,0.6
			C-1421.1,1266.4-1421,1266.6-1421,1266.9z M-1422.9,1266.9c0,0.2,0,0.5,0,0.6c0,0.2,0.1,0.3,0.1,0.5s0.1,0.2,0.2,0.3
			c0.1,0.1,0.2,0.1,0.3,0.1s0.2,0,0.3-0.1s0.2-0.2,0.2-0.3c0.1-0.1,0.1-0.3,0.1-0.5c0-0.2,0-0.4,0-0.6c0-0.2,0-0.5,0-0.6
			c0-0.2-0.1-0.3-0.1-0.5c-0.1-0.1-0.1-0.2-0.2-0.3s-0.2-0.1-0.3-0.1s-0.2,0-0.3,0.1c-0.1,0.1-0.2,0.2-0.2,0.3
			c-0.1,0.1-0.1,0.3-0.1,0.5C-1422.8,1266.5-1422.9,1266.7-1422.9,1266.9z"/>
		<path class="st4" d="M-1418.9,1265.5c-0.2,0-0.3,0-0.5,0.1c-0.1,0.1-0.2,0.1-0.3,0.2c-0.1,0.1-0.1,0.2-0.2,0.4
			c0,0.2-0.1,0.3-0.1,0.5c0,0.2,0,0.3,0,0.5c0,0.2,0.1,0.3,0.1,0.4c0.1,0.1,0.2,0.3,0.3,0.4c0.1,0.1,0.2,0.2,0.4,0.3v0.4h-1.4v-0.4
			h0.9c-0.1-0.1-0.2-0.2-0.3-0.3c-0.1-0.1-0.2-0.2-0.2-0.4s-0.1-0.3-0.2-0.4s-0.1-0.3-0.1-0.5c0-0.2,0-0.5,0.1-0.7
			c0.1-0.2,0.2-0.4,0.3-0.5c0.1-0.1,0.3-0.2,0.5-0.3s0.4-0.1,0.7-0.1c0.3,0,0.5,0,0.7,0.1c0.2,0.1,0.4,0.2,0.5,0.3
			c0.1,0.1,0.2,0.3,0.3,0.5c0.1,0.2,0.1,0.4,0.1,0.7c0,0.2,0,0.4-0.1,0.5s-0.1,0.3-0.2,0.4s-0.1,0.3-0.2,0.4
			c-0.1,0.1-0.2,0.2-0.3,0.3h0.9v0.4h-1.4v-0.4c0.2-0.1,0.3-0.2,0.4-0.3c0.1-0.1,0.2-0.3,0.3-0.4c0.1-0.1,0.1-0.3,0.1-0.4
			c0-0.2,0-0.3,0-0.5c0-0.2,0-0.4-0.1-0.5c0-0.2-0.1-0.3-0.2-0.4c-0.1-0.1-0.2-0.2-0.3-0.2
			C-1418.6,1265.5-1418.7,1265.5-1418.9,1265.5z"/>
	</g>
	<g class="st5">
		<path class="st4" d="M-1426.5,1242.6h-2.2v-0.4l0.9-0.9c0.1-0.1,0.2-0.3,0.3-0.4c0.1-0.1,0.2-0.2,0.2-0.3c0.1-0.1,0.1-0.2,0.2-0.3
			c0-0.1,0.1-0.2,0.1-0.3c0-0.1,0-0.2,0-0.3c0-0.1-0.1-0.1-0.1-0.2c-0.1-0.1-0.1-0.1-0.2-0.1c-0.1,0-0.1,0-0.2,0
			c-0.2,0-0.3,0-0.4,0.1c-0.1,0.1-0.2,0.1-0.4,0.2l-0.2-0.3c0.1-0.1,0.1-0.1,0.2-0.2c0.1-0.1,0.2-0.1,0.2-0.1c0.1,0,0.2-0.1,0.3-0.1
			c0.1,0,0.2,0,0.3,0c0.2,0,0.3,0,0.4,0.1c0.1,0,0.2,0.1,0.3,0.2s0.2,0.2,0.2,0.3c0,0.1,0.1,0.3,0.1,0.4c0,0.1,0,0.3-0.1,0.4
			c0,0.1-0.1,0.2-0.2,0.4c-0.1,0.1-0.2,0.2-0.3,0.4c-0.1,0.1-0.2,0.2-0.3,0.4l-0.7,0.7v0h1.7V1242.6z"/>
		<path class="st4" d="M-1425.8,1242.4c0-0.1,0-0.1,0-0.2s0-0.1,0.1-0.1c0,0,0.1,0,0.1-0.1c0,0,0.1,0,0.1,0c0,0,0.1,0,0.1,0
			c0,0,0.1,0,0.1,0.1c0,0,0,0.1,0.1,0.1s0,0.1,0,0.2c0,0.1,0,0.1,0,0.2s0,0.1-0.1,0.1s-0.1,0-0.1,0.1c0,0-0.1,0-0.1,0
			c0,0-0.1,0-0.1,0c0,0-0.1,0-0.1-0.1s0-0.1-0.1-0.1S-1425.8,1242.4-1425.8,1242.4z"/>
		<path class="st4" d="M-1422.4,1242.6h-2.2v-0.4l0.9-0.9c0.1-0.1,0.2-0.3,0.3-0.4c0.1-0.1,0.2-0.2,0.2-0.3c0.1-0.1,0.1-0.2,0.2-0.3
			c0-0.1,0.1-0.2,0.1-0.3c0-0.1,0-0.2,0-0.3c0-0.1-0.1-0.1-0.1-0.2c-0.1-0.1-0.1-0.1-0.2-0.1c-0.1,0-0.1,0-0.2,0
			c-0.2,0-0.3,0-0.4,0.1c-0.1,0.1-0.2,0.1-0.4,0.2l-0.2-0.3c0.1-0.1,0.1-0.1,0.2-0.2c0.1-0.1,0.2-0.1,0.2-0.1c0.1,0,0.2-0.1,0.3-0.1
			c0.1,0,0.2,0,0.3,0c0.2,0,0.3,0,0.4,0.1c0.1,0,0.2,0.1,0.3,0.2s0.2,0.2,0.2,0.3c0,0.1,0.1,0.3,0.1,0.4c0,0.1,0,0.3-0.1,0.4
			c0,0.1-0.1,0.2-0.2,0.4c-0.1,0.1-0.2,0.2-0.3,0.4c-0.1,0.1-0.2,0.2-0.3,0.4l-0.7,0.7v0h1.7V1242.6z"/>
		<path class="st4" d="M-1421.2,1241.2l0.3-0.4l0.7-0.9h0.5l-1,1.2l1,1.5h-0.5l-0.8-1.2l-0.3,0.2v1h-0.4v-3.8h0.4v1.7
			L-1421.2,1241.2L-1421.2,1241.2z"/>
		<path class="st4" d="M-1417.7,1239.4c-0.2,0-0.3,0-0.5,0.1c-0.1,0.1-0.2,0.1-0.3,0.2c-0.1,0.1-0.1,0.2-0.2,0.4
			c0,0.2-0.1,0.3-0.1,0.5c0,0.2,0,0.3,0,0.5c0,0.2,0.1,0.3,0.1,0.4c0.1,0.1,0.2,0.3,0.3,0.4c0.1,0.1,0.2,0.2,0.4,0.3v0.4h-1.4v-0.4
			h0.9c-0.1-0.1-0.2-0.2-0.3-0.3c-0.1-0.1-0.2-0.2-0.2-0.4s-0.1-0.3-0.2-0.4s-0.1-0.3-0.1-0.5c0-0.2,0-0.5,0.1-0.7
			c0.1-0.2,0.2-0.4,0.3-0.5c0.1-0.1,0.3-0.2,0.5-0.3s0.4-0.1,0.7-0.1c0.3,0,0.5,0,0.7,0.1c0.2,0.1,0.4,0.2,0.5,0.3
			c0.1,0.1,0.2,0.3,0.3,0.5c0.1,0.2,0.1,0.4,0.1,0.7c0,0.2,0,0.4-0.1,0.5s-0.1,0.3-0.2,0.4s-0.1,0.3-0.2,0.4
			c-0.1,0.1-0.2,0.2-0.3,0.3h0.9v0.4h-1.4v-0.4c0.2-0.1,0.3-0.2,0.4-0.3c0.1-0.1,0.2-0.3,0.3-0.4c0.1-0.1,0.1-0.3,0.1-0.4
			c0-0.2,0-0.3,0-0.5c0-0.2,0-0.4-0.1-0.5c0-0.2-0.1-0.3-0.2-0.4c-0.1-0.1-0.2-0.2-0.3-0.2
			C-1417.4,1239.4-1417.5,1239.4-1417.7,1239.4z"/>
	</g>
	<g class="st5">
		<path class="st4" d="M-1465.4,1290.9h-0.5v0.8h-0.4v-0.8h-1.6v-0.4l1.6-2.4h0.5v2.4h0.5V1290.9z M-1466.4,1290.5v-0.9
			c0-0.1,0-0.2,0-0.3c0-0.1,0-0.2,0-0.3c0-0.1,0-0.2,0-0.3c0-0.1,0-0.2,0-0.2h0c0,0,0,0.1,0,0.1c0,0,0,0.1-0.1,0.1
			c0,0,0,0.1-0.1,0.1c0,0,0,0.1-0.1,0.1l-1,1.5H-1466.4z"/>
		<path class="st4" d="M-1465,1291.4c0-0.1,0-0.1,0-0.2s0-0.1,0.1-0.1c0,0,0.1,0,0.1-0.1c0,0,0.1,0,0.1,0c0,0,0.1,0,0.1,0
			c0,0,0.1,0,0.1,0.1c0,0,0,0.1,0.1,0.1s0,0.1,0,0.2c0,0.1,0,0.1,0,0.2s0,0.1-0.1,0.1s-0.1,0-0.1,0.1c0,0-0.1,0-0.1,0
			c0,0-0.1,0-0.1,0c0,0-0.1,0-0.1-0.1s0-0.1-0.1-0.1S-1465,1291.5-1465,1291.4z"/>
		<path class="st4" d="M-1463.3,1291.7l1.4-3.2h-1.8v-0.4h2.3v0.4l-1.4,3.2H-1463.3z"/>
		<path class="st4" d="M-1460.4,1290.3l0.3-0.4l0.7-0.9h0.5l-1,1.2l1,1.5h-0.5l-0.8-1.2l-0.3,0.2v1h-0.4v-3.8h0.4v1.7
			L-1460.4,1290.3L-1460.4,1290.3z"/>
		<path class="st4" d="M-1456.9,1288.5c-0.2,0-0.3,0-0.5,0.1c-0.1,0.1-0.2,0.1-0.3,0.2c-0.1,0.1-0.1,0.2-0.2,0.4
			c0,0.2-0.1,0.3-0.1,0.5c0,0.2,0,0.3,0,0.5c0,0.2,0.1,0.3,0.1,0.4c0.1,0.1,0.2,0.3,0.3,0.4c0.1,0.1,0.2,0.2,0.4,0.3v0.4h-1.4v-0.4
			h0.9c-0.1-0.1-0.2-0.2-0.3-0.3c-0.1-0.1-0.2-0.2-0.2-0.4s-0.1-0.3-0.2-0.4s-0.1-0.3-0.1-0.5c0-0.2,0-0.5,0.1-0.7
			c0.1-0.2,0.2-0.4,0.3-0.5c0.1-0.1,0.3-0.2,0.5-0.3s0.4-0.1,0.7-0.1c0.3,0,0.5,0,0.7,0.1c0.2,0.1,0.4,0.2,0.5,0.3
			c0.1,0.1,0.2,0.3,0.3,0.5c0.1,0.2,0.1,0.4,0.1,0.7c0,0.2,0,0.4-0.1,0.5s-0.1,0.3-0.2,0.4s-0.1,0.3-0.2,0.4
			c-0.1,0.1-0.2,0.2-0.3,0.3h0.9v0.4h-1.4v-0.4c0.2-0.1,0.3-0.2,0.4-0.3c0.1-0.1,0.2-0.3,0.3-0.4c0.1-0.1,0.1-0.3,0.1-0.4
			c0-0.2,0-0.3,0-0.5c0-0.2,0-0.4-0.1-0.5c0-0.2-0.1-0.3-0.2-0.4c-0.1-0.1-0.2-0.2-0.3-0.2
			C-1456.6,1288.5-1456.7,1288.5-1456.9,1288.5z"/>
	</g>
	<g class="st5">
		<path class="st4" d="M-1399.8,1289.6v-3.6h0.5v3.2h1.4v0.4H-1399.8z"/>
		<path class="st4" d="M-1395.8,1289.6l-1.1-3.1h0c0,0.1,0,0.2,0,0.4c0,0.1,0,0.2,0,0.3s0,0.2,0,0.3v2.1h-0.4v-3.6h0.7l1,2.9h0
			l1-2.9h0.7v3.6h-0.5v-2.2c0-0.1,0-0.2,0-0.3c0-0.1,0-0.2,0-0.3c0-0.1,0-0.2,0-0.4h0l-1.1,3.1H-1395.8z"/>
		<path class="st4" d="M-1391.1,1286.9c0,0.1,0,0.2-0.1,0.3s-0.1,0.2-0.2,0.3c-0.1,0.1-0.1,0.1-0.2,0.2c-0.1,0-0.2,0.1-0.3,0.1v0
			c0.3,0,0.5,0.1,0.7,0.3s0.2,0.3,0.2,0.6c0,0.2,0,0.3-0.1,0.4s-0.1,0.2-0.2,0.3s-0.2,0.2-0.4,0.2s-0.4,0.1-0.6,0.1
			c-0.2,0-0.3,0-0.5,0c-0.2,0-0.3-0.1-0.4-0.2v-0.4c0.1,0.1,0.3,0.1,0.5,0.2c0.2,0,0.3,0.1,0.5,0.1s0.3,0,0.4,0
			c0.1,0,0.2-0.1,0.3-0.1c0.1-0.1,0.1-0.1,0.2-0.2s0.1-0.2,0.1-0.3c0-0.1,0-0.2-0.1-0.3c0-0.1-0.1-0.1-0.2-0.2
			c-0.1-0.1-0.2-0.1-0.3-0.1c-0.1,0-0.2,0-0.4,0h-0.3v-0.4h0.3c0.1,0,0.2,0,0.4,0c0.1,0,0.2-0.1,0.3-0.1s0.1-0.1,0.2-0.2
			s0.1-0.2,0.1-0.3c0-0.1,0-0.2,0-0.2c0-0.1-0.1-0.1-0.1-0.2c-0.1,0-0.1-0.1-0.2-0.1s-0.2,0-0.2,0c-0.2,0-0.3,0-0.5,0.1
			c-0.1,0.1-0.3,0.1-0.4,0.2l-0.2-0.3c0.1-0.1,0.1-0.1,0.2-0.1c0.1,0,0.2-0.1,0.2-0.1s0.2-0.1,0.3-0.1c0.1,0,0.2,0,0.3,0
			c0.2,0,0.3,0,0.5,0.1s0.2,0.1,0.3,0.2s0.2,0.2,0.2,0.3C-1391.1,1286.6-1391.1,1286.7-1391.1,1286.9z"/>
		<path class="st4" d="M-1388.3,1286.9c0,0.1,0,0.2-0.1,0.3s-0.1,0.2-0.2,0.3c-0.1,0.1-0.1,0.1-0.2,0.2c-0.1,0-0.2,0.1-0.3,0.1v0
			c0.3,0,0.5,0.1,0.7,0.3s0.2,0.3,0.2,0.6c0,0.2,0,0.3-0.1,0.4s-0.1,0.2-0.2,0.3s-0.2,0.2-0.4,0.2s-0.4,0.1-0.6,0.1
			c-0.2,0-0.3,0-0.5,0c-0.2,0-0.3-0.1-0.4-0.2v-0.4c0.1,0.1,0.3,0.1,0.5,0.2c0.2,0,0.3,0.1,0.5,0.1s0.3,0,0.4,0
			c0.1,0,0.2-0.1,0.3-0.1c0.1-0.1,0.1-0.1,0.2-0.2s0.1-0.2,0.1-0.3c0-0.1,0-0.2-0.1-0.3c0-0.1-0.1-0.1-0.2-0.2
			c-0.1-0.1-0.2-0.1-0.3-0.1c-0.1,0-0.2,0-0.4,0h-0.3v-0.4h0.3c0.1,0,0.2,0,0.4,0c0.1,0,0.2-0.1,0.3-0.1s0.1-0.1,0.2-0.2
			s0.1-0.2,0.1-0.3c0-0.1,0-0.2,0-0.2c0-0.1-0.1-0.1-0.1-0.2c-0.1,0-0.1-0.1-0.2-0.1s-0.2,0-0.2,0c-0.2,0-0.3,0-0.5,0.1
			c-0.1,0.1-0.3,0.1-0.4,0.2l-0.2-0.3c0.1-0.1,0.1-0.1,0.2-0.1c0.1,0,0.2-0.1,0.2-0.1s0.2-0.1,0.3-0.1c0.1,0,0.2,0,0.3,0
			c0.2,0,0.3,0,0.5,0.1s0.2,0.1,0.3,0.2s0.2,0.2,0.2,0.3C-1388.4,1286.6-1388.3,1286.7-1388.3,1286.9z"/>
		<path class="st4" d="M-1385.4,1287.5c0,0.2,0,0.3,0,0.5c0,0.2,0,0.3-0.1,0.5c0,0.2-0.1,0.3-0.2,0.4c-0.1,0.1-0.2,0.3-0.3,0.3
			c-0.1,0.1-0.3,0.2-0.4,0.2c-0.2,0.1-0.3,0.1-0.6,0.1c0,0-0.1,0-0.1,0c0,0-0.1,0-0.1,0c0,0-0.1,0-0.1,0s-0.1,0-0.1,0v-0.4
			c0.1,0,0.1,0,0.2,0s0.1,0,0.2,0c0.2,0,0.4,0,0.5-0.1c0.1-0.1,0.3-0.2,0.3-0.3c0.1-0.1,0.1-0.3,0.2-0.5c0-0.2,0.1-0.4,0.1-0.6h0
			c0,0.1-0.1,0.1-0.1,0.2c0,0.1-0.1,0.1-0.2,0.1c-0.1,0-0.1,0.1-0.2,0.1s-0.2,0-0.3,0c-0.2,0-0.3,0-0.4-0.1s-0.2-0.1-0.3-0.2
			c-0.1-0.1-0.2-0.2-0.2-0.3c0-0.1-0.1-0.3-0.1-0.5c0-0.2,0-0.4,0.1-0.5c0.1-0.1,0.1-0.3,0.2-0.4s0.2-0.2,0.3-0.2
			c0.1-0.1,0.3-0.1,0.5-0.1c0.2,0,0.3,0,0.5,0.1c0.1,0.1,0.3,0.2,0.4,0.3c0.1,0.1,0.2,0.3,0.2,0.5
			C-1385.4,1287-1385.4,1287.3-1385.4,1287.5z M-1386.6,1286.3c-0.1,0-0.2,0-0.3,0c-0.1,0-0.2,0.1-0.2,0.2s-0.1,0.2-0.1,0.3
			c0,0.1,0,0.2,0,0.4c0,0.1,0,0.2,0,0.3c0,0.1,0.1,0.2,0.1,0.2c0.1,0.1,0.1,0.1,0.2,0.1c0.1,0,0.2,0.1,0.3,0.1c0.1,0,0.2,0,0.3-0.1
			s0.2-0.1,0.2-0.1c0.1-0.1,0.1-0.1,0.1-0.2c0-0.1,0.1-0.2,0.1-0.2c0-0.1,0-0.2,0-0.3s-0.1-0.2-0.1-0.3s-0.1-0.2-0.2-0.2
			C-1386.4,1286.4-1386.5,1286.3-1386.6,1286.3z"/>
	</g>
	<g class="st5">
		<path class="st4" d="M-1399.2,1336.5h-0.4v-2.2c0-0.1,0-0.1,0-0.2c0-0.1,0-0.2,0-0.2c0-0.1,0-0.2,0-0.2c0-0.1,0-0.1,0-0.2
			c0,0-0.1,0.1-0.1,0.1c0,0,0,0-0.1,0.1c0,0,0,0-0.1,0.1c0,0-0.1,0-0.1,0.1l-0.4,0.3l-0.2-0.3l0.9-0.7h0.4V1336.5z"/>
		<path class="st4" d="M-1395.7,1334.8c0,0.3,0,0.5-0.1,0.8c0,0.2-0.1,0.4-0.2,0.6c-0.1,0.2-0.2,0.3-0.4,0.4
			c-0.1,0.1-0.3,0.1-0.5,0.1c-0.2,0-0.4,0-0.5-0.1c-0.1-0.1-0.3-0.2-0.4-0.4c-0.1-0.2-0.2-0.4-0.2-0.6c0-0.2-0.1-0.5-0.1-0.8
			c0-0.3,0-0.5,0.1-0.8c0-0.2,0.1-0.4,0.2-0.6c0.1-0.2,0.2-0.3,0.4-0.4c0.1-0.1,0.3-0.1,0.5-0.1c0.2,0,0.4,0,0.5,0.1
			s0.3,0.2,0.4,0.4s0.2,0.3,0.2,0.6C-1395.7,1334.2-1395.7,1334.5-1395.7,1334.8z M-1397.5,1334.8c0,0.2,0,0.5,0,0.6
			c0,0.2,0.1,0.3,0.1,0.5s0.1,0.2,0.2,0.3c0.1,0.1,0.2,0.1,0.3,0.1c0.1,0,0.2,0,0.3-0.1s0.2-0.2,0.2-0.3c0.1-0.1,0.1-0.3,0.1-0.5
			c0-0.2,0-0.4,0-0.6c0-0.2,0-0.5,0-0.6c0-0.2-0.1-0.3-0.1-0.5c-0.1-0.1-0.1-0.2-0.2-0.3s-0.2-0.1-0.3-0.1c-0.1,0-0.2,0-0.3,0.1
			s-0.2,0.2-0.2,0.3c-0.1,0.1-0.1,0.3-0.1,0.5C-1397.5,1334.3-1397.5,1334.5-1397.5,1334.8z"/>
		<path class="st4" d="M-1392.9,1334.8c0,0.3,0,0.5-0.1,0.8c0,0.2-0.1,0.4-0.2,0.6c-0.1,0.2-0.2,0.3-0.4,0.4
			c-0.1,0.1-0.3,0.1-0.5,0.1c-0.2,0-0.4,0-0.5-0.1c-0.1-0.1-0.3-0.2-0.4-0.4c-0.1-0.2-0.2-0.4-0.2-0.6c0-0.2-0.1-0.5-0.1-0.8
			c0-0.3,0-0.5,0.1-0.8c0-0.2,0.1-0.4,0.2-0.6c0.1-0.2,0.2-0.3,0.4-0.4c0.1-0.1,0.3-0.1,0.5-0.1c0.2,0,0.4,0,0.5,0.1
			s0.3,0.2,0.4,0.4s0.2,0.3,0.2,0.6C-1393,1334.2-1392.9,1334.5-1392.9,1334.8z M-1394.8,1334.8c0,0.2,0,0.5,0,0.6
			c0,0.2,0.1,0.3,0.1,0.5s0.1,0.2,0.2,0.3c0.1,0.1,0.2,0.1,0.3,0.1c0.1,0,0.2,0,0.3-0.1s0.2-0.2,0.2-0.3c0.1-0.1,0.1-0.3,0.1-0.5
			c0-0.2,0-0.4,0-0.6c0-0.2,0-0.5,0-0.6c0-0.2-0.1-0.3-0.1-0.5c-0.1-0.1-0.1-0.2-0.2-0.3s-0.2-0.1-0.3-0.1c-0.1,0-0.2,0-0.3,0.1
			s-0.2,0.2-0.2,0.3c-0.1,0.1-0.1,0.3-0.1,0.5C-1394.8,1334.3-1394.8,1334.5-1394.8,1334.8z"/>
		<path class="st4" d="M-1391.9,1335.2l0.3-0.4l0.7-0.9h0.5l-1,1.2l1,1.5h-0.5l-0.8-1.2l-0.3,0.2v1h-0.4v-3.8h0.4v1.7
			L-1391.9,1335.2L-1391.9,1335.2z"/>
		<path class="st4" d="M-1388.4,1333.3c-0.2,0-0.3,0-0.5,0.1c-0.1,0.1-0.2,0.1-0.3,0.2c-0.1,0.1-0.2,0.2-0.2,0.4
			c0,0.2-0.1,0.3-0.1,0.5c0,0.2,0,0.3,0,0.5c0,0.2,0.1,0.3,0.1,0.4c0.1,0.1,0.2,0.3,0.3,0.4c0.1,0.1,0.2,0.2,0.4,0.3v0.4h-1.4v-0.4
			h0.9c-0.1-0.1-0.2-0.2-0.3-0.3c-0.1-0.1-0.2-0.2-0.2-0.4c-0.1-0.1-0.1-0.3-0.2-0.4s-0.1-0.3-0.1-0.5c0-0.2,0-0.5,0.1-0.7
			c0.1-0.2,0.2-0.4,0.3-0.5c0.1-0.1,0.3-0.2,0.5-0.3s0.4-0.1,0.7-0.1c0.3,0,0.5,0,0.7,0.1s0.4,0.2,0.5,0.3c0.1,0.1,0.2,0.3,0.3,0.5
			c0.1,0.2,0.1,0.4,0.1,0.7c0,0.2,0,0.4-0.1,0.5s-0.1,0.3-0.2,0.4c-0.1,0.1-0.1,0.3-0.2,0.4c-0.1,0.1-0.2,0.2-0.3,0.3h0.9v0.4h-1.4
			v-0.4c0.2-0.1,0.3-0.2,0.4-0.3c0.1-0.1,0.2-0.3,0.3-0.4c0.1-0.1,0.1-0.3,0.1-0.4c0-0.2,0-0.3,0-0.5c0-0.2,0-0.4-0.1-0.5
			c0-0.2-0.1-0.3-0.2-0.4c-0.1-0.1-0.2-0.2-0.3-0.2C-1388,1333.3-1388.2,1333.3-1388.4,1333.3z"/>
	</g>
	<path id="XMLID_16_" class="st2" d="M-1432.6,1281.2v10.9c2,0,3.6,1.6,3.6,3.6s-1.6,3.6-3.6,3.6v10.7"/>
	<polyline id="XMLID_18_" class="st2" points="-1418.3,1295.6 -1418.3,1341.1 -1400.2,1341.1 	"/>
	<g class="st5">
		<path class="st4" d="M-1408.3,1300.8h-0.4v-2.2c0-0.1,0-0.1,0-0.2c0-0.1,0-0.2,0-0.2c0-0.1,0-0.2,0-0.2c0-0.1,0-0.1,0-0.2
			c0,0-0.1,0.1-0.1,0.1c0,0,0,0-0.1,0.1c0,0,0,0-0.1,0.1c0,0-0.1,0-0.1,0.1l-0.4,0.3l-0.2-0.3l0.9-0.7h0.4V1300.8z"/>
		<path class="st4" d="M-1405.6,1300.8h-0.4v-2.2c0-0.1,0-0.1,0-0.2c0-0.1,0-0.2,0-0.2c0-0.1,0-0.2,0-0.2c0-0.1,0-0.1,0-0.2
			c0,0-0.1,0.1-0.1,0.1c0,0,0,0-0.1,0.1c0,0,0,0-0.1,0.1c0,0-0.1,0-0.1,0.1l-0.4,0.3l-0.2-0.3l0.9-0.7h0.4V1300.8z"/>
	</g>
	<g class="st5">
		<path class="st4" d="M-1408.3,1279.7h-0.4v-2.2c0-0.1,0-0.1,0-0.2c0-0.1,0-0.2,0-0.2c0-0.1,0-0.2,0-0.2c0-0.1,0-0.1,0-0.2
			c0,0-0.1,0.1-0.1,0.1c0,0,0,0-0.1,0.1c0,0,0,0-0.1,0.1c0,0-0.1,0-0.1,0.1l-0.4,0.3l-0.2-0.3l0.9-0.7h0.4V1279.7z"/>
		<path class="st4" d="M-1404.8,1277.9c0,0.3,0,0.5-0.1,0.8c0,0.2-0.1,0.4-0.2,0.6c-0.1,0.2-0.2,0.3-0.4,0.4
			c-0.1,0.1-0.3,0.1-0.5,0.1c-0.2,0-0.4,0-0.5-0.1c-0.1-0.1-0.3-0.2-0.4-0.4c-0.1-0.2-0.2-0.4-0.2-0.6c0-0.2-0.1-0.5-0.1-0.8
			c0-0.3,0-0.5,0.1-0.8c0-0.2,0.1-0.4,0.2-0.6c0.1-0.2,0.2-0.3,0.4-0.4c0.1-0.1,0.3-0.1,0.5-0.1c0.2,0,0.4,0,0.5,0.1
			c0.1,0.1,0.3,0.2,0.4,0.4c0.1,0.2,0.2,0.3,0.2,0.6C-1404.8,1277.4-1404.8,1277.6-1404.8,1277.9z M-1406.6,1277.9
			c0,0.2,0,0.5,0,0.6c0,0.2,0.1,0.3,0.1,0.5s0.1,0.2,0.2,0.3c0.1,0.1,0.2,0.1,0.3,0.1c0.1,0,0.2,0,0.3-0.1s0.2-0.2,0.2-0.3
			c0.1-0.1,0.1-0.3,0.1-0.5c0-0.2,0-0.4,0-0.6c0-0.2,0-0.5,0-0.6c0-0.2-0.1-0.3-0.1-0.5c-0.1-0.1-0.1-0.2-0.2-0.3s-0.2-0.1-0.3-0.1
			c-0.1,0-0.2,0-0.3,0.1s-0.2,0.2-0.2,0.3c-0.1,0.1-0.1,0.3-0.1,0.5C-1406.6,1277.5-1406.6,1277.7-1406.6,1277.9z"/>
	</g>
	<g class="st5">
		<path class="st4" d="M-1393.2,1274.5c0,0.1,0,0.2-0.1,0.3s-0.1,0.2-0.2,0.3c-0.1,0.1-0.1,0.1-0.2,0.2c-0.1,0-0.2,0.1-0.3,0.1v0
			c0.3,0,0.5,0.1,0.7,0.3s0.2,0.3,0.2,0.6c0,0.2,0,0.3-0.1,0.4s-0.1,0.2-0.2,0.3s-0.2,0.2-0.4,0.2s-0.4,0.1-0.6,0.1
			c-0.2,0-0.3,0-0.5,0c-0.2,0-0.3-0.1-0.4-0.2v-0.4c0.1,0.1,0.3,0.1,0.5,0.2c0.2,0,0.3,0.1,0.5,0.1s0.3,0,0.4,0
			c0.1,0,0.2-0.1,0.3-0.1c0.1-0.1,0.1-0.1,0.2-0.2s0.1-0.2,0.1-0.3c0-0.1,0-0.2-0.1-0.3c0-0.1-0.1-0.1-0.2-0.2
			c-0.1-0.1-0.2-0.1-0.3-0.1c-0.1,0-0.2,0-0.4,0h-0.3v-0.4h0.3c0.1,0,0.2,0,0.4,0c0.1,0,0.2-0.1,0.3-0.1s0.1-0.1,0.2-0.2
			s0.1-0.2,0.1-0.3c0-0.1,0-0.2,0-0.2c0-0.1-0.1-0.1-0.1-0.2c-0.1,0-0.1-0.1-0.2-0.1s-0.2,0-0.2,0c-0.2,0-0.3,0-0.5,0.1
			c-0.1,0.1-0.3,0.1-0.4,0.2l-0.2-0.3c0.1-0.1,0.1-0.1,0.2-0.1c0.1,0,0.2-0.1,0.2-0.1s0.2-0.1,0.3-0.1c0.1,0,0.2,0,0.3,0
			c0.2,0,0.3,0,0.5,0.1s0.2,0.1,0.3,0.2s0.2,0.2,0.2,0.3C-1393.2,1274.3-1393.2,1274.4-1393.2,1274.5z"/>
	</g>
	<g class="st5">
		<path class="st4" d="M-1373.3,1285.5h-0.4v-2.2c0-0.1,0-0.1,0-0.2c0-0.1,0-0.2,0-0.2c0-0.1,0-0.2,0-0.2c0-0.1,0-0.1,0-0.2
			c0,0-0.1,0.1-0.1,0.1c0,0,0,0-0.1,0.1c0,0,0,0-0.1,0.1s-0.1,0-0.1,0.1l-0.4,0.3l-0.2-0.3l0.9-0.7h0.4V1285.5z"/>
		<path class="st4" d="M-1369.9,1282.7c0,0.1,0,0.2-0.1,0.3c0,0.1-0.1,0.2-0.2,0.3s-0.1,0.1-0.2,0.2c-0.1,0-0.2,0.1-0.3,0.1v0
			c0.3,0,0.5,0.1,0.7,0.3c0.2,0.1,0.2,0.3,0.2,0.6c0,0.2,0,0.3-0.1,0.4c-0.1,0.1-0.1,0.2-0.2,0.3c-0.1,0.1-0.2,0.2-0.4,0.2
			c-0.2,0.1-0.4,0.1-0.6,0.1c-0.2,0-0.3,0-0.5,0c-0.2,0-0.3-0.1-0.4-0.2v-0.4c0.1,0.1,0.3,0.1,0.5,0.2c0.2,0,0.3,0.1,0.5,0.1
			c0.1,0,0.3,0,0.4,0c0.1,0,0.2-0.1,0.3-0.1c0.1-0.1,0.1-0.1,0.2-0.2c0-0.1,0.1-0.2,0.1-0.3s0-0.2-0.1-0.3c0-0.1-0.1-0.1-0.2-0.2
			c-0.1-0.1-0.2-0.1-0.3-0.1c-0.1,0-0.2,0-0.4,0h-0.3v-0.4h0.3c0.1,0,0.2,0,0.4,0s0.2-0.1,0.3-0.1s0.1-0.1,0.2-0.2
			c0-0.1,0.1-0.2,0.1-0.3c0-0.1,0-0.2,0-0.2c0-0.1-0.1-0.1-0.1-0.2c-0.1,0-0.1-0.1-0.2-0.1c-0.1,0-0.2,0-0.2,0c-0.2,0-0.3,0-0.5,0.1
			s-0.3,0.1-0.4,0.2l-0.2-0.3c0.1-0.1,0.1-0.1,0.2-0.1c0.1,0,0.2-0.1,0.2-0.1c0.1,0,0.2-0.1,0.3-0.1s0.2,0,0.3,0
			c0.2,0,0.3,0,0.5,0.1c0.1,0,0.2,0.1,0.3,0.2c0.1,0.1,0.2,0.2,0.2,0.3C-1370,1282.5-1369.9,1282.6-1369.9,1282.7z"/>
	</g>
	<g class="st5">
		<path class="st4" d="M-1393.8,1302.7h-0.4v-2.2c0-0.1,0-0.1,0-0.2c0-0.1,0-0.2,0-0.2c0-0.1,0-0.2,0-0.2c0-0.1,0-0.1,0-0.2
			c0,0-0.1,0.1-0.1,0.1c0,0,0,0-0.1,0.1c0,0,0,0-0.1,0.1c0,0-0.1,0-0.1,0.1l-0.4,0.3l-0.2-0.3l0.9-0.7h0.4V1302.7z"/>
		<path class="st4" d="M-1390.3,1302.7h-2.2v-0.4l0.9-0.9c0.1-0.1,0.2-0.3,0.3-0.4c0.1-0.1,0.2-0.2,0.2-0.3s0.1-0.2,0.2-0.3
			c0-0.1,0.1-0.2,0.1-0.3c0-0.1,0-0.2,0-0.3c0-0.1-0.1-0.1-0.1-0.2c-0.1-0.1-0.1-0.1-0.2-0.1c-0.1,0-0.1,0-0.2,0
			c-0.2,0-0.3,0-0.4,0.1c-0.1,0.1-0.2,0.1-0.4,0.2l-0.2-0.3c0.1-0.1,0.1-0.1,0.2-0.2c0.1-0.1,0.2-0.1,0.2-0.1c0.1,0,0.2-0.1,0.3-0.1
			c0.1,0,0.2,0,0.3,0c0.2,0,0.3,0,0.4,0.1c0.1,0,0.2,0.1,0.3,0.2s0.2,0.2,0.2,0.3s0.1,0.3,0.1,0.4c0,0.1,0,0.3-0.1,0.4
			c0,0.1-0.1,0.2-0.2,0.4c-0.1,0.1-0.2,0.2-0.3,0.4c-0.1,0.1-0.2,0.2-0.3,0.4l-0.7,0.7v0h1.7V1302.7z"/>
	</g>
	<g class="st5">
		<path d="M-1519.2,1334.5v-1h7.2v-3.5h0.9v4.5H-1519.2z"/>
		<path d="M-1511.1,1325.7l-0.7,0.1v0c0.5,0.3,0.9,0.9,0.9,1.8c0,1.2-0.8,1.8-1.7,1.8c-1.4,0-2.2-1.2-2.2-3.5h-0.1
			c-0.5,0-1.3,0.1-1.3,1.3c0,0.5,0.2,1.1,0.4,1.5l-0.7,0.2c-0.3-0.5-0.5-1.2-0.5-1.9c0-1.8,1.2-2.2,2.4-2.2h2.2c0.5,0,1,0,1.4-0.1
			V1325.7z M-1514,1325.8c0,1.2,0.2,2.5,1.3,2.5c0.7,0,1-0.5,1-1c0-0.8-0.5-1.2-1-1.4c-0.1,0-0.2-0.1-0.3-0.1H-1514z"/>
		<path d="M-1512.2,1323.3c0.2-0.3,0.4-0.9,0.4-1.4c0-0.8-0.4-1.1-0.9-1.1c-0.5,0-0.8,0.3-1.1,1.1c-0.4,1-0.9,1.5-1.6,1.5
			c-0.9,0-1.7-0.8-1.7-2c0-0.6,0.2-1.1,0.4-1.4l0.8,0.3c-0.1,0.2-0.3,0.6-0.3,1.2c0,0.6,0.4,1,0.8,1c0.5,0,0.7-0.3,1-1.1
			c0.4-1,0.9-1.5,1.8-1.5c1,0,1.7,0.8,1.7,2.2c0,0.6-0.2,1.2-0.4,1.6L-1512.2,1323.3z"/>
		<path d="M-1513.8,1317.8c1.4,0,2-0.9,2-2c0-0.8-0.1-1.2-0.3-1.6l0.8-0.2c0.2,0.4,0.4,1,0.4,1.9c0,1.8-1.2,2.9-2.9,2.9
			s-3.1-1-3.1-2.7c0-1.9,1.7-2.4,2.7-2.4c0.2,0,0.4,0,0.5,0V1317.8z M-1514.5,1314.7c-0.7,0-1.7,0.3-1.7,1.5c0,1.1,1,1.5,1.7,1.6
			V1314.7z"/>
		<path d="M-1515.1,1312.4c-0.7,0-1.3,0-1.8,0v-0.9l1.1,0v0c-0.8-0.3-1.3-0.9-1.3-1.6c0-0.1,0-0.2,0-0.3h1c0,0.1,0,0.2,0,0.4
			c0,0.7,0.6,1.3,1.4,1.4c0.1,0,0.3,0,0.5,0h3.1v1H-1515.1z"/>
		<path d="M-1519.2,1304.8h3.4v-3.9h-3.4v-1.1h8.1v1.1h-3.8v3.9h3.8v1h-8.1V1304.8z"/>
		<path d="M-1511.1,1296.3l-8.1,2.6v-1.1l4-1.3c1.1-0.3,2.1-0.6,3-0.9v0c-0.9-0.2-2-0.6-3-0.9l-4-1.4v-1.1l8.1,2.9V1296.3z"/>
		<path d="M-1519.1,1288.8c-0.1-0.5-0.2-1.2-0.2-2c0-1,0.2-1.8,0.7-2.3c0.4-0.4,1-0.7,1.7-0.7c0.7,0,1.3,0.2,1.7,0.6
			c0.6,0.6,0.9,1.5,0.9,2.5c0,0.3,0,0.6-0.1,0.8h3.2v1H-1519.1z M-1515.2,1287.7c0.1-0.2,0.1-0.5,0.1-0.9c0-1.3-0.6-2-1.7-2
			c-1.1,0-1.6,0.8-1.6,1.9c0,0.5,0,0.8,0.1,1H-1515.2z"/>
		<path d="M-1514,1277.5c2.1,0,3.1,1.5,3.1,2.9c0,1.6-1.2,2.8-3,2.8c-1.9,0-3.1-1.3-3.1-2.9C-1517,1278.6-1515.8,1277.5-1514,1277.5
			z M-1514,1282.1c1.3,0,2.2-0.7,2.2-1.8c0-1-0.9-1.8-2.3-1.8c-1,0-2.2,0.5-2.2,1.7C-1516.2,1281.6-1515.1,1282.1-1514,1282.1z"/>
		<path d="M-1516.9,1275.8l3-0.8c0.6-0.2,1.2-0.3,1.8-0.4v0c-0.6-0.1-1.2-0.3-1.8-0.5l-3-0.9v-0.9l2.9-0.9c0.7-0.2,1.3-0.4,1.9-0.5
			v0c-0.6-0.1-1.2-0.3-1.9-0.4l-2.9-0.8v-1l5.8,1.9v1l-2.8,0.9c-0.6,0.2-1.2,0.4-1.9,0.5v0c0.7,0.1,1.3,0.3,1.9,0.5l2.8,0.9v1
			l-5.8,1.8V1275.8z"/>
		<path d="M-1513.8,1266.9c1.4,0,2-0.9,2-2c0-0.8-0.1-1.2-0.3-1.6l0.8-0.2c0.2,0.4,0.4,1,0.4,1.9c0,1.8-1.2,2.9-2.9,2.9
			s-3.1-1-3.1-2.7c0-1.9,1.7-2.4,2.7-2.4c0.2,0,0.4,0,0.5,0V1266.9z M-1514.5,1263.8c-0.7,0-1.7,0.3-1.7,1.5c0,1.1,1,1.5,1.7,1.6
			V1263.8z"/>
		<path d="M-1515.1,1261.5c-0.7,0-1.3,0-1.8,0v-0.9l1.1,0v0c-0.8-0.3-1.3-0.9-1.3-1.6c0-0.1,0-0.2,0-0.3h1c0,0.1,0,0.2,0,0.4
			c0,0.7,0.6,1.3,1.4,1.4c0.1,0,0.3,0,0.5,0h3.1v1H-1515.1z"/>
		<path d="M-1512.4,1255.2c0.3-0.5,0.5-1.2,0.5-1.9c0-1.1-0.6-1.7-1.4-1.7c-0.8,0-1.2,0.4-1.6,1.5c-0.5,1.3-1.2,2.1-2.3,2.1
			c-1.3,0-2.2-1-2.2-2.6c0-0.8,0.2-1.4,0.4-1.8l0.9,0.3c-0.1,0.3-0.4,0.8-0.4,1.5c0,1.1,0.7,1.5,1.2,1.5c0.8,0,1.1-0.5,1.6-1.6
			c0.5-1.4,1.2-2.1,2.4-2.1c1.2,0,2.3,0.9,2.3,2.8c0,0.8-0.2,1.6-0.5,2.1L-1512.4,1255.2z"/>
		<path d="M-1512.7,1244.3c0.6,0,1.1,0,1.6,0v0.9l-0.9,0.1v0c0.5,0.3,1.1,0.9,1.1,1.9c0,0.9-0.5,2-2.5,2h-3.4v-1.1h3.2
			c1.1,0,1.8-0.3,1.8-1.3c0-0.7-0.5-1.2-1-1.4c-0.2-0.1-0.3-0.1-0.5-0.1h-3.6v-1.1H-1512.7z"/>
		<path d="M-1515,1242.5c-0.7,0-1.3,0-1.9,0v-0.9l1,0v0c-0.7-0.4-1.1-1.1-1.1-2.1c0-1.4,1.2-2.5,3-2.5c2.1,0,3.1,1.3,3.1,2.6
			c0,0.8-0.3,1.4-0.9,1.8v0h3.2v1H-1515z M-1513.4,1241.5c0.2,0,0.3,0,0.4,0c0.7-0.2,1.2-0.8,1.2-1.6c0-1.1-0.9-1.8-2.2-1.8
			c-1.2,0-2.2,0.6-2.2,1.7c0,0.7,0.5,1.4,1.3,1.6c0.1,0,0.3,0.1,0.4,0.1H-1513.4z"/>
		<path d="M-1515,1235.7c-0.7,0-1.3,0-1.9,0v-0.9l1,0v0c-0.7-0.4-1.1-1.1-1.1-2.1c0-1.4,1.2-2.5,3-2.5c2.1,0,3.1,1.3,3.1,2.6
			c0,0.8-0.3,1.4-0.9,1.8v0h3.2v1H-1515z M-1513.4,1234.6c0.2,0,0.3,0,0.4,0c0.7-0.2,1.2-0.8,1.2-1.6c0-1.1-0.9-1.8-2.2-1.8
			c-1.2,0-2.2,0.6-2.2,1.7c0,0.7,0.5,1.4,1.3,1.6c0.1,0,0.3,0.1,0.4,0.1H-1513.4z"/>
		<path d="M-1519.6,1228.9v-1.1h8.5v1.1H-1519.6z"/>
		<path d="M-1516.9,1225.6l3.4-1.3c0.4-0.1,0.8-0.3,1.2-0.4v0c-0.3-0.1-0.8-0.2-1.2-0.4l-3.4-1.2v-1.1l4.1,1.6c2,0.8,3,1.3,3.6,2
			c0.5,0.5,0.6,1,0.7,1.3l-0.9,0.3c-0.1-0.3-0.3-0.6-0.5-0.9c-0.2-0.3-0.6-0.6-1.2-0.9c-0.1,0-0.2-0.1-0.3-0.1c-0.1,0-0.1,0-0.3,0.1
			l-5.3,2.1V1225.6z"/>
	</g>
</g>
</svg>
